G04 #@! TF.GenerationSoftware,KiCad,Pcbnew,(6.0.7)*
G04 #@! TF.CreationDate,2022-09-06T15:46:34+02:00*
G04 #@! TF.ProjectId,plain60-flex-edition,706c6169-6e36-4302-9d66-6c65782d6564,rev?*
G04 #@! TF.SameCoordinates,Original*
G04 #@! TF.FileFunction,Soldermask,Top*
G04 #@! TF.FilePolarity,Negative*
%FSLAX46Y46*%
G04 Gerber Fmt 4.6, Leading zero omitted, Abs format (unit mm)*
G04 Created by KiCad (PCBNEW (6.0.7)) date 2022-09-06 15:46:34*
%MOMM*%
%LPD*%
G01*
G04 APERTURE LIST*
G04 Aperture macros list*
%AMRotRect*
0 Rectangle, with rotation*
0 The origin of the aperture is its center*
0 $1 length*
0 $2 width*
0 $3 Rotation angle, in degrees counterclockwise*
0 Add horizontal line*
21,1,$1,$2,0,0,$3*%
G04 Aperture macros list end*
%ADD10C,1.701800*%
%ADD11C,3.987800*%
%ADD12C,2.286000*%
%ADD13C,3.048000*%
%ADD14O,7.000000X2.500000*%
%ADD15O,5.000000X2.500000*%
%ADD16RotRect,1.000000X1.000000X45.000000*%
%ADD17R,1.700000X1.700000*%
%ADD18O,1.700000X1.700000*%
%ADD19C,0.650000*%
%ADD20O,1.000000X1.600000*%
%ADD21O,1.000000X2.100000*%
G04 APERTURE END LIST*
D10*
X71120000Y-28575000D03*
X81280000Y-28575000D03*
D11*
X76200000Y-28575000D03*
D12*
X78740000Y-23495000D03*
X72390000Y-26035000D03*
D10*
X90170000Y-28575000D03*
X100330000Y-28575000D03*
D11*
X95250000Y-28575000D03*
D12*
X97790000Y-23495000D03*
X91440000Y-26035000D03*
D10*
X157480000Y-28575000D03*
X147320000Y-28575000D03*
D11*
X152400000Y-28575000D03*
D12*
X154940000Y-23495000D03*
X148590000Y-26035000D03*
D11*
X171450000Y-28575000D03*
D10*
X176530000Y-28575000D03*
X166370000Y-28575000D03*
D12*
X173990000Y-23495000D03*
X167640000Y-26035000D03*
D11*
X38100000Y-28575000D03*
D10*
X33020000Y-28575000D03*
X43180000Y-28575000D03*
D12*
X40640000Y-23495000D03*
X34290000Y-26035000D03*
D10*
X128270000Y-28575000D03*
X138430000Y-28575000D03*
D11*
X133350000Y-28575000D03*
D12*
X135890000Y-23495000D03*
X129540000Y-26035000D03*
D11*
X114300000Y-28575000D03*
D10*
X109220000Y-28575000D03*
X119380000Y-28575000D03*
D12*
X116840000Y-23495000D03*
X110490000Y-26035000D03*
D10*
X52070000Y-28575000D03*
X62230000Y-28575000D03*
D11*
X57150000Y-28575000D03*
D12*
X59690000Y-23495000D03*
X53340000Y-26035000D03*
D11*
X14287500Y-28575000D03*
D10*
X9207500Y-28575000D03*
X19367500Y-28575000D03*
D12*
X16827500Y-23495000D03*
X10477500Y-26035000D03*
D13*
X254762000Y-2540000D03*
D11*
X266700000Y-9525000D03*
D13*
X278638000Y-2540000D03*
D10*
X261620000Y-9525000D03*
D11*
X278638000Y-17780000D03*
X254762000Y-17780000D03*
D10*
X271780000Y-9525000D03*
D12*
X269240000Y-4445000D03*
X262890000Y-6985000D03*
D10*
X147955000Y-9525000D03*
X137795000Y-9525000D03*
D11*
X142875000Y-9525000D03*
D12*
X145415000Y-4445000D03*
X139065000Y-6985000D03*
D10*
X186055000Y-9525000D03*
X175895000Y-9525000D03*
D11*
X180975000Y-9525000D03*
D12*
X183515000Y-4445000D03*
X177165000Y-6985000D03*
D11*
X257175000Y-9525000D03*
D10*
X252095000Y-9525000D03*
X262255000Y-9525000D03*
D12*
X259715000Y-4445000D03*
X253365000Y-6985000D03*
D10*
X80645000Y-9525000D03*
D11*
X85725000Y-9525000D03*
D10*
X90805000Y-9525000D03*
D12*
X88265000Y-4445000D03*
X81915000Y-6985000D03*
D10*
X233045000Y-9525000D03*
D11*
X238125000Y-9525000D03*
D10*
X243205000Y-9525000D03*
D12*
X240665000Y-4445000D03*
X234315000Y-6985000D03*
D11*
X219075000Y-9525000D03*
D10*
X224155000Y-9525000D03*
X213995000Y-9525000D03*
D12*
X221615000Y-4445000D03*
X215265000Y-6985000D03*
D10*
X205105000Y-9525000D03*
D11*
X200025000Y-9525000D03*
D10*
X194945000Y-9525000D03*
D12*
X202565000Y-4445000D03*
X196215000Y-6985000D03*
D10*
X167005000Y-9525000D03*
X156845000Y-9525000D03*
D11*
X161925000Y-9525000D03*
D12*
X164465000Y-4445000D03*
X158115000Y-6985000D03*
D10*
X128905000Y-9525000D03*
D11*
X123825000Y-9525000D03*
D10*
X118745000Y-9525000D03*
D12*
X126365000Y-4445000D03*
X120015000Y-6985000D03*
D11*
X104775000Y-9525000D03*
D10*
X99695000Y-9525000D03*
X109855000Y-9525000D03*
D12*
X107315000Y-4445000D03*
X100965000Y-6985000D03*
D10*
X71755000Y-9525000D03*
D11*
X66675000Y-9525000D03*
D10*
X61595000Y-9525000D03*
D12*
X69215000Y-4445000D03*
X62865000Y-6985000D03*
D10*
X33655000Y-9525000D03*
X23495000Y-9525000D03*
D11*
X28575000Y-9525000D03*
D12*
X31115000Y-4445000D03*
X24765000Y-6985000D03*
D11*
X9525000Y-9525000D03*
D10*
X4445000Y-9525000D03*
X14605000Y-9525000D03*
D12*
X12065000Y-4445000D03*
X5715000Y-6985000D03*
D11*
X47625000Y-9525000D03*
D10*
X42545000Y-9525000D03*
X52705000Y-9525000D03*
D12*
X50165000Y-4445000D03*
X43815000Y-6985000D03*
D10*
X43180000Y-85725000D03*
D11*
X38100000Y-85725000D03*
D10*
X33020000Y-85725000D03*
D12*
X40640000Y-80645000D03*
X34290000Y-83185000D03*
D10*
X197326250Y-85725000D03*
D11*
X202406250Y-85725000D03*
D10*
X207486250Y-85725000D03*
D12*
X204946250Y-80645000D03*
X198596250Y-83185000D03*
D10*
X152717500Y-66675000D03*
X142557500Y-66675000D03*
D11*
X147637500Y-66675000D03*
D12*
X150177500Y-61595000D03*
X143827500Y-64135000D03*
D10*
X244951460Y-66675056D03*
X255111460Y-66675056D03*
D11*
X250031460Y-66675056D03*
D12*
X252571460Y-61595056D03*
X246221460Y-64135056D03*
D10*
X16986250Y-47625000D03*
X6826250Y-47625000D03*
D11*
X11906250Y-47625000D03*
D12*
X14446250Y-42545000D03*
X8096250Y-45085000D03*
D11*
X223837500Y-66675000D03*
D10*
X228917500Y-66675000D03*
X218757500Y-66675000D03*
D12*
X226377500Y-61595000D03*
X220027500Y-64135000D03*
D10*
X171767500Y-66675000D03*
D11*
X166687500Y-66675000D03*
D10*
X161607500Y-66675000D03*
D12*
X169227500Y-61595000D03*
X162877500Y-64135000D03*
D10*
X209867500Y-66675000D03*
D11*
X204787500Y-66675000D03*
D10*
X199707500Y-66675000D03*
D12*
X207327500Y-61595000D03*
X200977500Y-64135000D03*
D10*
X123507500Y-66675000D03*
D11*
X128587500Y-66675000D03*
D10*
X133667500Y-66675000D03*
D12*
X131127500Y-61595000D03*
X124777500Y-64135000D03*
D10*
X190817500Y-66675000D03*
D11*
X185737500Y-66675000D03*
D10*
X180657500Y-66675000D03*
D12*
X188277500Y-61595000D03*
X181927500Y-64135000D03*
D10*
X19367500Y-85725000D03*
X9207500Y-85725000D03*
D11*
X14287500Y-85725000D03*
D12*
X16827500Y-80645000D03*
X10477500Y-83185000D03*
D10*
X6826250Y-66675000D03*
X16986250Y-66675000D03*
D11*
X11906250Y-66675000D03*
D12*
X14446250Y-61595000D03*
X8096250Y-64135000D03*
D11*
X276225000Y-9525000D03*
D10*
X271145000Y-9525000D03*
X281305000Y-9525000D03*
D12*
X278765000Y-4445000D03*
X272415000Y-6985000D03*
D10*
X268763750Y-85725072D03*
X278923750Y-85725072D03*
D11*
X273843750Y-85725072D03*
D12*
X276383750Y-80645072D03*
X270033750Y-83185072D03*
D10*
X255111250Y-85725000D03*
D11*
X250031250Y-85725000D03*
D10*
X244951250Y-85725000D03*
D12*
X252571250Y-80645000D03*
X246221250Y-83185000D03*
D10*
X252730000Y-28575000D03*
X242570000Y-28575000D03*
D11*
X247650000Y-28575000D03*
D12*
X250190000Y-23495000D03*
X243840000Y-26035000D03*
D10*
X47307500Y-66675000D03*
D11*
X52387500Y-66675000D03*
D10*
X57467500Y-66675000D03*
D12*
X54927500Y-61595000D03*
X48577500Y-64135000D03*
D10*
X195580000Y-28575000D03*
D11*
X190500000Y-28575000D03*
D10*
X185420000Y-28575000D03*
D12*
X193040000Y-23495000D03*
X186690000Y-26035000D03*
D10*
X124142500Y-47625000D03*
D11*
X119062500Y-47625000D03*
D10*
X113982500Y-47625000D03*
D12*
X121602500Y-42545000D03*
X115252500Y-45085000D03*
D10*
X66992500Y-47625000D03*
X56832500Y-47625000D03*
D11*
X61912500Y-47625000D03*
D12*
X64452500Y-42545000D03*
X58102500Y-45085000D03*
D10*
X54451250Y-85725000D03*
X64611250Y-85725000D03*
D11*
X59531250Y-85725000D03*
D12*
X62071250Y-80645000D03*
X55721250Y-83185000D03*
D13*
X252380750Y-54610000D03*
D10*
X269398750Y-47625000D03*
D11*
X276256750Y-39370000D03*
D13*
X276256750Y-54610000D03*
D11*
X264318750Y-47625000D03*
D10*
X259238750Y-47625000D03*
D11*
X252380750Y-39370000D03*
D12*
X266858750Y-42545000D03*
X260508750Y-45085000D03*
D10*
X231298750Y-85725000D03*
X221138750Y-85725000D03*
D11*
X226218750Y-85725000D03*
D12*
X228758750Y-80645000D03*
X222408750Y-83185000D03*
D10*
X271145000Y-66675000D03*
D11*
X276225000Y-66675000D03*
D10*
X281305000Y-66675000D03*
D12*
X278765000Y-61595000D03*
X272415000Y-64135000D03*
D10*
X171132500Y-47625000D03*
X181292500Y-47625000D03*
D11*
X176212500Y-47625000D03*
D12*
X178752500Y-42545000D03*
X172402500Y-45085000D03*
D10*
X16986250Y-85725000D03*
D11*
X11906250Y-85725000D03*
D10*
X6826250Y-85725000D03*
D12*
X14446250Y-80645000D03*
X8096250Y-83185000D03*
D11*
X271462500Y-28575000D03*
D10*
X266382500Y-28575000D03*
X276542500Y-28575000D03*
D12*
X274002500Y-23495000D03*
X267652500Y-26035000D03*
D10*
X223520000Y-28575000D03*
X233680000Y-28575000D03*
D11*
X228600000Y-28575000D03*
D12*
X231140000Y-23495000D03*
X224790000Y-26035000D03*
D10*
X56832500Y-85725000D03*
D11*
X61912500Y-85725000D03*
D10*
X66992500Y-85725000D03*
D12*
X64452500Y-80645000D03*
X58102500Y-83185000D03*
D10*
X85407500Y-66675000D03*
X95567500Y-66675000D03*
D11*
X90487500Y-66675000D03*
D12*
X93027500Y-61595000D03*
X86677500Y-64135000D03*
D10*
X86042500Y-47625000D03*
X75882500Y-47625000D03*
D11*
X80962500Y-47625000D03*
D12*
X83502500Y-42545000D03*
X77152500Y-45085000D03*
D11*
X33337500Y-66675000D03*
D10*
X38417500Y-66675000D03*
X28257500Y-66675000D03*
D12*
X35877500Y-61595000D03*
X29527500Y-64135000D03*
D11*
X252412500Y-47625000D03*
D10*
X257492500Y-47625000D03*
X247332500Y-47625000D03*
D12*
X254952500Y-42545000D03*
X248602500Y-45085000D03*
D11*
X157162500Y-47625000D03*
D10*
X162242500Y-47625000D03*
X152082500Y-47625000D03*
D12*
X159702500Y-42545000D03*
X153352500Y-45085000D03*
D10*
X94932500Y-47625000D03*
D11*
X100012500Y-47625000D03*
D10*
X105092500Y-47625000D03*
D12*
X102552500Y-42545000D03*
X96202500Y-45085000D03*
D10*
X47942500Y-47625000D03*
D11*
X42862500Y-47625000D03*
D10*
X37782500Y-47625000D03*
D12*
X45402500Y-42545000D03*
X39052500Y-45085000D03*
D10*
X190182500Y-47625000D03*
D11*
X195262500Y-47625000D03*
D10*
X200342500Y-47625000D03*
D12*
X197802500Y-42545000D03*
X191452500Y-45085000D03*
D13*
X33369250Y-59690000D03*
D11*
X33369250Y-74930000D03*
D13*
X9493250Y-59690000D03*
D10*
X16351250Y-66675000D03*
D11*
X21431250Y-66675000D03*
D10*
X26511250Y-66675000D03*
D11*
X9493250Y-74930000D03*
D12*
X23971250Y-61595000D03*
X17621250Y-64135000D03*
D10*
X228282500Y-47625000D03*
X238442500Y-47625000D03*
D11*
X233362500Y-47625000D03*
D12*
X235902500Y-42545000D03*
X229552500Y-45085000D03*
D11*
X214312500Y-47625000D03*
D10*
X209232500Y-47625000D03*
X219392500Y-47625000D03*
D12*
X216852500Y-42545000D03*
X210502500Y-45085000D03*
D10*
X204470000Y-28575000D03*
D11*
X209550000Y-28575000D03*
D10*
X214630000Y-28575000D03*
D12*
X212090000Y-23495000D03*
X205740000Y-26035000D03*
D10*
X143192500Y-47625000D03*
X133032500Y-47625000D03*
D11*
X138112500Y-47625000D03*
D12*
X140652500Y-42545000D03*
X134302500Y-45085000D03*
D11*
X16668750Y-47625000D03*
D10*
X11588750Y-47625000D03*
X21748750Y-47625000D03*
D12*
X19208750Y-42545000D03*
X12858750Y-45085000D03*
D11*
X109537500Y-66675000D03*
D10*
X114617500Y-66675000D03*
X104457500Y-66675000D03*
D12*
X112077500Y-61595000D03*
X105727500Y-64135000D03*
D10*
X242570000Y-85725000D03*
X252730000Y-85725000D03*
D11*
X247650000Y-85725000D03*
D12*
X250190000Y-80645000D03*
X243840000Y-83185000D03*
D11*
X35718750Y-85725000D03*
D10*
X40798750Y-85725000D03*
X30638750Y-85725000D03*
D12*
X38258750Y-80645000D03*
X31908750Y-83185000D03*
D10*
X66357500Y-66675000D03*
D11*
X71437500Y-66675000D03*
D10*
X76517500Y-66675000D03*
D12*
X73977500Y-61595000D03*
X67627500Y-64135000D03*
D10*
X218757500Y-85725000D03*
X228917500Y-85725000D03*
D11*
X223837500Y-85725000D03*
D12*
X226377500Y-80645000D03*
X220027500Y-83185000D03*
D10*
X276542728Y-85725072D03*
D11*
X271462728Y-85725072D03*
D10*
X266382728Y-85725072D03*
D12*
X274002728Y-80645072D03*
X267652728Y-83185072D03*
D14*
X2381252Y-57125000D03*
X283368988Y-57125000D03*
D11*
X247618468Y-74930000D03*
X271494468Y-74930000D03*
D13*
X271494468Y-59690000D03*
D10*
X264636468Y-66675000D03*
X254476468Y-66675000D03*
D11*
X259556468Y-66675000D03*
D13*
X247618468Y-59690000D03*
D12*
X262096468Y-61595000D03*
X255746468Y-64135000D03*
D13*
X181006750Y-92710000D03*
X80930750Y-92710000D03*
D10*
X136048750Y-85725000D03*
X125888750Y-85725000D03*
D11*
X181006750Y-77470000D03*
X80930750Y-77470000D03*
X130968750Y-85725000D03*
D12*
X133508750Y-80645000D03*
X127158750Y-83185000D03*
D15*
X26625000Y-85725072D03*
X142875000Y-37750000D03*
X260430000Y-85725072D03*
X260425000Y-28227050D03*
X25600000Y-28575024D03*
X128587608Y-47425040D03*
X190500160Y-85525000D03*
D11*
X85693250Y-77470000D03*
D13*
X85693250Y-92710000D03*
X200056750Y-92710000D03*
D10*
X147955000Y-85725000D03*
D11*
X142875000Y-85725000D03*
D10*
X137795000Y-85725000D03*
D11*
X200056750Y-77470000D03*
D12*
X145415000Y-80645000D03*
X139065000Y-83185000D03*
D10*
X268760000Y-38080000D03*
D11*
X273840000Y-38080000D03*
D13*
X280825000Y-26142000D03*
D10*
X278920000Y-38080000D03*
D11*
X265585000Y-26142000D03*
X265585000Y-50018000D03*
D13*
X280825000Y-50018000D03*
D12*
X276380000Y-33000000D03*
X270030000Y-35540000D03*
D16*
X21265000Y-45124750D03*
D10*
X92551250Y-85725000D03*
D11*
X97631250Y-85725000D03*
D10*
X102711250Y-85725000D03*
D12*
X100171250Y-80645000D03*
X93821250Y-83185000D03*
D13*
X152406250Y-92710000D03*
X176206250Y-92710000D03*
D11*
X176206250Y-77470000D03*
X152406250Y-77470000D03*
D10*
X159226250Y-85725000D03*
X169386250Y-85725000D03*
D11*
X164306250Y-85725000D03*
D12*
X166846250Y-80645000D03*
X160496250Y-83185000D03*
D11*
X109531250Y-77470000D03*
X85731250Y-77470000D03*
D13*
X109531250Y-92710000D03*
X85731250Y-92710000D03*
D10*
X123507500Y-85725000D03*
D11*
X128587500Y-85725000D03*
D10*
X133667500Y-85725000D03*
D12*
X131127500Y-80645000D03*
X124777500Y-83185000D03*
D16*
X21700000Y-57110000D03*
D17*
X5960000Y-39590000D03*
D18*
X5960000Y-37050000D03*
X5960000Y-34510000D03*
X5960000Y-31970000D03*
X5960000Y-29430000D03*
D19*
X21469287Y-5640061D03*
X15689287Y-5640061D03*
D20*
X22899287Y-1990061D03*
D21*
X14259287Y-6170061D03*
X22899287Y-6170061D03*
D20*
X14259287Y-1990061D03*
M02*
