G04 #@! TF.GenerationSoftware,KiCad,Pcbnew,(6.0.7)*
G04 #@! TF.CreationDate,2022-09-06T15:46:34+02:00*
G04 #@! TF.ProjectId,plain60-flex-edition,706c6169-6e36-4302-9d66-6c65782d6564,rev?*
G04 #@! TF.SameCoordinates,Original*
G04 #@! TF.FileFunction,Soldermask,Bot*
G04 #@! TF.FilePolarity,Negative*
%FSLAX46Y46*%
G04 Gerber Fmt 4.6, Leading zero omitted, Abs format (unit mm)*
G04 Created by KiCad (PCBNEW (6.0.7)) date 2022-09-06 15:46:34*
%MOMM*%
%LPD*%
G01*
G04 APERTURE LIST*
G04 Aperture macros list*
%AMRoundRect*
0 Rectangle with rounded corners*
0 $1 Rounding radius*
0 $2 $3 $4 $5 $6 $7 $8 $9 X,Y pos of 4 corners*
0 Add a 4 corners polygon primitive as box body*
4,1,4,$2,$3,$4,$5,$6,$7,$8,$9,$2,$3,0*
0 Add four circle primitives for the rounded corners*
1,1,$1+$1,$2,$3*
1,1,$1+$1,$4,$5*
1,1,$1+$1,$6,$7*
1,1,$1+$1,$8,$9*
0 Add four rect primitives between the rounded corners*
20,1,$1+$1,$2,$3,$4,$5,0*
20,1,$1+$1,$4,$5,$6,$7,0*
20,1,$1+$1,$6,$7,$8,$9,0*
20,1,$1+$1,$8,$9,$2,$3,0*%
%AMRotRect*
0 Rectangle, with rotation*
0 The origin of the aperture is its center*
0 $1 length*
0 $2 width*
0 $3 Rotation angle, in degrees counterclockwise*
0 Add horizontal line*
21,1,$1,$2,0,0,$3*%
G04 Aperture macros list end*
%ADD10C,1.701800*%
%ADD11C,3.987800*%
%ADD12C,2.286000*%
%ADD13C,3.048000*%
%ADD14O,7.000000X2.500000*%
%ADD15O,5.000000X2.500000*%
%ADD16RotRect,1.000000X1.000000X45.000000*%
%ADD17R,0.800000X0.900000*%
%ADD18RoundRect,0.250000X-0.262500X-0.450000X0.262500X-0.450000X0.262500X0.450000X-0.262500X0.450000X0*%
%ADD19R,1.000000X1.700000*%
%ADD20RoundRect,0.250000X-0.159099X0.512652X-0.512652X0.159099X0.159099X-0.512652X0.512652X-0.159099X0*%
%ADD21RotRect,0.900000X0.800000X120.000000*%
%ADD22RotRect,0.900000X0.800000X250.000000*%
%ADD23RoundRect,0.250000X0.250000X0.475000X-0.250000X0.475000X-0.250000X-0.475000X0.250000X-0.475000X0*%
%ADD24RotRect,0.900000X0.800000X225.000000*%
%ADD25R,1.000000X1.600000*%
%ADD26RoundRect,0.250000X0.159099X-0.512652X0.512652X-0.159099X-0.159099X0.512652X-0.512652X0.159099X0*%
%ADD27RotRect,0.900000X0.800000X60.000000*%
%ADD28RoundRect,0.250000X-0.450000X0.262500X-0.450000X-0.262500X0.450000X-0.262500X0.450000X0.262500X0*%
%ADD29RotRect,0.900000X0.800000X280.000000*%
%ADD30RotRect,0.900000X0.800000X315.000000*%
%ADD31RoundRect,0.250000X0.450000X-0.262500X0.450000X0.262500X-0.450000X0.262500X-0.450000X-0.262500X0*%
%ADD32R,0.900000X0.800000*%
%ADD33RotRect,0.900000X0.800000X45.000000*%
%ADD34RotRect,0.900000X0.800000X260.000000*%
%ADD35RotRect,1.400000X1.200000X315.000000*%
%ADD36RotRect,0.900000X0.800000X290.000000*%
%ADD37R,1.700000X1.700000*%
%ADD38O,1.700000X1.700000*%
%ADD39RoundRect,0.150000X-0.150000X0.650000X-0.150000X-0.650000X0.150000X-0.650000X0.150000X0.650000X0*%
%ADD40RoundRect,0.150000X-0.625000X0.150000X-0.625000X-0.150000X0.625000X-0.150000X0.625000X0.150000X0*%
%ADD41RoundRect,0.250000X-0.650000X0.350000X-0.650000X-0.350000X0.650000X-0.350000X0.650000X0.350000X0*%
%ADD42RoundRect,0.250000X0.475000X-0.250000X0.475000X0.250000X-0.475000X0.250000X-0.475000X-0.250000X0*%
%ADD43R,2.000000X1.500000*%
%ADD44R,2.000000X3.800000*%
%ADD45RoundRect,0.250000X-0.625000X0.375000X-0.625000X-0.375000X0.625000X-0.375000X0.625000X0.375000X0*%
%ADD46RoundRect,0.050000X0.309359X-0.238649X-0.238649X0.309359X-0.309359X0.238649X0.238649X-0.309359X0*%
%ADD47RoundRect,0.050000X0.309359X0.238649X0.238649X0.309359X-0.309359X-0.238649X-0.238649X-0.309359X0*%
%ADD48RoundRect,0.144000X2.059095X0.000000X0.000000X2.059095X-2.059095X0.000000X0.000000X-2.059095X0*%
%ADD49RoundRect,0.150000X0.512500X0.150000X-0.512500X0.150000X-0.512500X-0.150000X0.512500X-0.150000X0*%
%ADD50RotRect,0.900000X0.800000X100.000000*%
%ADD51RoundRect,0.250000X-0.132583X0.503814X-0.503814X0.132583X0.132583X-0.503814X0.503814X-0.132583X0*%
%ADD52C,0.650000*%
%ADD53R,0.600000X1.450000*%
%ADD54R,0.300000X1.450000*%
%ADD55O,1.000000X1.600000*%
%ADD56O,1.000000X2.100000*%
%ADD57RotRect,0.900000X0.800000X135.000000*%
%ADD58RotRect,0.900000X0.800000X80.000000*%
%ADD59R,2.300000X2.300000*%
G04 APERTURE END LIST*
D10*
X71120000Y-28575000D03*
X81280000Y-28575000D03*
D11*
X76200000Y-28575000D03*
D12*
X78740000Y-23495000D03*
X72390000Y-26035000D03*
D10*
X90170000Y-28575000D03*
X100330000Y-28575000D03*
D11*
X95250000Y-28575000D03*
D12*
X97790000Y-23495000D03*
X91440000Y-26035000D03*
D10*
X157480000Y-28575000D03*
X147320000Y-28575000D03*
D11*
X152400000Y-28575000D03*
D12*
X154940000Y-23495000D03*
X148590000Y-26035000D03*
D11*
X171450000Y-28575000D03*
D10*
X176530000Y-28575000D03*
X166370000Y-28575000D03*
D12*
X173990000Y-23495000D03*
X167640000Y-26035000D03*
D11*
X38100000Y-28575000D03*
D10*
X33020000Y-28575000D03*
X43180000Y-28575000D03*
D12*
X40640000Y-23495000D03*
X34290000Y-26035000D03*
D10*
X128270000Y-28575000D03*
X138430000Y-28575000D03*
D11*
X133350000Y-28575000D03*
D12*
X135890000Y-23495000D03*
X129540000Y-26035000D03*
D11*
X114300000Y-28575000D03*
D10*
X109220000Y-28575000D03*
X119380000Y-28575000D03*
D12*
X116840000Y-23495000D03*
X110490000Y-26035000D03*
D10*
X52070000Y-28575000D03*
X62230000Y-28575000D03*
D11*
X57150000Y-28575000D03*
D12*
X59690000Y-23495000D03*
X53340000Y-26035000D03*
D11*
X14287500Y-28575000D03*
D10*
X9207500Y-28575000D03*
X19367500Y-28575000D03*
D12*
X16827500Y-23495000D03*
X10477500Y-26035000D03*
D13*
X254762000Y-2540000D03*
D11*
X266700000Y-9525000D03*
D13*
X278638000Y-2540000D03*
D10*
X261620000Y-9525000D03*
D11*
X278638000Y-17780000D03*
X254762000Y-17780000D03*
D10*
X271780000Y-9525000D03*
D12*
X269240000Y-4445000D03*
X262890000Y-6985000D03*
D10*
X147955000Y-9525000D03*
X137795000Y-9525000D03*
D11*
X142875000Y-9525000D03*
D12*
X145415000Y-4445000D03*
X139065000Y-6985000D03*
D10*
X186055000Y-9525000D03*
X175895000Y-9525000D03*
D11*
X180975000Y-9525000D03*
D12*
X183515000Y-4445000D03*
X177165000Y-6985000D03*
D11*
X257175000Y-9525000D03*
D10*
X252095000Y-9525000D03*
X262255000Y-9525000D03*
D12*
X259715000Y-4445000D03*
X253365000Y-6985000D03*
D10*
X80645000Y-9525000D03*
D11*
X85725000Y-9525000D03*
D10*
X90805000Y-9525000D03*
D12*
X88265000Y-4445000D03*
X81915000Y-6985000D03*
D10*
X233045000Y-9525000D03*
D11*
X238125000Y-9525000D03*
D10*
X243205000Y-9525000D03*
D12*
X240665000Y-4445000D03*
X234315000Y-6985000D03*
D11*
X219075000Y-9525000D03*
D10*
X224155000Y-9525000D03*
X213995000Y-9525000D03*
D12*
X221615000Y-4445000D03*
X215265000Y-6985000D03*
D10*
X205105000Y-9525000D03*
D11*
X200025000Y-9525000D03*
D10*
X194945000Y-9525000D03*
D12*
X202565000Y-4445000D03*
X196215000Y-6985000D03*
D10*
X167005000Y-9525000D03*
X156845000Y-9525000D03*
D11*
X161925000Y-9525000D03*
D12*
X164465000Y-4445000D03*
X158115000Y-6985000D03*
D10*
X128905000Y-9525000D03*
D11*
X123825000Y-9525000D03*
D10*
X118745000Y-9525000D03*
D12*
X126365000Y-4445000D03*
X120015000Y-6985000D03*
D11*
X104775000Y-9525000D03*
D10*
X99695000Y-9525000D03*
X109855000Y-9525000D03*
D12*
X107315000Y-4445000D03*
X100965000Y-6985000D03*
D10*
X71755000Y-9525000D03*
D11*
X66675000Y-9525000D03*
D10*
X61595000Y-9525000D03*
D12*
X69215000Y-4445000D03*
X62865000Y-6985000D03*
D10*
X33655000Y-9525000D03*
X23495000Y-9525000D03*
D11*
X28575000Y-9525000D03*
D12*
X31115000Y-4445000D03*
X24765000Y-6985000D03*
D11*
X9525000Y-9525000D03*
D10*
X4445000Y-9525000D03*
X14605000Y-9525000D03*
D12*
X12065000Y-4445000D03*
X5715000Y-6985000D03*
D11*
X47625000Y-9525000D03*
D10*
X42545000Y-9525000D03*
X52705000Y-9525000D03*
D12*
X50165000Y-4445000D03*
X43815000Y-6985000D03*
D10*
X43180000Y-85725000D03*
D11*
X38100000Y-85725000D03*
D10*
X33020000Y-85725000D03*
D12*
X40640000Y-80645000D03*
X34290000Y-83185000D03*
D10*
X197326250Y-85725000D03*
D11*
X202406250Y-85725000D03*
D10*
X207486250Y-85725000D03*
D12*
X204946250Y-80645000D03*
X198596250Y-83185000D03*
D10*
X152717500Y-66675000D03*
X142557500Y-66675000D03*
D11*
X147637500Y-66675000D03*
D12*
X150177500Y-61595000D03*
X143827500Y-64135000D03*
D10*
X244951460Y-66675056D03*
X255111460Y-66675056D03*
D11*
X250031460Y-66675056D03*
D12*
X252571460Y-61595056D03*
X246221460Y-64135056D03*
D10*
X16986250Y-47625000D03*
X6826250Y-47625000D03*
D11*
X11906250Y-47625000D03*
D12*
X14446250Y-42545000D03*
X8096250Y-45085000D03*
D11*
X223837500Y-66675000D03*
D10*
X228917500Y-66675000D03*
X218757500Y-66675000D03*
D12*
X226377500Y-61595000D03*
X220027500Y-64135000D03*
D10*
X171767500Y-66675000D03*
D11*
X166687500Y-66675000D03*
D10*
X161607500Y-66675000D03*
D12*
X169227500Y-61595000D03*
X162877500Y-64135000D03*
D10*
X209867500Y-66675000D03*
D11*
X204787500Y-66675000D03*
D10*
X199707500Y-66675000D03*
D12*
X207327500Y-61595000D03*
X200977500Y-64135000D03*
D10*
X123507500Y-66675000D03*
D11*
X128587500Y-66675000D03*
D10*
X133667500Y-66675000D03*
D12*
X131127500Y-61595000D03*
X124777500Y-64135000D03*
D10*
X190817500Y-66675000D03*
D11*
X185737500Y-66675000D03*
D10*
X180657500Y-66675000D03*
D12*
X188277500Y-61595000D03*
X181927500Y-64135000D03*
D10*
X19367500Y-85725000D03*
X9207500Y-85725000D03*
D11*
X14287500Y-85725000D03*
D12*
X16827500Y-80645000D03*
X10477500Y-83185000D03*
D10*
X6826250Y-66675000D03*
X16986250Y-66675000D03*
D11*
X11906250Y-66675000D03*
D12*
X14446250Y-61595000D03*
X8096250Y-64135000D03*
D11*
X276225000Y-9525000D03*
D10*
X271145000Y-9525000D03*
X281305000Y-9525000D03*
D12*
X278765000Y-4445000D03*
X272415000Y-6985000D03*
D10*
X268763750Y-85725072D03*
X278923750Y-85725072D03*
D11*
X273843750Y-85725072D03*
D12*
X276383750Y-80645072D03*
X270033750Y-83185072D03*
D10*
X255111250Y-85725000D03*
D11*
X250031250Y-85725000D03*
D10*
X244951250Y-85725000D03*
D12*
X252571250Y-80645000D03*
X246221250Y-83185000D03*
D10*
X252730000Y-28575000D03*
X242570000Y-28575000D03*
D11*
X247650000Y-28575000D03*
D12*
X250190000Y-23495000D03*
X243840000Y-26035000D03*
D10*
X47307500Y-66675000D03*
D11*
X52387500Y-66675000D03*
D10*
X57467500Y-66675000D03*
D12*
X54927500Y-61595000D03*
X48577500Y-64135000D03*
D10*
X195580000Y-28575000D03*
D11*
X190500000Y-28575000D03*
D10*
X185420000Y-28575000D03*
D12*
X193040000Y-23495000D03*
X186690000Y-26035000D03*
D10*
X124142500Y-47625000D03*
D11*
X119062500Y-47625000D03*
D10*
X113982500Y-47625000D03*
D12*
X121602500Y-42545000D03*
X115252500Y-45085000D03*
D10*
X66992500Y-47625000D03*
X56832500Y-47625000D03*
D11*
X61912500Y-47625000D03*
D12*
X64452500Y-42545000D03*
X58102500Y-45085000D03*
D10*
X54451250Y-85725000D03*
X64611250Y-85725000D03*
D11*
X59531250Y-85725000D03*
D12*
X62071250Y-80645000D03*
X55721250Y-83185000D03*
D13*
X252380750Y-54610000D03*
D10*
X269398750Y-47625000D03*
D11*
X276256750Y-39370000D03*
D13*
X276256750Y-54610000D03*
D11*
X264318750Y-47625000D03*
D10*
X259238750Y-47625000D03*
D11*
X252380750Y-39370000D03*
D12*
X266858750Y-42545000D03*
X260508750Y-45085000D03*
D10*
X231298750Y-85725000D03*
X221138750Y-85725000D03*
D11*
X226218750Y-85725000D03*
D12*
X228758750Y-80645000D03*
X222408750Y-83185000D03*
D10*
X271145000Y-66675000D03*
D11*
X276225000Y-66675000D03*
D10*
X281305000Y-66675000D03*
D12*
X278765000Y-61595000D03*
X272415000Y-64135000D03*
D10*
X171132500Y-47625000D03*
X181292500Y-47625000D03*
D11*
X176212500Y-47625000D03*
D12*
X178752500Y-42545000D03*
X172402500Y-45085000D03*
D10*
X16986250Y-85725000D03*
D11*
X11906250Y-85725000D03*
D10*
X6826250Y-85725000D03*
D12*
X14446250Y-80645000D03*
X8096250Y-83185000D03*
D11*
X271462500Y-28575000D03*
D10*
X266382500Y-28575000D03*
X276542500Y-28575000D03*
D12*
X274002500Y-23495000D03*
X267652500Y-26035000D03*
D10*
X223520000Y-28575000D03*
X233680000Y-28575000D03*
D11*
X228600000Y-28575000D03*
D12*
X231140000Y-23495000D03*
X224790000Y-26035000D03*
D10*
X56832500Y-85725000D03*
D11*
X61912500Y-85725000D03*
D10*
X66992500Y-85725000D03*
D12*
X64452500Y-80645000D03*
X58102500Y-83185000D03*
D10*
X85407500Y-66675000D03*
X95567500Y-66675000D03*
D11*
X90487500Y-66675000D03*
D12*
X93027500Y-61595000D03*
X86677500Y-64135000D03*
D10*
X86042500Y-47625000D03*
X75882500Y-47625000D03*
D11*
X80962500Y-47625000D03*
D12*
X83502500Y-42545000D03*
X77152500Y-45085000D03*
D11*
X33337500Y-66675000D03*
D10*
X38417500Y-66675000D03*
X28257500Y-66675000D03*
D12*
X35877500Y-61595000D03*
X29527500Y-64135000D03*
D11*
X252412500Y-47625000D03*
D10*
X257492500Y-47625000D03*
X247332500Y-47625000D03*
D12*
X254952500Y-42545000D03*
X248602500Y-45085000D03*
D11*
X157162500Y-47625000D03*
D10*
X162242500Y-47625000D03*
X152082500Y-47625000D03*
D12*
X159702500Y-42545000D03*
X153352500Y-45085000D03*
D10*
X94932500Y-47625000D03*
D11*
X100012500Y-47625000D03*
D10*
X105092500Y-47625000D03*
D12*
X102552500Y-42545000D03*
X96202500Y-45085000D03*
D10*
X47942500Y-47625000D03*
D11*
X42862500Y-47625000D03*
D10*
X37782500Y-47625000D03*
D12*
X45402500Y-42545000D03*
X39052500Y-45085000D03*
D10*
X190182500Y-47625000D03*
D11*
X195262500Y-47625000D03*
D10*
X200342500Y-47625000D03*
D12*
X197802500Y-42545000D03*
X191452500Y-45085000D03*
D13*
X33369250Y-59690000D03*
D11*
X33369250Y-74930000D03*
D13*
X9493250Y-59690000D03*
D10*
X16351250Y-66675000D03*
D11*
X21431250Y-66675000D03*
D10*
X26511250Y-66675000D03*
D11*
X9493250Y-74930000D03*
D12*
X23971250Y-61595000D03*
X17621250Y-64135000D03*
D10*
X228282500Y-47625000D03*
X238442500Y-47625000D03*
D11*
X233362500Y-47625000D03*
D12*
X235902500Y-42545000D03*
X229552500Y-45085000D03*
D11*
X214312500Y-47625000D03*
D10*
X209232500Y-47625000D03*
X219392500Y-47625000D03*
D12*
X216852500Y-42545000D03*
X210502500Y-45085000D03*
D10*
X204470000Y-28575000D03*
D11*
X209550000Y-28575000D03*
D10*
X214630000Y-28575000D03*
D12*
X212090000Y-23495000D03*
X205740000Y-26035000D03*
D10*
X143192500Y-47625000D03*
X133032500Y-47625000D03*
D11*
X138112500Y-47625000D03*
D12*
X140652500Y-42545000D03*
X134302500Y-45085000D03*
D11*
X16668750Y-47625000D03*
D10*
X11588750Y-47625000D03*
X21748750Y-47625000D03*
D12*
X19208750Y-42545000D03*
X12858750Y-45085000D03*
D11*
X109537500Y-66675000D03*
D10*
X114617500Y-66675000D03*
X104457500Y-66675000D03*
D12*
X112077500Y-61595000D03*
X105727500Y-64135000D03*
D10*
X242570000Y-85725000D03*
X252730000Y-85725000D03*
D11*
X247650000Y-85725000D03*
D12*
X250190000Y-80645000D03*
X243840000Y-83185000D03*
D11*
X35718750Y-85725000D03*
D10*
X40798750Y-85725000D03*
X30638750Y-85725000D03*
D12*
X38258750Y-80645000D03*
X31908750Y-83185000D03*
D10*
X66357500Y-66675000D03*
D11*
X71437500Y-66675000D03*
D10*
X76517500Y-66675000D03*
D12*
X73977500Y-61595000D03*
X67627500Y-64135000D03*
D10*
X218757500Y-85725000D03*
X228917500Y-85725000D03*
D11*
X223837500Y-85725000D03*
D12*
X226377500Y-80645000D03*
X220027500Y-83185000D03*
D10*
X276542728Y-85725072D03*
D11*
X271462728Y-85725072D03*
D10*
X266382728Y-85725072D03*
D12*
X274002728Y-80645072D03*
X267652728Y-83185072D03*
D14*
X2381252Y-57125000D03*
X283368988Y-57125000D03*
D11*
X247618468Y-74930000D03*
X271494468Y-74930000D03*
D13*
X271494468Y-59690000D03*
D10*
X264636468Y-66675000D03*
X254476468Y-66675000D03*
D11*
X259556468Y-66675000D03*
D13*
X247618468Y-59690000D03*
D12*
X262096468Y-61595000D03*
X255746468Y-64135000D03*
D13*
X181006750Y-92710000D03*
X80930750Y-92710000D03*
D10*
X136048750Y-85725000D03*
X125888750Y-85725000D03*
D11*
X181006750Y-77470000D03*
X80930750Y-77470000D03*
X130968750Y-85725000D03*
D12*
X133508750Y-80645000D03*
X127158750Y-83185000D03*
D15*
X26625000Y-85725072D03*
X142875000Y-37750000D03*
X260430000Y-85725072D03*
X260425000Y-28227050D03*
X25600000Y-28575024D03*
X128587608Y-47425040D03*
X190500160Y-85525000D03*
D11*
X85693250Y-77470000D03*
D13*
X85693250Y-92710000D03*
X200056750Y-92710000D03*
D10*
X147955000Y-85725000D03*
D11*
X142875000Y-85725000D03*
D10*
X137795000Y-85725000D03*
D11*
X200056750Y-77470000D03*
D12*
X145415000Y-80645000D03*
X139065000Y-83185000D03*
D10*
X268760000Y-38080000D03*
D11*
X273840000Y-38080000D03*
D13*
X280825000Y-26142000D03*
D10*
X278920000Y-38080000D03*
D11*
X265585000Y-26142000D03*
X265585000Y-50018000D03*
D13*
X280825000Y-50018000D03*
D12*
X276380000Y-33000000D03*
X270030000Y-35540000D03*
D16*
X21265000Y-45124750D03*
D10*
X92551250Y-85725000D03*
D11*
X97631250Y-85725000D03*
D10*
X102711250Y-85725000D03*
D12*
X100171250Y-80645000D03*
X93821250Y-83185000D03*
D13*
X152406250Y-92710000D03*
X176206250Y-92710000D03*
D11*
X176206250Y-77470000D03*
X152406250Y-77470000D03*
D10*
X159226250Y-85725000D03*
X169386250Y-85725000D03*
D11*
X164306250Y-85725000D03*
D12*
X166846250Y-80645000D03*
X160496250Y-83185000D03*
D11*
X109531250Y-77470000D03*
X85731250Y-77470000D03*
D13*
X109531250Y-92710000D03*
X85731250Y-92710000D03*
D10*
X123507500Y-85725000D03*
D11*
X128587500Y-85725000D03*
D10*
X133667500Y-85725000D03*
D12*
X131127500Y-80645000D03*
X124777500Y-83185000D03*
D17*
X258700000Y-76010000D03*
X256800000Y-76010000D03*
X257750000Y-74010000D03*
D18*
X25176787Y-2000061D03*
X27001787Y-2000061D03*
D19*
X34390000Y-39680000D03*
X34390000Y-33380000D03*
X38190000Y-33380000D03*
X38190000Y-39680000D03*
D20*
X23501751Y-52378249D03*
X22158249Y-53721751D03*
D17*
X146690000Y-37530000D03*
X148590000Y-37530000D03*
X147640000Y-39530000D03*
D21*
X145562724Y-50531025D03*
X143917276Y-51481025D03*
X143740000Y-49273975D03*
D22*
X166259312Y-40585388D03*
X168044728Y-41235227D03*
X166467980Y-42789693D03*
D16*
X21700000Y-57110000D03*
D23*
X22540000Y-30750000D03*
X20640000Y-30750000D03*
D17*
X137380000Y-52860000D03*
X135480000Y-52860000D03*
X136430000Y-50860000D03*
D24*
X157540355Y-60455892D03*
X158883858Y-61799395D03*
X156797893Y-62541857D03*
D25*
X239740000Y-71520061D03*
X236540000Y-71520061D03*
X236540000Y-66520061D03*
X239740000Y-66520061D03*
D19*
X42610000Y-39700000D03*
X42610000Y-33400000D03*
X46410000Y-39700000D03*
X46410000Y-33400000D03*
D17*
X159730000Y-52860000D03*
X157830000Y-52860000D03*
X158780000Y-50860000D03*
D26*
X26778249Y-58341751D03*
X28121751Y-56998249D03*
D17*
X262370000Y-76010000D03*
X260470000Y-76010000D03*
X261420000Y-74010000D03*
D26*
X22518249Y-59441751D03*
X23861751Y-58098249D03*
D27*
X151392724Y-51481025D03*
X149747276Y-50531025D03*
X151570000Y-49273975D03*
D23*
X20070000Y-18800000D03*
X18170000Y-18800000D03*
D17*
X166915000Y-32934750D03*
X165015000Y-32934750D03*
X165965000Y-30934750D03*
D28*
X48580000Y-38217500D03*
X48580000Y-40042500D03*
D25*
X36500000Y-7500000D03*
X39700000Y-7500000D03*
X39700000Y-12500000D03*
X36500000Y-12500000D03*
D29*
X131180784Y-40030158D03*
X133051919Y-39700226D03*
X132463648Y-41834808D03*
D30*
X138931142Y-59254645D03*
X140274645Y-57911142D03*
X141017107Y-59997107D03*
D18*
X24906787Y-16770061D03*
X26731787Y-16770061D03*
D31*
X40420000Y-40032500D03*
X40420000Y-38207500D03*
D20*
X20361751Y-49288249D03*
X19018249Y-50631751D03*
D25*
X177809287Y-71520061D03*
X174609287Y-71520061D03*
X174609287Y-66520061D03*
X177809287Y-66520061D03*
D32*
X150425000Y-30924750D03*
X150425000Y-32824750D03*
X148425000Y-31874750D03*
D30*
X136386142Y-61809395D03*
X137729645Y-60465892D03*
X138472107Y-62551857D03*
D18*
X25196787Y-4060061D03*
X27021787Y-4060061D03*
D33*
X151144645Y-56818858D03*
X149801142Y-55475355D03*
X151887107Y-54732893D03*
D17*
X160415000Y-32934750D03*
X158515000Y-32934750D03*
X159465000Y-30934750D03*
D34*
X162228081Y-39700226D03*
X164099216Y-40030158D03*
X162816352Y-41834808D03*
D18*
X24916787Y-18800061D03*
X26741787Y-18800061D03*
D17*
X27680000Y-75890000D03*
X25780000Y-75890000D03*
X26730000Y-73890000D03*
D35*
X24893223Y-53921142D03*
X26448858Y-55476777D03*
X25246777Y-56678858D03*
X23691142Y-55123223D03*
D36*
X127325272Y-41235227D03*
X129110688Y-40585388D03*
X128902020Y-42789693D03*
D25*
X44570000Y-71520000D03*
X41370000Y-71520000D03*
X41370000Y-66520000D03*
X44570000Y-66520000D03*
D37*
X5960000Y-39590000D03*
D38*
X5960000Y-37050000D03*
X5960000Y-34510000D03*
X5960000Y-31970000D03*
X5960000Y-29430000D03*
D39*
X50265000Y-43050000D03*
X51535000Y-43050000D03*
X52805000Y-43050000D03*
X54075000Y-43050000D03*
X54075000Y-50250000D03*
X52805000Y-50250000D03*
X51535000Y-50250000D03*
X50265000Y-50250000D03*
D17*
X20420000Y-75900000D03*
X18520000Y-75900000D03*
X19470000Y-73900000D03*
D25*
X101620000Y-71520061D03*
X98420000Y-71520061D03*
X98420000Y-66520061D03*
X101620000Y-66520061D03*
D23*
X22540000Y-32780000D03*
X20640000Y-32780000D03*
D25*
X188900000Y-7500000D03*
X192100000Y-7500000D03*
X192100000Y-12500000D03*
X188900000Y-12500000D03*
D40*
X32585000Y-16354750D03*
X32585000Y-17354750D03*
X32585000Y-18354750D03*
X32585000Y-19354750D03*
D41*
X36460000Y-15054750D03*
X36460000Y-20654750D03*
D42*
X10470000Y-36490000D03*
X10470000Y-34590000D03*
X48240000Y-44640000D03*
X48240000Y-42740000D03*
X12540000Y-36490000D03*
X12540000Y-34590000D03*
D17*
X148600000Y-53910000D03*
X146700000Y-53910000D03*
X147650000Y-51910000D03*
D42*
X18780000Y-36490000D03*
X18780000Y-34590000D03*
X16700000Y-36500000D03*
X16700000Y-34600000D03*
D43*
X20070000Y-25850000D03*
X20070000Y-23550000D03*
D44*
X26370000Y-23550000D03*
D43*
X20070000Y-21250000D03*
D45*
X16589287Y-13390061D03*
X16589287Y-16190061D03*
D25*
X246050000Y-7510000D03*
X249250000Y-7510000D03*
X249250000Y-12510000D03*
X246050000Y-12510000D03*
D46*
X34319157Y-48272202D03*
X34036314Y-48555045D03*
X33753472Y-48837887D03*
X33470629Y-49120730D03*
X33187786Y-49403573D03*
X32904944Y-49686415D03*
X32622101Y-49969258D03*
X32339258Y-50252101D03*
X32056415Y-50534944D03*
X31773573Y-50817786D03*
X31490730Y-51100629D03*
X31207887Y-51383472D03*
X30925045Y-51666314D03*
X30642202Y-51949157D03*
D47*
X29457798Y-51949157D03*
X29174955Y-51666314D03*
X28892113Y-51383472D03*
X28609270Y-51100629D03*
X28326427Y-50817786D03*
X28043585Y-50534944D03*
X27760742Y-50252101D03*
X27477899Y-49969258D03*
X27195056Y-49686415D03*
X26912214Y-49403573D03*
X26629371Y-49120730D03*
X26346528Y-48837887D03*
X26063686Y-48555045D03*
X25780843Y-48272202D03*
D46*
X25780843Y-47087798D03*
X26063686Y-46804955D03*
X26346528Y-46522113D03*
X26629371Y-46239270D03*
X26912214Y-45956427D03*
X27195056Y-45673585D03*
X27477899Y-45390742D03*
X27760742Y-45107899D03*
X28043585Y-44825056D03*
X28326427Y-44542214D03*
X28609270Y-44259371D03*
X28892113Y-43976528D03*
X29174955Y-43693686D03*
X29457798Y-43410843D03*
D47*
X30642202Y-43410843D03*
X30925045Y-43693686D03*
X31207887Y-43976528D03*
X31490730Y-44259371D03*
X31773573Y-44542214D03*
X32056415Y-44825056D03*
X32339258Y-45107899D03*
X32622101Y-45390742D03*
X32904944Y-45673585D03*
X33187786Y-45956427D03*
X33470629Y-46239270D03*
X33753472Y-46522113D03*
X34036314Y-46804955D03*
X34319157Y-47087798D03*
D48*
X30050000Y-47680000D03*
D49*
X21386787Y-14400061D03*
X21386787Y-15350061D03*
X21386787Y-16300061D03*
X19111787Y-16300061D03*
X19111787Y-15350061D03*
X19111787Y-14400061D03*
D17*
X24060000Y-75900000D03*
X22160000Y-75900000D03*
X23110000Y-73900000D03*
X148580000Y-48620000D03*
X146680000Y-48620000D03*
X147630000Y-46620000D03*
D24*
X154975355Y-57911142D03*
X156318858Y-59254645D03*
X154232893Y-59997107D03*
D50*
X141429216Y-52359842D03*
X139558081Y-52689774D03*
X140146352Y-50555192D03*
D51*
X22035235Y-50954765D03*
X20744765Y-52245235D03*
D52*
X21469287Y-5640061D03*
X15689287Y-5640061D03*
D53*
X15329287Y-7085061D03*
X16129287Y-7085061D03*
D54*
X17329287Y-7085061D03*
X18329287Y-7085061D03*
X18829287Y-7085061D03*
X19829287Y-7085061D03*
D53*
X21029287Y-7085061D03*
X21829287Y-7085061D03*
X21829287Y-7085061D03*
X21029287Y-7085061D03*
D54*
X20329287Y-7085061D03*
X19329287Y-7085061D03*
X17829287Y-7085061D03*
X16829287Y-7085061D03*
D53*
X16129287Y-7085061D03*
X15329287Y-7085061D03*
D55*
X22899287Y-1990061D03*
D56*
X14259287Y-6170061D03*
X22899287Y-6170061D03*
D55*
X14259287Y-1990061D03*
D30*
X148831142Y-42404645D03*
X150174645Y-41061142D03*
X150917107Y-43147107D03*
D25*
X93650000Y-7500000D03*
X96850000Y-7500000D03*
X96850000Y-12500000D03*
X93650000Y-12500000D03*
D57*
X145558858Y-55475355D03*
X144215355Y-56818858D03*
X143472893Y-54732893D03*
D24*
X145115355Y-41091142D03*
X146458858Y-42434645D03*
X144372893Y-43177107D03*
D58*
X155701919Y-52689774D03*
X153830784Y-52359842D03*
X155113648Y-50555192D03*
D17*
X130275000Y-32930000D03*
X128375000Y-32930000D03*
X129325000Y-30930000D03*
D32*
X144905000Y-32824750D03*
X144905000Y-30924750D03*
X146905000Y-31874750D03*
D26*
X19388249Y-56251751D03*
X20731751Y-54908249D03*
X27848249Y-40751751D03*
X29191751Y-39408249D03*
D17*
X156835000Y-32934750D03*
X154935000Y-32934750D03*
X155885000Y-30934750D03*
D59*
X106730000Y-85900000D03*
X119730000Y-85900000D03*
D42*
X14610000Y-36490000D03*
X14610000Y-34590000D03*
D17*
X136795000Y-32924750D03*
X134895000Y-32924750D03*
X135845000Y-30924750D03*
X140385000Y-32924750D03*
X138485000Y-32924750D03*
X139435000Y-30924750D03*
M02*
