G04 #@! TF.GenerationSoftware,KiCad,Pcbnew,(6.0.7)*
G04 #@! TF.CreationDate,2022-09-06T15:46:34+02:00*
G04 #@! TF.ProjectId,plain60-flex-edition,706c6169-6e36-4302-9d66-6c65782d6564,rev?*
G04 #@! TF.SameCoordinates,Original*
G04 #@! TF.FileFunction,Legend,Top*
G04 #@! TF.FilePolarity,Positive*
%FSLAX46Y46*%
G04 Gerber Fmt 4.6, Leading zero omitted, Abs format (unit mm)*
G04 Created by KiCad (PCBNEW (6.0.7)) date 2022-09-06 15:46:34*
%MOMM*%
%LPD*%
G01*
G04 APERTURE LIST*
%ADD10C,0.150000*%
G04 APERTURE END LIST*
D10*
X103631250Y-92725000D02*
X104631250Y-92725000D01*
X104631250Y-78725000D02*
X104631250Y-79725000D01*
X90631250Y-92725000D02*
X91631250Y-92725000D01*
X90631250Y-79725000D02*
X90631250Y-78725000D01*
X90631250Y-92725000D02*
X90631250Y-91725000D01*
X104631250Y-91725000D02*
X104631250Y-92725000D01*
X104631250Y-78725000D02*
X103631250Y-78725000D01*
X91631250Y-78725000D02*
X90631250Y-78725000D01*
X157306250Y-92725000D02*
X157306250Y-91725000D01*
X171306250Y-78725000D02*
X170306250Y-78725000D01*
X171306250Y-78725000D02*
X171306250Y-79725000D01*
X157306250Y-79725000D02*
X157306250Y-78725000D01*
X171306250Y-91725000D02*
X171306250Y-92725000D01*
X158306250Y-78725000D02*
X157306250Y-78725000D01*
X157306250Y-92725000D02*
X158306250Y-92725000D01*
X170306250Y-92725000D02*
X171306250Y-92725000D01*
X122587500Y-78725000D02*
X121587500Y-78725000D01*
X135587500Y-78725000D02*
X135587500Y-79725000D01*
X134587500Y-92725000D02*
X135587500Y-92725000D01*
X135587500Y-78725000D02*
X134587500Y-78725000D01*
X121587500Y-92725000D02*
X121587500Y-91725000D01*
X121587500Y-92725000D02*
X122587500Y-92725000D01*
X135587500Y-91725000D02*
X135587500Y-92725000D01*
X121587500Y-79725000D02*
X121587500Y-78725000D01*
M02*
