M48
; DRILL file {KiCad (6.0.7)} date Tue 06 Sep 2022 15:46:50 CEST
; FORMAT={-:-/ absolute / metric / decimal}
; #@! TF.CreationDate,2022-09-06T15:46:50+02:00
; #@! TF.GenerationSoftware,Kicad,Pcbnew,(6.0.7)
; #@! TF.FileFunction,Plated,1,2,PTH
FMAT,2
METRIC
; #@! TA.AperFunction,Plated,PTH,ViaDrill
T1C0.300
; #@! TA.AperFunction,Plated,PTH,ComponentDrill
T2C0.350
; #@! TA.AperFunction,Plated,PTH,ViaDrill
T3C0.400
; #@! TA.AperFunction,Plated,PTH,ViaDrill
T4C0.500
; #@! TA.AperFunction,Plated,PTH,ComponentDrill
T5C0.600
; #@! TA.AperFunction,Plated,PTH,ComponentDrill
T6C0.700
; #@! TA.AperFunction,Plated,PTH,ComponentDrill
T7C1.000
; #@! TA.AperFunction,Plated,PTH,ComponentDrill
T8C1.499
%
G90
G05
T1
X34.65Y-48.0
X143.225Y-57.265
T2
X28.247Y-47.68
X29.148Y-46.778
X29.148Y-48.582
X30.05Y-45.877
X30.05Y-47.68
X30.05Y-49.483
X30.952Y-46.778
X30.952Y-48.582
X31.853Y-47.68
T3
X16.129Y-8.66
X17.319Y-17.52
X21.029Y-9.28
X21.832Y-12.347
X22.409Y-15.35
X31.85Y-8.53
X38.06Y-25.41
X38.96Y-24.7
X144.098Y-54.058
X151.277Y-54.123
X152.51Y-57.7
X236.5Y-66.09
X239.73Y-66.43
X239.77Y-70.85
X245.635Y-9.825
X246.04Y-8.05
X249.03Y-7.4
T4
X5.64Y-3.51
X5.7Y-45.09
X8.32Y-37.52
X8.36Y-40.51
X10.48Y-23.78
X10.62Y-44.12
X11.93Y-61.57
X11.94Y-57.35
X15.13Y-45.14
X16.655Y-41.625
X18.605Y-66.715
X19.26Y-53.49
X20.07Y-47.36
X20.31Y-37.65
X21.695Y-36.455
X21.84Y-19.76
X23.89Y-69.12
X24.56Y-44.74
X24.735Y-47.715
X24.907Y-16.533
X24.915Y-19.445
X25.36Y-42.09
X25.45Y-40.35
X25.525Y-9.555
X26.31Y-43.45
X26.89Y-39.77
X27.6Y-42.28
X30.065Y-16.395
X30.285Y-54.205
X30.29Y-66.73
X30.38Y-20.81
X30.455Y-13.945
X30.51Y-60.91
X31.03Y-42.51
X31.15Y-39.75
X31.23Y-55.36
X31.26Y-57.57
X31.815Y-71.915
X32.955Y-21.315
X33.29Y-57.21
X33.86Y-62.1
X34.478Y-42.404
X36.11Y-59.38
X36.925Y-75.015
X37.085Y-54.485
X37.45Y-76.18
X37.705Y-39.005
X37.86Y-23.43
X37.875Y-55.485
X38.0Y-51.28
X38.05Y-33.86
X38.145Y-71.425
X38.19Y-60.38
X38.875Y-56.285
X38.97Y-72.33
X39.12Y-57.9
X39.13Y-59.57
X39.395Y-33.465
X39.59Y-32.27
X39.79Y-21.49
X40.03Y-57.03
X40.03Y-72.94
X40.13Y-58.76
X40.85Y-62.13
X41.165Y-73.925
X41.47Y-32.23
X41.72Y-31.0
X41.9Y-44.58
X43.89Y-4.69
X45.34Y-50.47
X45.37Y-63.26
X46.23Y-45.63
X47.225Y-61.885
X50.32Y-44.82
X53.34Y-23.51
X54.05Y-42.41
X56.11Y-52.9
X56.728Y-33.532
X57.685Y-34.575
X62.85Y-4.45
X72.38Y-23.57
X81.91Y-4.4
X91.46Y-23.61
X92.93Y-3.27
X93.825Y-71.935
X95.02Y-71.11
X103.18Y-7.05
X105.98Y-85.26
X110.5Y-23.63
X118.955Y-85.995
X120.13Y-4.4
X122.19Y-47.54
X129.495Y-23.545
X131.96Y-66.74
X132.325Y-54.745
X132.71Y-32.8
X133.06Y-38.06
X133.269Y-55.485
X134.28Y-42.81
X134.59Y-55.91
X135.8Y-55.95
X137.17Y-55.93
X137.57Y-50.86
X139.09Y-4.4
X140.19Y-62.56
X140.44Y-34.74
X140.48Y-28.55
X141.27Y-47.63
X141.31Y-53.67
X142.17Y-50.47
X142.78Y-60.67
X143.075Y-40.005
X143.481Y-43.177
X143.73Y-58.73
X144.55Y-66.7
X144.71Y-61.98
X147.29Y-56.39
X147.64Y-40.36
X147.66Y-50.44
X147.69Y-33.53
X147.73Y-34.83
X147.92Y-45.44
X148.54Y-30.36
X148.62Y-23.55
X150.32Y-48.58
X150.48Y-34.88
X151.245Y-39.265
X153.13Y-50.46
X153.82Y-32.58
X153.84Y-31.04
X158.15Y-4.4
X158.26Y-39.16
X158.285Y-63.185
X160.32Y-47.63
X162.64Y-32.97
X167.66Y-23.58
X171.165Y-72.745
X177.21Y-4.4
X181.77Y-3.03
X183.92Y-77.51
X183.95Y-81.22
X186.71Y-23.59
X196.27Y-4.4
X204.315Y-69.895
X205.71Y-23.62
X215.29Y-4.4
X224.473Y-72.393
X224.83Y-23.65
X234.3Y-4.4
X240.32Y-74.4
X241.535Y-75.225
X258.35Y-46.08
X258.52Y-49.82
X262.29Y-25.77
X262.89Y-4.53
X266.194Y-71.124
X268.22Y-70.74
X274.68Y-64.18
X274.73Y-6.83
X280.83Y-52.63
T6
X21.265Y-45.125
X21.7Y-57.11
T7
X5.96Y-29.43
X5.96Y-31.97
X5.96Y-34.51
X5.96Y-37.05
X5.96Y-39.59
T8
X5.715Y-6.985
X8.096Y-45.085
X8.096Y-64.135
X8.096Y-83.185
X10.477Y-26.035
X10.477Y-83.185
X12.065Y-4.445
X12.859Y-45.085
X14.446Y-42.545
X14.446Y-61.595
X14.446Y-80.645
X16.828Y-23.495
X16.828Y-80.645
X17.621Y-64.135
X19.209Y-42.545
X23.971Y-61.595
X24.765Y-6.985
X29.527Y-64.135
X31.115Y-4.445
X31.909Y-83.185
X34.29Y-26.035
X34.29Y-83.185
X35.877Y-61.595
X38.259Y-80.645
X39.052Y-45.085
X40.64Y-23.495
X40.64Y-80.645
X43.815Y-6.985
X45.402Y-42.545
X48.578Y-64.135
X50.165Y-4.445
X53.34Y-26.035
X54.927Y-61.595
X55.721Y-83.185
X58.102Y-45.085
X58.102Y-83.185
X59.69Y-23.495
X62.071Y-80.645
X62.865Y-6.985
X64.453Y-42.545
X64.453Y-80.645
X67.627Y-64.135
X69.215Y-4.445
X72.39Y-26.035
X73.977Y-61.595
X77.153Y-45.085
X78.74Y-23.495
X81.915Y-6.985
X83.502Y-42.545
X86.677Y-64.135
X88.265Y-4.445
X91.44Y-26.035
X93.027Y-61.595
X93.821Y-83.185
X96.203Y-45.085
X97.79Y-23.495
X100.171Y-80.645
X100.965Y-6.985
X102.552Y-42.545
X105.727Y-64.135
X107.315Y-4.445
X110.49Y-26.035
X112.078Y-61.595
X115.252Y-45.085
X116.84Y-23.495
X120.015Y-6.985
X121.602Y-42.545
X124.777Y-64.135
X124.777Y-83.185
X126.365Y-4.445
X127.159Y-83.185
X129.54Y-26.035
X131.127Y-61.595
X131.127Y-80.645
X133.509Y-80.645
X134.302Y-45.085
X135.89Y-23.495
X139.065Y-6.985
X139.065Y-83.185
X140.653Y-42.545
X143.827Y-64.135
X145.415Y-4.445
X145.415Y-80.645
X148.59Y-26.035
X150.177Y-61.595
X153.352Y-45.085
X154.94Y-23.495
X158.115Y-6.985
X159.702Y-42.545
X160.496Y-83.185
X162.877Y-64.135
X164.465Y-4.445
X166.846Y-80.645
X167.64Y-26.035
X169.227Y-61.595
X172.403Y-45.085
X173.99Y-23.495
X177.165Y-6.985
X178.752Y-42.545
X181.927Y-64.135
X183.515Y-4.445
X186.69Y-26.035
X188.278Y-61.595
X191.452Y-45.085
X193.04Y-23.495
X196.215Y-6.985
X197.802Y-42.545
X198.596Y-83.185
X200.977Y-64.135
X202.565Y-4.445
X204.946Y-80.645
X205.74Y-26.035
X207.327Y-61.595
X210.502Y-45.085
X212.09Y-23.495
X215.265Y-6.985
X216.852Y-42.545
X220.028Y-64.135
X220.028Y-83.185
X221.615Y-4.445
X222.409Y-83.185
X224.79Y-26.035
X226.377Y-61.595
X226.377Y-80.645
X228.759Y-80.645
X229.552Y-45.085
X231.14Y-23.495
X234.315Y-6.985
X235.903Y-42.545
X240.665Y-4.445
X243.84Y-26.035
X243.84Y-83.185
X246.221Y-83.185
X246.221Y-64.135
X248.602Y-45.085
X250.19Y-23.495
X250.19Y-80.645
X252.571Y-80.645
X252.571Y-61.595
X253.365Y-6.985
X254.952Y-42.545
X255.746Y-64.135
X259.715Y-4.445
X260.509Y-45.085
X262.096Y-61.595
X262.89Y-6.985
X266.859Y-42.545
X267.652Y-26.035
X267.653Y-83.185
X269.24Y-4.445
X270.03Y-35.54
X270.034Y-83.185
X272.415Y-6.985
X272.415Y-64.135
X274.002Y-23.495
X274.003Y-80.645
X276.38Y-33.0
X276.384Y-80.645
X278.765Y-4.445
X278.765Y-61.595
T5
G00X14.259Y-1.69
M15
G01X14.259Y-2.29
M16
G05
G00X14.259Y-5.62
M15
G01X14.259Y-6.72
M16
G05
G00X22.899Y-1.69
M15
G01X22.899Y-2.29
M16
G05
G00X22.899Y-5.62
M15
G01X22.899Y-6.72
M16
G05
T0
M30
