G04 #@! TF.GenerationSoftware,KiCad,Pcbnew,(6.0.7)*
G04 #@! TF.CreationDate,2022-09-06T15:46:34+02:00*
G04 #@! TF.ProjectId,plain60-flex-edition,706c6169-6e36-4302-9d66-6c65782d6564,rev?*
G04 #@! TF.SameCoordinates,Original*
G04 #@! TF.FileFunction,Legend,Bot*
G04 #@! TF.FilePolarity,Positive*
%FSLAX46Y46*%
G04 Gerber Fmt 4.6, Leading zero omitted, Abs format (unit mm)*
G04 Created by KiCad (PCBNEW (6.0.7)) date 2022-09-06 15:46:34*
%MOMM*%
%LPD*%
G01*
G04 APERTURE LIST*
%ADD10C,0.150000*%
%ADD11C,0.300000*%
%ADD12C,0.200000*%
%ADD13C,0.400000*%
%ADD14C,0.010000*%
%ADD15C,0.120000*%
G04 APERTURE END LIST*
D10*
X90151309Y-37210464D02*
X90151309Y-35781892D01*
X89198928Y-37210464D02*
X89198928Y-35781892D01*
X87722738Y-36877130D02*
X87722738Y-35877130D01*
X87722738Y-36258083D02*
X87627500Y-36210464D01*
X87437023Y-36210464D01*
X87341785Y-36258083D01*
X87294166Y-36305702D01*
X87246547Y-36400940D01*
X87246547Y-36686654D01*
X87294166Y-36781892D01*
X87341785Y-36829511D01*
X87437023Y-36877130D01*
X87627500Y-36877130D01*
X87722738Y-36829511D01*
X86389404Y-36877130D02*
X86389404Y-36353321D01*
X86437023Y-36258083D01*
X86532261Y-36210464D01*
X86722738Y-36210464D01*
X86817976Y-36258083D01*
X86389404Y-36829511D02*
X86484642Y-36877130D01*
X86722738Y-36877130D01*
X86817976Y-36829511D01*
X86865595Y-36734273D01*
X86865595Y-36639035D01*
X86817976Y-36543797D01*
X86722738Y-36496178D01*
X86484642Y-36496178D01*
X86389404Y-36448559D01*
X85960833Y-36829511D02*
X85865595Y-36877130D01*
X85675119Y-36877130D01*
X85579880Y-36829511D01*
X85532261Y-36734273D01*
X85532261Y-36686654D01*
X85579880Y-36591416D01*
X85675119Y-36543797D01*
X85817976Y-36543797D01*
X85913214Y-36496178D01*
X85960833Y-36400940D01*
X85960833Y-36353321D01*
X85913214Y-36258083D01*
X85817976Y-36210464D01*
X85675119Y-36210464D01*
X85579880Y-36258083D01*
X84722738Y-36829511D02*
X84817976Y-36877130D01*
X85008452Y-36877130D01*
X85103690Y-36829511D01*
X85151309Y-36734273D01*
X85151309Y-36353321D01*
X85103690Y-36258083D01*
X85008452Y-36210464D01*
X84817976Y-36210464D01*
X84722738Y-36258083D01*
X84675119Y-36353321D01*
X84675119Y-36448559D01*
X85151309Y-36543797D01*
X83817976Y-36877130D02*
X83817976Y-35877130D01*
X83817976Y-36829511D02*
X83913214Y-36877130D01*
X84103690Y-36877130D01*
X84198928Y-36829511D01*
X84246547Y-36781892D01*
X84294166Y-36686654D01*
X84294166Y-36400940D01*
X84246547Y-36305702D01*
X84198928Y-36258083D01*
X84103690Y-36210464D01*
X83913214Y-36210464D01*
X83817976Y-36258083D01*
X82437023Y-36877130D02*
X82532261Y-36829511D01*
X82579880Y-36781892D01*
X82627500Y-36686654D01*
X82627500Y-36400940D01*
X82579880Y-36305702D01*
X82532261Y-36258083D01*
X82437023Y-36210464D01*
X82294166Y-36210464D01*
X82198928Y-36258083D01*
X82151309Y-36305702D01*
X82103690Y-36400940D01*
X82103690Y-36686654D01*
X82151309Y-36781892D01*
X82198928Y-36829511D01*
X82294166Y-36877130D01*
X82437023Y-36877130D01*
X81675119Y-36210464D02*
X81675119Y-36877130D01*
X81675119Y-36305702D02*
X81627500Y-36258083D01*
X81532261Y-36210464D01*
X81389404Y-36210464D01*
X81294166Y-36258083D01*
X81246547Y-36353321D01*
X81246547Y-36877130D01*
X80008452Y-36877130D02*
X80008452Y-35877130D01*
X79627500Y-35877130D01*
X79532261Y-35924750D01*
X79484642Y-35972369D01*
X79437023Y-36067607D01*
X79437023Y-36210464D01*
X79484642Y-36305702D01*
X79532261Y-36353321D01*
X79627500Y-36400940D01*
X80008452Y-36400940D01*
X78865595Y-36877130D02*
X78960833Y-36829511D01*
X79008452Y-36734273D01*
X79008452Y-35877130D01*
X78056071Y-36877130D02*
X78056071Y-36353321D01*
X78103690Y-36258083D01*
X78198928Y-36210464D01*
X78389404Y-36210464D01*
X78484642Y-36258083D01*
X78056071Y-36829511D02*
X78151309Y-36877130D01*
X78389404Y-36877130D01*
X78484642Y-36829511D01*
X78532261Y-36734273D01*
X78532261Y-36639035D01*
X78484642Y-36543797D01*
X78389404Y-36496178D01*
X78151309Y-36496178D01*
X78056071Y-36448559D01*
X77579880Y-36877130D02*
X77579880Y-36210464D01*
X77579880Y-35877130D02*
X77627500Y-35924750D01*
X77579880Y-35972369D01*
X77532261Y-35924750D01*
X77579880Y-35877130D01*
X77579880Y-35972369D01*
X77103690Y-36210464D02*
X77103690Y-36877130D01*
X77103690Y-36305702D02*
X77056071Y-36258083D01*
X76960833Y-36210464D01*
X76817976Y-36210464D01*
X76722738Y-36258083D01*
X76675119Y-36353321D01*
X76675119Y-36877130D01*
X75770357Y-35877130D02*
X75960833Y-35877130D01*
X76056071Y-35924750D01*
X76103690Y-35972369D01*
X76198928Y-36115226D01*
X76246547Y-36305702D01*
X76246547Y-36686654D01*
X76198928Y-36781892D01*
X76151309Y-36829511D01*
X76056071Y-36877130D01*
X75865595Y-36877130D01*
X75770357Y-36829511D01*
X75722738Y-36781892D01*
X75675119Y-36686654D01*
X75675119Y-36448559D01*
X75722738Y-36353321D01*
X75770357Y-36305702D01*
X75865595Y-36258083D01*
X76056071Y-36258083D01*
X76151309Y-36305702D01*
X76198928Y-36353321D01*
X76246547Y-36448559D01*
X75056071Y-35877130D02*
X74960833Y-35877130D01*
X74865595Y-35924750D01*
X74817976Y-35972369D01*
X74770357Y-36067607D01*
X74722738Y-36258083D01*
X74722738Y-36496178D01*
X74770357Y-36686654D01*
X74817976Y-36781892D01*
X74865595Y-36829511D01*
X74960833Y-36877130D01*
X75056071Y-36877130D01*
X75151309Y-36829511D01*
X75198928Y-36781892D01*
X75246547Y-36686654D01*
X75294166Y-36496178D01*
X75294166Y-36258083D01*
X75246547Y-36067607D01*
X75198928Y-35972369D01*
X75151309Y-35924750D01*
X75056071Y-35877130D01*
X73198928Y-36353321D02*
X73532261Y-36353321D01*
X73532261Y-36877130D02*
X73532261Y-35877130D01*
X73056071Y-35877130D01*
X72532261Y-36877130D02*
X72627500Y-36829511D01*
X72675119Y-36734273D01*
X72675119Y-35877130D01*
X71770357Y-36829511D02*
X71865595Y-36877130D01*
X72056071Y-36877130D01*
X72151309Y-36829511D01*
X72198928Y-36734273D01*
X72198928Y-36353321D01*
X72151309Y-36258083D01*
X72056071Y-36210464D01*
X71865595Y-36210464D01*
X71770357Y-36258083D01*
X71722738Y-36353321D01*
X71722738Y-36448559D01*
X72198928Y-36543797D01*
X71389404Y-36877130D02*
X70865595Y-36210464D01*
X71389404Y-36210464D02*
X70865595Y-36877130D01*
X90151309Y-38820464D02*
X90151309Y-37391892D01*
X89198928Y-38820464D02*
X89198928Y-37391892D01*
X87294166Y-38487130D02*
X87294166Y-37963321D01*
X87341785Y-37868083D01*
X87437023Y-37820464D01*
X87627500Y-37820464D01*
X87722738Y-37868083D01*
X87294166Y-38439511D02*
X87389404Y-38487130D01*
X87627500Y-38487130D01*
X87722738Y-38439511D01*
X87770357Y-38344273D01*
X87770357Y-38249035D01*
X87722738Y-38153797D01*
X87627500Y-38106178D01*
X87389404Y-38106178D01*
X87294166Y-38058559D01*
X86389404Y-38487130D02*
X86389404Y-37487130D01*
X86389404Y-38439511D02*
X86484642Y-38487130D01*
X86675119Y-38487130D01*
X86770357Y-38439511D01*
X86817976Y-38391892D01*
X86865595Y-38296654D01*
X86865595Y-38010940D01*
X86817976Y-37915702D01*
X86770357Y-37868083D01*
X86675119Y-37820464D01*
X86484642Y-37820464D01*
X86389404Y-37868083D01*
X85484642Y-38487130D02*
X85484642Y-37963321D01*
X85532261Y-37868083D01*
X85627500Y-37820464D01*
X85817976Y-37820464D01*
X85913214Y-37868083D01*
X85484642Y-38439511D02*
X85579880Y-38487130D01*
X85817976Y-38487130D01*
X85913214Y-38439511D01*
X85960833Y-38344273D01*
X85960833Y-38249035D01*
X85913214Y-38153797D01*
X85817976Y-38106178D01*
X85579880Y-38106178D01*
X85484642Y-38058559D01*
X85008452Y-37820464D02*
X85008452Y-38820464D01*
X85008452Y-37868083D02*
X84913214Y-37820464D01*
X84722738Y-37820464D01*
X84627500Y-37868083D01*
X84579880Y-37915702D01*
X84532261Y-38010940D01*
X84532261Y-38296654D01*
X84579880Y-38391892D01*
X84627500Y-38439511D01*
X84722738Y-38487130D01*
X84913214Y-38487130D01*
X85008452Y-38439511D01*
X84246547Y-37820464D02*
X83865595Y-37820464D01*
X84103690Y-37487130D02*
X84103690Y-38344273D01*
X84056071Y-38439511D01*
X83960833Y-38487130D01*
X83865595Y-38487130D01*
X83151309Y-38439511D02*
X83246547Y-38487130D01*
X83437023Y-38487130D01*
X83532261Y-38439511D01*
X83579880Y-38344273D01*
X83579880Y-37963321D01*
X83532261Y-37868083D01*
X83437023Y-37820464D01*
X83246547Y-37820464D01*
X83151309Y-37868083D01*
X83103690Y-37963321D01*
X83103690Y-38058559D01*
X83579880Y-38153797D01*
X82246547Y-38487130D02*
X82246547Y-37487130D01*
X82246547Y-38439511D02*
X82341785Y-38487130D01*
X82532261Y-38487130D01*
X82627500Y-38439511D01*
X82675119Y-38391892D01*
X82722738Y-38296654D01*
X82722738Y-38010940D01*
X82675119Y-37915702D01*
X82627500Y-37868083D01*
X82532261Y-37820464D01*
X82341785Y-37820464D01*
X82246547Y-37868083D01*
X81008452Y-38487130D02*
X81008452Y-37487130D01*
X81008452Y-37868083D02*
X80913214Y-37820464D01*
X80722738Y-37820464D01*
X80627500Y-37868083D01*
X80579880Y-37915702D01*
X80532261Y-38010940D01*
X80532261Y-38296654D01*
X80579880Y-38391892D01*
X80627500Y-38439511D01*
X80722738Y-38487130D01*
X80913214Y-38487130D01*
X81008452Y-38439511D01*
X80198928Y-37820464D02*
X79960833Y-38487130D01*
X79722738Y-37820464D02*
X79960833Y-38487130D01*
X80056071Y-38725226D01*
X80103690Y-38772845D01*
X80198928Y-38820464D01*
X78627500Y-38439511D02*
X78484642Y-38487130D01*
X78246547Y-38487130D01*
X78151309Y-38439511D01*
X78103690Y-38391892D01*
X78056071Y-38296654D01*
X78056071Y-38201416D01*
X78103690Y-38106178D01*
X78151309Y-38058559D01*
X78246547Y-38010940D01*
X78437023Y-37963321D01*
X78532261Y-37915702D01*
X78579880Y-37868083D01*
X78627500Y-37772845D01*
X78627500Y-37677607D01*
X78579880Y-37582369D01*
X78532261Y-37534750D01*
X78437023Y-37487130D01*
X78198928Y-37487130D01*
X78056071Y-37534750D01*
X77198928Y-38439511D02*
X77294166Y-38487130D01*
X77484642Y-38487130D01*
X77579880Y-38439511D01*
X77627500Y-38391892D01*
X77675119Y-38296654D01*
X77675119Y-38010940D01*
X77627500Y-37915702D01*
X77579880Y-37868083D01*
X77484642Y-37820464D01*
X77294166Y-37820464D01*
X77198928Y-37868083D01*
X76341785Y-38487130D02*
X76341785Y-37963321D01*
X76389404Y-37868083D01*
X76484642Y-37820464D01*
X76675119Y-37820464D01*
X76770357Y-37868083D01*
X76341785Y-38439511D02*
X76437023Y-38487130D01*
X76675119Y-38487130D01*
X76770357Y-38439511D01*
X76817976Y-38344273D01*
X76817976Y-38249035D01*
X76770357Y-38153797D01*
X76675119Y-38106178D01*
X76437023Y-38106178D01*
X76341785Y-38058559D01*
X76008452Y-37820464D02*
X75627500Y-37820464D01*
X75865595Y-37487130D02*
X75865595Y-38344273D01*
X75817976Y-38439511D01*
X75722738Y-38487130D01*
X75627500Y-38487130D01*
X75437023Y-37820464D02*
X75056071Y-37820464D01*
X75294166Y-37487130D02*
X75294166Y-38344273D01*
X75246547Y-38439511D01*
X75151309Y-38487130D01*
X75056071Y-38487130D01*
X74341785Y-38439511D02*
X74437023Y-38487130D01*
X74627500Y-38487130D01*
X74722738Y-38439511D01*
X74770357Y-38344273D01*
X74770357Y-37963321D01*
X74722738Y-37868083D01*
X74627500Y-37820464D01*
X74437023Y-37820464D01*
X74341785Y-37868083D01*
X74294166Y-37963321D01*
X74294166Y-38058559D01*
X74770357Y-38153797D01*
X73865595Y-38487130D02*
X73865595Y-37820464D01*
X73865595Y-38010940D02*
X73817976Y-37915702D01*
X73770357Y-37868083D01*
X73675119Y-37820464D01*
X73579880Y-37820464D01*
X72865595Y-38439511D02*
X72960833Y-38487130D01*
X73151309Y-38487130D01*
X73246547Y-38439511D01*
X73294166Y-38344273D01*
X73294166Y-37963321D01*
X73246547Y-37868083D01*
X73151309Y-37820464D01*
X72960833Y-37820464D01*
X72865595Y-37868083D01*
X72817976Y-37963321D01*
X72817976Y-38058559D01*
X73294166Y-38153797D01*
X71960833Y-38487130D02*
X71960833Y-37487130D01*
X71960833Y-38439511D02*
X72056071Y-38487130D01*
X72246547Y-38487130D01*
X72341785Y-38439511D01*
X72389404Y-38391892D01*
X72437023Y-38296654D01*
X72437023Y-38010940D01*
X72389404Y-37915702D01*
X72341785Y-37868083D01*
X72246547Y-37820464D01*
X72056071Y-37820464D01*
X71960833Y-37868083D01*
X71484642Y-38487130D02*
X71484642Y-37487130D01*
X71246547Y-37487130D01*
X71103690Y-37534750D01*
X71008452Y-37629988D01*
X70960833Y-37725226D01*
X70913214Y-37915702D01*
X70913214Y-38058559D01*
X70960833Y-38249035D01*
X71008452Y-38344273D01*
X71103690Y-38439511D01*
X71246547Y-38487130D01*
X71484642Y-38487130D01*
X70484642Y-38487130D02*
X70484642Y-37820464D01*
X70484642Y-38010940D02*
X70437023Y-37915702D01*
X70389404Y-37868083D01*
X70294166Y-37820464D01*
X70198928Y-37820464D01*
X69865595Y-38487130D02*
X69865595Y-37820464D01*
X69865595Y-37487130D02*
X69913214Y-37534750D01*
X69865595Y-37582369D01*
X69817976Y-37534750D01*
X69865595Y-37487130D01*
X69865595Y-37582369D01*
X69532261Y-37820464D02*
X69151309Y-37820464D01*
X69389404Y-38487130D02*
X69389404Y-37629988D01*
X69341785Y-37534750D01*
X69246547Y-37487130D01*
X69151309Y-37487130D01*
X68960833Y-37820464D02*
X68579880Y-37820464D01*
X68817976Y-37487130D02*
X68817976Y-38344273D01*
X68770357Y-38439511D01*
X68675119Y-38487130D01*
X68579880Y-38487130D01*
X67865595Y-38439511D02*
X67960833Y-38487130D01*
X68151309Y-38487130D01*
X68246547Y-38439511D01*
X68294166Y-38344273D01*
X68294166Y-37963321D01*
X68246547Y-37868083D01*
X68151309Y-37820464D01*
X67960833Y-37820464D01*
X67865595Y-37868083D01*
X67817976Y-37963321D01*
X67817976Y-38058559D01*
X68294166Y-38153797D01*
X67389404Y-38487130D02*
X67389404Y-37820464D01*
X67389404Y-38010940D02*
X67341785Y-37915702D01*
X67294166Y-37868083D01*
X67198928Y-37820464D01*
X67103690Y-37820464D01*
X90151309Y-40430464D02*
X90151309Y-39001892D01*
X89198928Y-40430464D02*
X89198928Y-39001892D01*
X87770357Y-40049511D02*
X87627500Y-40097130D01*
X87389404Y-40097130D01*
X87294166Y-40049511D01*
X87246547Y-40001892D01*
X87198928Y-39906654D01*
X87198928Y-39811416D01*
X87246547Y-39716178D01*
X87294166Y-39668559D01*
X87389404Y-39620940D01*
X87579880Y-39573321D01*
X87675119Y-39525702D01*
X87722738Y-39478083D01*
X87770357Y-39382845D01*
X87770357Y-39287607D01*
X87722738Y-39192369D01*
X87675119Y-39144750D01*
X87579880Y-39097130D01*
X87341785Y-39097130D01*
X87198928Y-39144750D01*
X86341785Y-40049511D02*
X86437023Y-40097130D01*
X86627500Y-40097130D01*
X86722738Y-40049511D01*
X86770357Y-40001892D01*
X86817976Y-39906654D01*
X86817976Y-39620940D01*
X86770357Y-39525702D01*
X86722738Y-39478083D01*
X86627500Y-39430464D01*
X86437023Y-39430464D01*
X86341785Y-39478083D01*
X85484642Y-40097130D02*
X85484642Y-39573321D01*
X85532261Y-39478083D01*
X85627500Y-39430464D01*
X85817976Y-39430464D01*
X85913214Y-39478083D01*
X85484642Y-40049511D02*
X85579880Y-40097130D01*
X85817976Y-40097130D01*
X85913214Y-40049511D01*
X85960833Y-39954273D01*
X85960833Y-39859035D01*
X85913214Y-39763797D01*
X85817976Y-39716178D01*
X85579880Y-39716178D01*
X85484642Y-39668559D01*
X85151309Y-39430464D02*
X84770357Y-39430464D01*
X85008452Y-39097130D02*
X85008452Y-39954273D01*
X84960833Y-40049511D01*
X84865595Y-40097130D01*
X84770357Y-40097130D01*
X84579880Y-39430464D02*
X84198928Y-39430464D01*
X84437023Y-39097130D02*
X84437023Y-39954273D01*
X84389404Y-40049511D01*
X84294166Y-40097130D01*
X84198928Y-40097130D01*
X83484642Y-40049511D02*
X83579880Y-40097130D01*
X83770357Y-40097130D01*
X83865595Y-40049511D01*
X83913214Y-39954273D01*
X83913214Y-39573321D01*
X83865595Y-39478083D01*
X83770357Y-39430464D01*
X83579880Y-39430464D01*
X83484642Y-39478083D01*
X83437023Y-39573321D01*
X83437023Y-39668559D01*
X83913214Y-39763797D01*
X83008452Y-40097130D02*
X83008452Y-39430464D01*
X83008452Y-39620940D02*
X82960833Y-39525702D01*
X82913214Y-39478083D01*
X82817976Y-39430464D01*
X82722738Y-39430464D01*
X82008452Y-40049511D02*
X82103690Y-40097130D01*
X82294166Y-40097130D01*
X82389404Y-40049511D01*
X82437023Y-39954273D01*
X82437023Y-39573321D01*
X82389404Y-39478083D01*
X82294166Y-39430464D01*
X82103690Y-39430464D01*
X82008452Y-39478083D01*
X81960833Y-39573321D01*
X81960833Y-39668559D01*
X82437023Y-39763797D01*
X81103690Y-40097130D02*
X81103690Y-39097130D01*
X81103690Y-40049511D02*
X81198928Y-40097130D01*
X81389404Y-40097130D01*
X81484642Y-40049511D01*
X81532261Y-40001892D01*
X81579880Y-39906654D01*
X81579880Y-39620940D01*
X81532261Y-39525702D01*
X81484642Y-39478083D01*
X81389404Y-39430464D01*
X81198928Y-39430464D01*
X81103690Y-39478083D01*
X80627500Y-39716178D02*
X79865595Y-39716178D01*
X79246547Y-40097130D02*
X79341785Y-40049511D01*
X79389404Y-39954273D01*
X79389404Y-39097130D01*
X78484642Y-40049511D02*
X78579880Y-40097130D01*
X78770357Y-40097130D01*
X78865595Y-40049511D01*
X78913214Y-39954273D01*
X78913214Y-39573321D01*
X78865595Y-39478083D01*
X78770357Y-39430464D01*
X78579880Y-39430464D01*
X78484642Y-39478083D01*
X78437023Y-39573321D01*
X78437023Y-39668559D01*
X78913214Y-39763797D01*
X78008452Y-39430464D02*
X78008452Y-40097130D01*
X78008452Y-39525702D02*
X77960833Y-39478083D01*
X77865595Y-39430464D01*
X77722738Y-39430464D01*
X77627500Y-39478083D01*
X77579880Y-39573321D01*
X77579880Y-40097130D01*
X77103690Y-40097130D02*
X77103690Y-39430464D01*
X77103690Y-39097130D02*
X77151309Y-39144750D01*
X77103690Y-39192369D01*
X77056071Y-39144750D01*
X77103690Y-39097130D01*
X77103690Y-39192369D01*
X76770357Y-39430464D02*
X76389404Y-39430464D01*
X76627500Y-39097130D02*
X76627500Y-39954273D01*
X76579880Y-40049511D01*
X76484642Y-40097130D01*
X76389404Y-40097130D01*
X76151309Y-39430464D02*
X75913214Y-40097130D01*
X75675119Y-39430464D02*
X75913214Y-40097130D01*
X76008452Y-40335226D01*
X76056071Y-40382845D01*
X76151309Y-40430464D01*
X75294166Y-40001892D02*
X75246547Y-40049511D01*
X75294166Y-40097130D01*
X75341785Y-40049511D01*
X75294166Y-40001892D01*
X75294166Y-40097130D01*
X74865595Y-40049511D02*
X74770357Y-40097130D01*
X74579880Y-40097130D01*
X74484642Y-40049511D01*
X74437023Y-39954273D01*
X74437023Y-39906654D01*
X74484642Y-39811416D01*
X74579880Y-39763797D01*
X74722738Y-39763797D01*
X74817976Y-39716178D01*
X74865595Y-39620940D01*
X74865595Y-39573321D01*
X74817976Y-39478083D01*
X74722738Y-39430464D01*
X74579880Y-39430464D01*
X74484642Y-39478083D01*
X74008452Y-39430464D02*
X74008452Y-40430464D01*
X74008452Y-39478083D02*
X73913214Y-39430464D01*
X73722738Y-39430464D01*
X73627500Y-39478083D01*
X73579880Y-39525702D01*
X73532261Y-39620940D01*
X73532261Y-39906654D01*
X73579880Y-40001892D01*
X73627500Y-40049511D01*
X73722738Y-40097130D01*
X73913214Y-40097130D01*
X74008452Y-40049511D01*
X72675119Y-40097130D02*
X72675119Y-39573321D01*
X72722738Y-39478083D01*
X72817976Y-39430464D01*
X73008452Y-39430464D01*
X73103690Y-39478083D01*
X72675119Y-40049511D02*
X72770357Y-40097130D01*
X73008452Y-40097130D01*
X73103690Y-40049511D01*
X73151309Y-39954273D01*
X73151309Y-39859035D01*
X73103690Y-39763797D01*
X73008452Y-39716178D01*
X72770357Y-39716178D01*
X72675119Y-39668559D01*
X71770357Y-40049511D02*
X71865595Y-40097130D01*
X72056071Y-40097130D01*
X72151309Y-40049511D01*
X72198928Y-40001892D01*
X72246547Y-39906654D01*
X72246547Y-39620940D01*
X72198928Y-39525702D01*
X72151309Y-39478083D01*
X72056071Y-39430464D01*
X71865595Y-39430464D01*
X71770357Y-39478083D01*
X70960833Y-40049511D02*
X71056071Y-40097130D01*
X71246547Y-40097130D01*
X71341785Y-40049511D01*
X71389404Y-39954273D01*
X71389404Y-39573321D01*
X71341785Y-39478083D01*
X71246547Y-39430464D01*
X71056071Y-39430464D01*
X70960833Y-39478083D01*
X70913214Y-39573321D01*
X70913214Y-39668559D01*
X71389404Y-39763797D01*
X19707380Y-44124750D02*
X19802619Y-44077130D01*
X19945476Y-44077130D01*
X20088333Y-44124750D01*
X20183571Y-44219988D01*
X20231190Y-44315226D01*
X20278809Y-44505702D01*
X20278809Y-44648559D01*
X20231190Y-44839035D01*
X20183571Y-44934273D01*
X20088333Y-45029511D01*
X19945476Y-45077130D01*
X19850238Y-45077130D01*
X19707380Y-45029511D01*
X19659761Y-44981892D01*
X19659761Y-44648559D01*
X19850238Y-44648559D01*
X19231190Y-45077130D02*
X19231190Y-44077130D01*
X18850238Y-44077130D01*
X18755000Y-44124750D01*
X18707380Y-44172369D01*
X18659761Y-44267607D01*
X18659761Y-44410464D01*
X18707380Y-44505702D01*
X18755000Y-44553321D01*
X18850238Y-44600940D01*
X19231190Y-44600940D01*
X18231190Y-45077130D02*
X18231190Y-44077130D01*
X17564523Y-44077130D02*
X17374047Y-44077130D01*
X17278809Y-44124750D01*
X17183571Y-44219988D01*
X17135952Y-44410464D01*
X17135952Y-44743797D01*
X17183571Y-44934273D01*
X17278809Y-45029511D01*
X17374047Y-45077130D01*
X17564523Y-45077130D01*
X17659761Y-45029511D01*
X17755000Y-44934273D01*
X17802619Y-44743797D01*
X17802619Y-44410464D01*
X17755000Y-44219988D01*
X17659761Y-44124750D01*
X17564523Y-44077130D01*
X16183571Y-45077130D02*
X16755000Y-45077130D01*
X16469285Y-45077130D02*
X16469285Y-44077130D01*
X16564523Y-44219988D01*
X16659761Y-44315226D01*
X16755000Y-44362845D01*
X15850238Y-44077130D02*
X15183571Y-44077130D01*
X15612142Y-45077130D01*
D11*
X105206428Y-70821892D02*
X104063571Y-70821892D01*
X104635000Y-71393321D02*
X104635000Y-70250464D01*
D12*
X4096190Y-36592380D02*
X3477142Y-36592380D01*
X3810476Y-36973333D01*
X3667619Y-36973333D01*
X3572380Y-37020952D01*
X3524761Y-37068571D01*
X3477142Y-37163809D01*
X3477142Y-37401904D01*
X3524761Y-37497142D01*
X3572380Y-37544761D01*
X3667619Y-37592380D01*
X3953333Y-37592380D01*
X4048571Y-37544761D01*
X4096190Y-37497142D01*
X3048571Y-37497142D02*
X3000952Y-37544761D01*
X3048571Y-37592380D01*
X3096190Y-37544761D01*
X3048571Y-37497142D01*
X3048571Y-37592380D01*
X2667619Y-36592380D02*
X2048571Y-36592380D01*
X2381904Y-36973333D01*
X2239047Y-36973333D01*
X2143809Y-37020952D01*
X2096190Y-37068571D01*
X2048571Y-37163809D01*
X2048571Y-37401904D01*
X2096190Y-37497142D01*
X2143809Y-37544761D01*
X2239047Y-37592380D01*
X2524761Y-37592380D01*
X2620000Y-37544761D01*
X2667619Y-37497142D01*
X1762857Y-36592380D02*
X1429523Y-37592380D01*
X1096190Y-36592380D01*
D10*
X45822142Y-31623321D02*
X45679285Y-31670940D01*
X45631666Y-31718559D01*
X45584047Y-31813797D01*
X45584047Y-31956654D01*
X45631666Y-32051892D01*
X45679285Y-32099511D01*
X45774523Y-32147130D01*
X46155476Y-32147130D01*
X46155476Y-31147130D01*
X45822142Y-31147130D01*
X45726904Y-31194750D01*
X45679285Y-31242369D01*
X45631666Y-31337607D01*
X45631666Y-31432845D01*
X45679285Y-31528083D01*
X45726904Y-31575702D01*
X45822142Y-31623321D01*
X46155476Y-31623321D01*
X44965000Y-31147130D02*
X44774523Y-31147130D01*
X44679285Y-31194750D01*
X44584047Y-31289988D01*
X44536428Y-31480464D01*
X44536428Y-31813797D01*
X44584047Y-32004273D01*
X44679285Y-32099511D01*
X44774523Y-32147130D01*
X44965000Y-32147130D01*
X45060238Y-32099511D01*
X45155476Y-32004273D01*
X45203095Y-31813797D01*
X45203095Y-31480464D01*
X45155476Y-31289988D01*
X45060238Y-31194750D01*
X44965000Y-31147130D01*
X43917380Y-31147130D02*
X43726904Y-31147130D01*
X43631666Y-31194750D01*
X43536428Y-31289988D01*
X43488809Y-31480464D01*
X43488809Y-31813797D01*
X43536428Y-32004273D01*
X43631666Y-32099511D01*
X43726904Y-32147130D01*
X43917380Y-32147130D01*
X44012619Y-32099511D01*
X44107857Y-32004273D01*
X44155476Y-31813797D01*
X44155476Y-31480464D01*
X44107857Y-31289988D01*
X44012619Y-31194750D01*
X43917380Y-31147130D01*
X43203095Y-31147130D02*
X42631666Y-31147130D01*
X42917380Y-32147130D02*
X42917380Y-31147130D01*
D12*
X3907142Y-29874761D02*
X3764285Y-29922380D01*
X3526190Y-29922380D01*
X3430952Y-29874761D01*
X3383333Y-29827142D01*
X3335714Y-29731904D01*
X3335714Y-29636666D01*
X3383333Y-29541428D01*
X3430952Y-29493809D01*
X3526190Y-29446190D01*
X3716666Y-29398571D01*
X3811904Y-29350952D01*
X3859523Y-29303333D01*
X3907142Y-29208095D01*
X3907142Y-29112857D01*
X3859523Y-29017619D01*
X3811904Y-28970000D01*
X3716666Y-28922380D01*
X3478571Y-28922380D01*
X3335714Y-28970000D01*
X3002380Y-28922380D02*
X2764285Y-29922380D01*
X2573809Y-29208095D01*
X2383333Y-29922380D01*
X2145238Y-28922380D01*
X1192857Y-29827142D02*
X1240476Y-29874761D01*
X1383333Y-29922380D01*
X1478571Y-29922380D01*
X1621428Y-29874761D01*
X1716666Y-29779523D01*
X1764285Y-29684285D01*
X1811904Y-29493809D01*
X1811904Y-29350952D01*
X1764285Y-29160476D01*
X1716666Y-29065238D01*
X1621428Y-28970000D01*
X1478571Y-28922380D01*
X1383333Y-28922380D01*
X1240476Y-28970000D01*
X1192857Y-29017619D01*
D11*
X243846428Y-6831892D02*
X242703571Y-6831892D01*
X243275000Y-7403321D02*
X243275000Y-6260464D01*
D10*
X3560595Y-39130000D02*
X3655833Y-39082380D01*
X3798690Y-39082380D01*
X3941547Y-39130000D01*
X4036785Y-39225238D01*
X4084404Y-39320476D01*
X4132023Y-39510952D01*
X4132023Y-39653809D01*
X4084404Y-39844285D01*
X4036785Y-39939523D01*
X3941547Y-40034761D01*
X3798690Y-40082380D01*
X3703452Y-40082380D01*
X3560595Y-40034761D01*
X3512976Y-39987142D01*
X3512976Y-39653809D01*
X3703452Y-39653809D01*
X3084404Y-40082380D02*
X3084404Y-39082380D01*
X2512976Y-40082380D01*
X2512976Y-39082380D01*
X2036785Y-40082380D02*
X2036785Y-39082380D01*
X1798690Y-39082380D01*
X1655833Y-39130000D01*
X1560595Y-39225238D01*
X1512976Y-39320476D01*
X1465357Y-39510952D01*
X1465357Y-39653809D01*
X1512976Y-39844285D01*
X1560595Y-39939523D01*
X1655833Y-40034761D01*
X1798690Y-40082380D01*
X2036785Y-40082380D01*
D11*
X34656428Y-6851892D02*
X33513571Y-6851892D01*
X34085000Y-7423321D02*
X34085000Y-6280464D01*
D12*
X18958790Y-60560723D02*
X18554729Y-60964784D01*
X18756759Y-60762753D02*
X18049652Y-60055646D01*
X18083324Y-60224005D01*
X18083324Y-60358692D01*
X18049652Y-60459707D01*
X19194492Y-60190333D02*
X19261835Y-60190333D01*
X19261835Y-60257677D01*
X19194492Y-60257677D01*
X19194492Y-60190333D01*
X19261835Y-60257677D01*
X19968942Y-59550570D02*
X19564881Y-59954631D01*
X19766912Y-59752601D02*
X19059805Y-59045494D01*
X19093477Y-59213853D01*
X19093477Y-59348540D01*
X19059805Y-59449555D01*
X19463866Y-58641433D02*
X20406675Y-59112837D01*
X19935270Y-58170028D01*
X3356904Y-33974750D02*
X3452142Y-33927130D01*
X3595000Y-33927130D01*
X3737857Y-33974750D01*
X3833095Y-34069988D01*
X3880714Y-34165226D01*
X3928333Y-34355702D01*
X3928333Y-34498559D01*
X3880714Y-34689035D01*
X3833095Y-34784273D01*
X3737857Y-34879511D01*
X3595000Y-34927130D01*
X3499761Y-34927130D01*
X3356904Y-34879511D01*
X3309285Y-34831892D01*
X3309285Y-34498559D01*
X3499761Y-34498559D01*
X2880714Y-34927130D02*
X2880714Y-33927130D01*
X2309285Y-34927130D01*
X2309285Y-33927130D01*
X1833095Y-34927130D02*
X1833095Y-33927130D01*
X1595000Y-33927130D01*
X1452142Y-33974750D01*
X1356904Y-34069988D01*
X1309285Y-34165226D01*
X1261666Y-34355702D01*
X1261666Y-34498559D01*
X1309285Y-34689035D01*
X1356904Y-34784273D01*
X1452142Y-34879511D01*
X1595000Y-34927130D01*
X1833095Y-34927130D01*
D11*
X50246428Y-70801892D02*
X49103571Y-70801892D01*
X49675000Y-71373321D02*
X49675000Y-70230464D01*
X91596428Y-6801892D02*
X90453571Y-6801892D01*
X91025000Y-7373321D02*
X91025000Y-6230464D01*
X242306428Y-70841892D02*
X241163571Y-70841892D01*
X241735000Y-71413321D02*
X241735000Y-70270464D01*
D13*
X89959761Y-35395702D02*
X89959761Y-32895702D01*
X89007380Y-32895702D01*
X88769285Y-33014750D01*
X88650238Y-33133797D01*
X88531190Y-33371892D01*
X88531190Y-33729035D01*
X88650238Y-33967130D01*
X88769285Y-34086178D01*
X89007380Y-34205226D01*
X89959761Y-34205226D01*
X87102619Y-35395702D02*
X87340714Y-35276654D01*
X87459761Y-35038559D01*
X87459761Y-32895702D01*
X85078809Y-35395702D02*
X85078809Y-34086178D01*
X85197857Y-33848083D01*
X85435952Y-33729035D01*
X85912142Y-33729035D01*
X86150238Y-33848083D01*
X85078809Y-35276654D02*
X85316904Y-35395702D01*
X85912142Y-35395702D01*
X86150238Y-35276654D01*
X86269285Y-35038559D01*
X86269285Y-34800464D01*
X86150238Y-34562369D01*
X85912142Y-34443321D01*
X85316904Y-34443321D01*
X85078809Y-34324273D01*
X83888333Y-35395702D02*
X83888333Y-33729035D01*
X83888333Y-32895702D02*
X84007380Y-33014750D01*
X83888333Y-33133797D01*
X83769285Y-33014750D01*
X83888333Y-32895702D01*
X83888333Y-33133797D01*
X82697857Y-33729035D02*
X82697857Y-35395702D01*
X82697857Y-33967130D02*
X82578809Y-33848083D01*
X82340714Y-33729035D01*
X81983571Y-33729035D01*
X81745476Y-33848083D01*
X81626428Y-34086178D01*
X81626428Y-35395702D01*
X79364523Y-32895702D02*
X79840714Y-32895702D01*
X80078809Y-33014750D01*
X80197857Y-33133797D01*
X80435952Y-33490940D01*
X80555000Y-33967130D01*
X80555000Y-34919511D01*
X80435952Y-35157607D01*
X80316904Y-35276654D01*
X80078809Y-35395702D01*
X79602619Y-35395702D01*
X79364523Y-35276654D01*
X79245476Y-35157607D01*
X79126428Y-34919511D01*
X79126428Y-34324273D01*
X79245476Y-34086178D01*
X79364523Y-33967130D01*
X79602619Y-33848083D01*
X80078809Y-33848083D01*
X80316904Y-33967130D01*
X80435952Y-34086178D01*
X80555000Y-34324273D01*
X77578809Y-32895702D02*
X77340714Y-32895702D01*
X77102619Y-33014750D01*
X76983571Y-33133797D01*
X76864523Y-33371892D01*
X76745476Y-33848083D01*
X76745476Y-34443321D01*
X76864523Y-34919511D01*
X76983571Y-35157607D01*
X77102619Y-35276654D01*
X77340714Y-35395702D01*
X77578809Y-35395702D01*
X77816904Y-35276654D01*
X77935952Y-35157607D01*
X78055000Y-34919511D01*
X78174047Y-34443321D01*
X78174047Y-33848083D01*
X78055000Y-33371892D01*
X77935952Y-33133797D01*
X77816904Y-33014750D01*
X77578809Y-32895702D01*
X72935952Y-34086178D02*
X73769285Y-34086178D01*
X73769285Y-35395702D02*
X73769285Y-32895702D01*
X72578809Y-32895702D01*
X71269285Y-35395702D02*
X71507380Y-35276654D01*
X71626428Y-35038559D01*
X71626428Y-32895702D01*
X69364523Y-35276654D02*
X69602619Y-35395702D01*
X70078809Y-35395702D01*
X70316904Y-35276654D01*
X70435952Y-35038559D01*
X70435952Y-34086178D01*
X70316904Y-33848083D01*
X70078809Y-33729035D01*
X69602619Y-33729035D01*
X69364523Y-33848083D01*
X69245476Y-34086178D01*
X69245476Y-34324273D01*
X70435952Y-34562369D01*
X68412142Y-35395702D02*
X67102619Y-33729035D01*
X68412142Y-33729035D02*
X67102619Y-35395702D01*
X62816904Y-35395702D02*
X63650238Y-34205226D01*
X64245476Y-35395702D02*
X64245476Y-32895702D01*
X63293095Y-32895702D01*
X63055000Y-33014750D01*
X62935952Y-33133797D01*
X62816904Y-33371892D01*
X62816904Y-33729035D01*
X62935952Y-33967130D01*
X63055000Y-34086178D01*
X63293095Y-34205226D01*
X64245476Y-34205226D01*
X61745476Y-35395702D02*
X61745476Y-32895702D01*
X60793095Y-32895702D01*
X60555000Y-33014750D01*
X60435952Y-33133797D01*
X60316904Y-33371892D01*
X60316904Y-33729035D01*
X60435952Y-33967130D01*
X60555000Y-34086178D01*
X60793095Y-34205226D01*
X61745476Y-34205226D01*
X59364523Y-33133797D02*
X59245476Y-33014750D01*
X59007380Y-32895702D01*
X58412142Y-32895702D01*
X58174047Y-33014750D01*
X58055000Y-33133797D01*
X57935952Y-33371892D01*
X57935952Y-33609988D01*
X58055000Y-33967130D01*
X59483571Y-35395702D01*
X57935952Y-35395702D01*
X56388333Y-32895702D02*
X56150238Y-32895702D01*
X55912142Y-33014750D01*
X55793095Y-33133797D01*
X55674047Y-33371892D01*
X55555000Y-33848083D01*
X55555000Y-34443321D01*
X55674047Y-34919511D01*
X55793095Y-35157607D01*
X55912142Y-35276654D01*
X56150238Y-35395702D01*
X56388333Y-35395702D01*
X56626428Y-35276654D01*
X56745476Y-35157607D01*
X56864523Y-34919511D01*
X56983571Y-34443321D01*
X56983571Y-33848083D01*
X56864523Y-33371892D01*
X56745476Y-33133797D01*
X56626428Y-33014750D01*
X56388333Y-32895702D01*
X53412142Y-33729035D02*
X53412142Y-35395702D01*
X54007380Y-32776654D02*
X54602619Y-34562369D01*
X53055000Y-34562369D01*
X51626428Y-32895702D02*
X51388333Y-32895702D01*
X51150238Y-33014750D01*
X51031190Y-33133797D01*
X50912142Y-33371892D01*
X50793095Y-33848083D01*
X50793095Y-34443321D01*
X50912142Y-34919511D01*
X51031190Y-35157607D01*
X51150238Y-35276654D01*
X51388333Y-35395702D01*
X51626428Y-35395702D01*
X51864523Y-35276654D01*
X51983571Y-35157607D01*
X52102619Y-34919511D01*
X52221666Y-34443321D01*
X52221666Y-33848083D01*
X52102619Y-33371892D01*
X51983571Y-33133797D01*
X51864523Y-33014750D01*
X51626428Y-32895702D01*
D10*
X37957380Y-32147130D02*
X38290714Y-31670940D01*
X38528809Y-32147130D02*
X38528809Y-31147130D01*
X38147857Y-31147130D01*
X38052619Y-31194750D01*
X38005000Y-31242369D01*
X37957380Y-31337607D01*
X37957380Y-31480464D01*
X38005000Y-31575702D01*
X38052619Y-31623321D01*
X38147857Y-31670940D01*
X38528809Y-31670940D01*
X37528809Y-31623321D02*
X37195476Y-31623321D01*
X37052619Y-32147130D02*
X37528809Y-32147130D01*
X37528809Y-31147130D01*
X37052619Y-31147130D01*
X36671666Y-32099511D02*
X36528809Y-32147130D01*
X36290714Y-32147130D01*
X36195476Y-32099511D01*
X36147857Y-32051892D01*
X36100238Y-31956654D01*
X36100238Y-31861416D01*
X36147857Y-31766178D01*
X36195476Y-31718559D01*
X36290714Y-31670940D01*
X36481190Y-31623321D01*
X36576428Y-31575702D01*
X36624047Y-31528083D01*
X36671666Y-31432845D01*
X36671666Y-31337607D01*
X36624047Y-31242369D01*
X36576428Y-31194750D01*
X36481190Y-31147130D01*
X36243095Y-31147130D01*
X36100238Y-31194750D01*
X35671666Y-31623321D02*
X35338333Y-31623321D01*
X35195476Y-32147130D02*
X35671666Y-32147130D01*
X35671666Y-31147130D01*
X35195476Y-31147130D01*
X34909761Y-31147130D02*
X34338333Y-31147130D01*
X34624047Y-32147130D02*
X34624047Y-31147130D01*
X115464523Y-84770559D02*
X115350238Y-84808654D01*
X115159761Y-84808654D01*
X115083571Y-84770559D01*
X115045476Y-84732464D01*
X115007380Y-84656273D01*
X115007380Y-84580083D01*
X115045476Y-84503892D01*
X115083571Y-84465797D01*
X115159761Y-84427702D01*
X115312142Y-84389607D01*
X115388333Y-84351511D01*
X115426428Y-84313416D01*
X115464523Y-84237226D01*
X115464523Y-84161035D01*
X115426428Y-84084845D01*
X115388333Y-84046750D01*
X115312142Y-84008654D01*
X115121666Y-84008654D01*
X115007380Y-84046750D01*
X114664523Y-84275321D02*
X114664523Y-85075321D01*
X114664523Y-84313416D02*
X114588333Y-84275321D01*
X114435952Y-84275321D01*
X114359761Y-84313416D01*
X114321666Y-84351511D01*
X114283571Y-84427702D01*
X114283571Y-84656273D01*
X114321666Y-84732464D01*
X114359761Y-84770559D01*
X114435952Y-84808654D01*
X114588333Y-84808654D01*
X114664523Y-84770559D01*
X113635952Y-84770559D02*
X113712142Y-84808654D01*
X113864523Y-84808654D01*
X113940714Y-84770559D01*
X113978809Y-84694369D01*
X113978809Y-84389607D01*
X113940714Y-84313416D01*
X113864523Y-84275321D01*
X113712142Y-84275321D01*
X113635952Y-84313416D01*
X113597857Y-84389607D01*
X113597857Y-84465797D01*
X113978809Y-84541988D01*
X112912142Y-84808654D02*
X112912142Y-84389607D01*
X112950238Y-84313416D01*
X113026428Y-84275321D01*
X113178809Y-84275321D01*
X113255000Y-84313416D01*
X112912142Y-84770559D02*
X112988333Y-84808654D01*
X113178809Y-84808654D01*
X113255000Y-84770559D01*
X113293095Y-84694369D01*
X113293095Y-84618178D01*
X113255000Y-84541988D01*
X113178809Y-84503892D01*
X112988333Y-84503892D01*
X112912142Y-84465797D01*
X112531190Y-84808654D02*
X112531190Y-84008654D01*
X112455000Y-84503892D02*
X112226428Y-84808654D01*
X112226428Y-84275321D02*
X112531190Y-84580083D01*
X111578809Y-84770559D02*
X111655000Y-84808654D01*
X111807380Y-84808654D01*
X111883571Y-84770559D01*
X111921666Y-84694369D01*
X111921666Y-84389607D01*
X111883571Y-84313416D01*
X111807380Y-84275321D01*
X111655000Y-84275321D01*
X111578809Y-84313416D01*
X111540714Y-84389607D01*
X111540714Y-84465797D01*
X111921666Y-84541988D01*
X111197857Y-84808654D02*
X111197857Y-84275321D01*
X111197857Y-84427702D02*
X111159761Y-84351511D01*
X111121666Y-84313416D01*
X111045476Y-84275321D01*
X110969285Y-84275321D01*
X117559761Y-85868083D02*
X117178809Y-85868083D01*
X117635952Y-86096654D02*
X117369285Y-85296654D01*
X117102619Y-86096654D01*
X116874047Y-86058559D02*
X116759761Y-86096654D01*
X116569285Y-86096654D01*
X116493095Y-86058559D01*
X116455000Y-86020464D01*
X116416904Y-85944273D01*
X116416904Y-85868083D01*
X116455000Y-85791892D01*
X116493095Y-85753797D01*
X116569285Y-85715702D01*
X116721666Y-85677607D01*
X116797857Y-85639511D01*
X116835952Y-85601416D01*
X116874047Y-85525226D01*
X116874047Y-85449035D01*
X116835952Y-85372845D01*
X116797857Y-85334750D01*
X116721666Y-85296654D01*
X116531190Y-85296654D01*
X116416904Y-85334750D01*
X116188333Y-85296654D02*
X115731190Y-85296654D01*
X115959761Y-86096654D02*
X115959761Y-85296654D01*
X115045476Y-86096654D02*
X115502619Y-86096654D01*
X115274047Y-86096654D02*
X115274047Y-85296654D01*
X115350238Y-85410940D01*
X115426428Y-85487130D01*
X115502619Y-85525226D01*
X114283571Y-86096654D02*
X114740714Y-86096654D01*
X114512142Y-86096654D02*
X114512142Y-85296654D01*
X114588333Y-85410940D01*
X114664523Y-85487130D01*
X114740714Y-85525226D01*
X113788333Y-85296654D02*
X113712142Y-85296654D01*
X113635952Y-85334750D01*
X113597857Y-85372845D01*
X113559761Y-85449035D01*
X113521666Y-85601416D01*
X113521666Y-85791892D01*
X113559761Y-85944273D01*
X113597857Y-86020464D01*
X113635952Y-86058559D01*
X113712142Y-86096654D01*
X113788333Y-86096654D01*
X113864523Y-86058559D01*
X113902619Y-86020464D01*
X113940714Y-85944273D01*
X113978809Y-85791892D01*
X113978809Y-85601416D01*
X113940714Y-85449035D01*
X113902619Y-85372845D01*
X113864523Y-85334750D01*
X113788333Y-85296654D01*
X113140714Y-86096654D02*
X112988333Y-86096654D01*
X112912142Y-86058559D01*
X112874047Y-86020464D01*
X112797857Y-85906178D01*
X112759761Y-85753797D01*
X112759761Y-85449035D01*
X112797857Y-85372845D01*
X112835952Y-85334750D01*
X112912142Y-85296654D01*
X113064523Y-85296654D01*
X113140714Y-85334750D01*
X113178809Y-85372845D01*
X113216904Y-85449035D01*
X113216904Y-85639511D01*
X113178809Y-85715702D01*
X113140714Y-85753797D01*
X113064523Y-85791892D01*
X112912142Y-85791892D01*
X112835952Y-85753797D01*
X112797857Y-85715702D01*
X112759761Y-85639511D01*
X112416904Y-86096654D02*
X112416904Y-85296654D01*
X112150238Y-85868083D01*
X111883571Y-85296654D01*
X111883571Y-86096654D01*
X111121666Y-86096654D02*
X111502619Y-86096654D01*
X111502619Y-85296654D01*
X110969285Y-85296654D02*
X110512142Y-85296654D01*
X110740714Y-86096654D02*
X110740714Y-85296654D01*
X109788333Y-86096654D02*
X110055000Y-85715702D01*
X110245476Y-86096654D02*
X110245476Y-85296654D01*
X109940714Y-85296654D01*
X109864523Y-85334750D01*
X109826428Y-85372845D01*
X109788333Y-85449035D01*
X109788333Y-85563321D01*
X109826428Y-85639511D01*
X109864523Y-85677607D01*
X109940714Y-85715702D01*
X110245476Y-85715702D01*
X108912142Y-86172845D02*
X108988333Y-86134750D01*
X109064523Y-86058559D01*
X109178809Y-85944273D01*
X109255000Y-85906178D01*
X109331190Y-85906178D01*
X109293095Y-86096654D02*
X109369285Y-86058559D01*
X109445476Y-85982369D01*
X109483571Y-85829988D01*
X109483571Y-85563321D01*
X109445476Y-85410940D01*
X109369285Y-85334750D01*
X109293095Y-85296654D01*
X109140714Y-85296654D01*
X109064523Y-85334750D01*
X108988333Y-85410940D01*
X108950238Y-85563321D01*
X108950238Y-85829988D01*
X108988333Y-85982369D01*
X109064523Y-86058559D01*
X109140714Y-86096654D01*
X109293095Y-86096654D01*
X115102619Y-87384654D02*
X115102619Y-86584654D01*
X114797857Y-86584654D01*
X114721666Y-86622750D01*
X114683571Y-86660845D01*
X114645476Y-86737035D01*
X114645476Y-86851321D01*
X114683571Y-86927511D01*
X114721666Y-86965607D01*
X114797857Y-87003702D01*
X115102619Y-87003702D01*
X114302619Y-87384654D02*
X114302619Y-86851321D01*
X114302619Y-86584654D02*
X114340714Y-86622750D01*
X114302619Y-86660845D01*
X114264523Y-86622750D01*
X114302619Y-86584654D01*
X114302619Y-86660845D01*
X113921666Y-86851321D02*
X113921666Y-87384654D01*
X113921666Y-86927511D02*
X113883571Y-86889416D01*
X113807380Y-86851321D01*
X113693095Y-86851321D01*
X113616904Y-86889416D01*
X113578809Y-86965607D01*
X113578809Y-87384654D01*
X112321666Y-86965607D02*
X112207380Y-87003702D01*
X112169285Y-87041797D01*
X112131190Y-87117988D01*
X112131190Y-87232273D01*
X112169285Y-87308464D01*
X112207380Y-87346559D01*
X112283571Y-87384654D01*
X112588333Y-87384654D01*
X112588333Y-86584654D01*
X112321666Y-86584654D01*
X112245476Y-86622750D01*
X112207380Y-86660845D01*
X112169285Y-86737035D01*
X112169285Y-86813226D01*
X112207380Y-86889416D01*
X112245476Y-86927511D01*
X112321666Y-86965607D01*
X112588333Y-86965607D01*
X111864523Y-86584654D02*
X111331190Y-86584654D01*
X111674047Y-87384654D01*
D11*
X186996428Y-6791892D02*
X185853571Y-6791892D01*
X186425000Y-7363321D02*
X186425000Y-6220464D01*
X181006428Y-70821892D02*
X179863571Y-70821892D01*
X180435000Y-71393321D02*
X180435000Y-70250464D01*
D12*
X3937142Y-32374761D02*
X3794285Y-32422380D01*
X3556190Y-32422380D01*
X3460952Y-32374761D01*
X3413333Y-32327142D01*
X3365714Y-32231904D01*
X3365714Y-32136666D01*
X3413333Y-32041428D01*
X3460952Y-31993809D01*
X3556190Y-31946190D01*
X3746666Y-31898571D01*
X3841904Y-31850952D01*
X3889523Y-31803333D01*
X3937142Y-31708095D01*
X3937142Y-31612857D01*
X3889523Y-31517619D01*
X3841904Y-31470000D01*
X3746666Y-31422380D01*
X3508571Y-31422380D01*
X3365714Y-31470000D01*
X3032380Y-31422380D02*
X2794285Y-32422380D01*
X2603809Y-31708095D01*
X2413333Y-32422380D01*
X2175238Y-31422380D01*
X1794285Y-32422380D02*
X1794285Y-31422380D01*
X1556190Y-31422380D01*
X1413333Y-31470000D01*
X1318095Y-31565238D01*
X1270476Y-31660476D01*
X1222857Y-31850952D01*
X1222857Y-31993809D01*
X1270476Y-32184285D01*
X1318095Y-32279523D01*
X1413333Y-32374761D01*
X1556190Y-32422380D01*
X1794285Y-32422380D01*
D10*
X25090389Y-51264687D02*
X25157732Y-51264687D01*
X25292419Y-51197343D01*
X25359763Y-51130000D01*
X25427106Y-50995312D01*
X25427106Y-50860625D01*
X25393435Y-50759610D01*
X25292419Y-50591251D01*
X25191404Y-50490236D01*
X25023045Y-50389221D01*
X24922030Y-50355549D01*
X24787343Y-50355549D01*
X24652656Y-50422893D01*
X24585312Y-50490236D01*
X24517969Y-50624923D01*
X24517969Y-50692267D01*
X24214923Y-50860625D02*
X23777190Y-51298358D01*
X24282267Y-51332030D01*
X24181251Y-51433045D01*
X24147580Y-51534061D01*
X24147580Y-51601404D01*
X24181251Y-51702419D01*
X24349610Y-51870778D01*
X24450625Y-51904450D01*
X24517969Y-51904450D01*
X24618984Y-51870778D01*
X24821015Y-51668748D01*
X24854687Y-51567732D01*
X24854687Y-51500389D01*
X24656666Y-31117142D02*
X24704285Y-31164761D01*
X24847142Y-31212380D01*
X24942380Y-31212380D01*
X25085238Y-31164761D01*
X25180476Y-31069523D01*
X25228095Y-30974285D01*
X25275714Y-30783809D01*
X25275714Y-30640952D01*
X25228095Y-30450476D01*
X25180476Y-30355238D01*
X25085238Y-30260000D01*
X24942380Y-30212380D01*
X24847142Y-30212380D01*
X24704285Y-30260000D01*
X24656666Y-30307619D01*
X23799523Y-30545714D02*
X23799523Y-31212380D01*
X24037619Y-30164761D02*
X24275714Y-30879047D01*
X23656666Y-30879047D01*
X29780389Y-55884687D02*
X29847732Y-55884687D01*
X29982419Y-55817343D01*
X30049763Y-55750000D01*
X30117106Y-55615312D01*
X30117106Y-55480625D01*
X30083435Y-55379610D01*
X29982419Y-55211251D01*
X29881404Y-55110236D01*
X29713045Y-55009221D01*
X29612030Y-54975549D01*
X29477343Y-54975549D01*
X29342656Y-55042893D01*
X29275312Y-55110236D01*
X29207969Y-55244923D01*
X29207969Y-55312267D01*
X28938595Y-55581641D02*
X28871251Y-55581641D01*
X28770236Y-55615312D01*
X28601877Y-55783671D01*
X28568206Y-55884687D01*
X28568206Y-55952030D01*
X28601877Y-56053045D01*
X28669221Y-56120389D01*
X28803908Y-56187732D01*
X29612030Y-56187732D01*
X29174297Y-56625465D01*
X21640389Y-60764688D02*
X21707732Y-60764688D01*
X21842419Y-60697344D01*
X21909763Y-60630001D01*
X21977106Y-60495313D01*
X21977106Y-60360626D01*
X21943435Y-60259611D01*
X21842419Y-60091252D01*
X21741404Y-59990237D01*
X21573045Y-59889222D01*
X21472030Y-59855550D01*
X21337343Y-59855550D01*
X21202656Y-59922894D01*
X21135312Y-59990237D01*
X21067969Y-60124924D01*
X21067969Y-60192268D01*
X20394534Y-60731016D02*
X20529221Y-60596329D01*
X20630236Y-60562657D01*
X20697580Y-60562657D01*
X20865938Y-60596329D01*
X21034297Y-60697344D01*
X21303671Y-60966718D01*
X21337343Y-61067733D01*
X21337343Y-61135077D01*
X21303671Y-61236092D01*
X21168984Y-61370779D01*
X21067969Y-61404451D01*
X21000625Y-61404451D01*
X20899610Y-61370779D01*
X20731251Y-61202420D01*
X20697580Y-61101405D01*
X20697580Y-61034062D01*
X20731251Y-60933046D01*
X20865938Y-60798359D01*
X20966954Y-60764688D01*
X21034297Y-60764688D01*
X21135312Y-60798359D01*
X21886666Y-19147142D02*
X21934285Y-19194761D01*
X22077142Y-19242380D01*
X22172380Y-19242380D01*
X22315238Y-19194761D01*
X22410476Y-19099523D01*
X22458095Y-19004285D01*
X22505714Y-18813809D01*
X22505714Y-18670952D01*
X22458095Y-18480476D01*
X22410476Y-18385238D01*
X22315238Y-18290000D01*
X22172380Y-18242380D01*
X22077142Y-18242380D01*
X21934285Y-18290000D01*
X21886666Y-18337619D01*
X20934285Y-19242380D02*
X21505714Y-19242380D01*
X21220000Y-19242380D02*
X21220000Y-18242380D01*
X21315238Y-18385238D01*
X21410476Y-18480476D01*
X21505714Y-18528095D01*
X49052380Y-36013333D02*
X48576190Y-35680000D01*
X49052380Y-35441904D02*
X48052380Y-35441904D01*
X48052380Y-35822857D01*
X48100000Y-35918095D01*
X48147619Y-35965714D01*
X48242857Y-36013333D01*
X48385714Y-36013333D01*
X48480952Y-35965714D01*
X48528571Y-35918095D01*
X48576190Y-35822857D01*
X48576190Y-35441904D01*
X49052380Y-36965714D02*
X49052380Y-36394285D01*
X49052380Y-36680000D02*
X48052380Y-36680000D01*
X48195238Y-36584761D01*
X48290476Y-36489523D01*
X48338095Y-36394285D01*
X28786666Y-17222380D02*
X29120000Y-16746190D01*
X29358095Y-17222380D02*
X29358095Y-16222380D01*
X28977142Y-16222380D01*
X28881904Y-16270000D01*
X28834285Y-16317619D01*
X28786666Y-16412857D01*
X28786666Y-16555714D01*
X28834285Y-16650952D01*
X28881904Y-16698571D01*
X28977142Y-16746190D01*
X29358095Y-16746190D01*
X28453333Y-16222380D02*
X27834285Y-16222380D01*
X28167619Y-16603333D01*
X28024761Y-16603333D01*
X27929523Y-16650952D01*
X27881904Y-16698571D01*
X27834285Y-16793809D01*
X27834285Y-17031904D01*
X27881904Y-17127142D01*
X27929523Y-17174761D01*
X28024761Y-17222380D01*
X28310476Y-17222380D01*
X28405714Y-17174761D01*
X28453333Y-17127142D01*
X40852380Y-35893333D02*
X40376190Y-35560000D01*
X40852380Y-35321904D02*
X39852380Y-35321904D01*
X39852380Y-35702857D01*
X39900000Y-35798095D01*
X39947619Y-35845714D01*
X40042857Y-35893333D01*
X40185714Y-35893333D01*
X40280952Y-35845714D01*
X40328571Y-35798095D01*
X40376190Y-35702857D01*
X40376190Y-35321904D01*
X40280952Y-36464761D02*
X40233333Y-36369523D01*
X40185714Y-36321904D01*
X40090476Y-36274285D01*
X40042857Y-36274285D01*
X39947619Y-36321904D01*
X39900000Y-36369523D01*
X39852380Y-36464761D01*
X39852380Y-36655238D01*
X39900000Y-36750476D01*
X39947619Y-36798095D01*
X40042857Y-36845714D01*
X40090476Y-36845714D01*
X40185714Y-36798095D01*
X40233333Y-36750476D01*
X40280952Y-36655238D01*
X40280952Y-36464761D01*
X40328571Y-36369523D01*
X40376190Y-36321904D01*
X40471428Y-36274285D01*
X40661904Y-36274285D01*
X40757142Y-36321904D01*
X40804761Y-36369523D01*
X40852380Y-36464761D01*
X40852380Y-36655238D01*
X40804761Y-36750476D01*
X40757142Y-36798095D01*
X40661904Y-36845714D01*
X40471428Y-36845714D01*
X40376190Y-36798095D01*
X40328571Y-36750476D01*
X40280952Y-36655238D01*
X18150389Y-52204687D02*
X18217732Y-52204687D01*
X18352419Y-52137343D01*
X18419763Y-52070000D01*
X18487106Y-51935312D01*
X18487106Y-51800625D01*
X18453435Y-51699610D01*
X18352419Y-51531251D01*
X18251404Y-51430236D01*
X18083045Y-51329221D01*
X17982030Y-51295549D01*
X17847343Y-51295549D01*
X17712656Y-51362893D01*
X17645312Y-51430236D01*
X17577969Y-51564923D01*
X17577969Y-51632267D01*
X17409610Y-52272030D02*
X17443282Y-52171015D01*
X17443282Y-52103671D01*
X17409610Y-52002656D01*
X17375938Y-51968984D01*
X17274923Y-51935312D01*
X17207580Y-51935312D01*
X17106564Y-51968984D01*
X16971877Y-52103671D01*
X16938206Y-52204687D01*
X16938206Y-52272030D01*
X16971877Y-52373045D01*
X17005549Y-52406717D01*
X17106564Y-52440389D01*
X17173908Y-52440389D01*
X17274923Y-52406717D01*
X17409610Y-52272030D01*
X17510625Y-52238358D01*
X17577969Y-52238358D01*
X17678984Y-52272030D01*
X17813671Y-52406717D01*
X17847343Y-52507732D01*
X17847343Y-52575076D01*
X17813671Y-52676091D01*
X17678984Y-52810778D01*
X17577969Y-52844450D01*
X17510625Y-52844450D01*
X17409610Y-52810778D01*
X17274923Y-52676091D01*
X17241251Y-52575076D01*
X17241251Y-52507732D01*
X17274923Y-52406717D01*
X28986666Y-4502380D02*
X29320000Y-4026190D01*
X29558095Y-4502380D02*
X29558095Y-3502380D01*
X29177142Y-3502380D01*
X29081904Y-3550000D01*
X29034285Y-3597619D01*
X28986666Y-3692857D01*
X28986666Y-3835714D01*
X29034285Y-3930952D01*
X29081904Y-3978571D01*
X29177142Y-4026190D01*
X29558095Y-4026190D01*
X28129523Y-3502380D02*
X28320000Y-3502380D01*
X28415238Y-3550000D01*
X28462857Y-3597619D01*
X28558095Y-3740476D01*
X28605714Y-3930952D01*
X28605714Y-4311904D01*
X28558095Y-4407142D01*
X28510476Y-4454761D01*
X28415238Y-4502380D01*
X28224761Y-4502380D01*
X28129523Y-4454761D01*
X28081904Y-4407142D01*
X28034285Y-4311904D01*
X28034285Y-4073809D01*
X28081904Y-3978571D01*
X28129523Y-3930952D01*
X28224761Y-3883333D01*
X28415238Y-3883333D01*
X28510476Y-3930952D01*
X28558095Y-3978571D01*
X28605714Y-4073809D01*
X28756666Y-19252380D02*
X29090000Y-18776190D01*
X29328095Y-19252380D02*
X29328095Y-18252380D01*
X28947142Y-18252380D01*
X28851904Y-18300000D01*
X28804285Y-18347619D01*
X28756666Y-18442857D01*
X28756666Y-18585714D01*
X28804285Y-18680952D01*
X28851904Y-18728571D01*
X28947142Y-18776190D01*
X29328095Y-18776190D01*
X27899523Y-18585714D02*
X27899523Y-19252380D01*
X28137619Y-18204761D02*
X28375714Y-18919047D01*
X27756666Y-18919047D01*
X26279881Y-52136446D02*
X26616599Y-52473164D01*
X26145194Y-51530355D02*
X26279881Y-52136446D01*
X25673790Y-52001759D01*
X25303400Y-52372148D02*
X25236057Y-52439492D01*
X25202385Y-52540507D01*
X25202385Y-52607851D01*
X25236057Y-52708866D01*
X25337072Y-52877225D01*
X25505431Y-53045583D01*
X25673790Y-53146599D01*
X25774805Y-53180270D01*
X25842148Y-53180270D01*
X25943164Y-53146599D01*
X26010507Y-53079255D01*
X26044179Y-52978240D01*
X26044179Y-52910896D01*
X26010507Y-52809881D01*
X25909492Y-52641522D01*
X25741133Y-52473164D01*
X25572774Y-52372148D01*
X25471759Y-52338477D01*
X25404416Y-52338477D01*
X25303400Y-52372148D01*
X56891904Y-50192380D02*
X56891904Y-51001904D01*
X56844285Y-51097142D01*
X56796666Y-51144761D01*
X56701428Y-51192380D01*
X56510952Y-51192380D01*
X56415714Y-51144761D01*
X56368095Y-51097142D01*
X56320476Y-51001904D01*
X56320476Y-50192380D01*
X55891904Y-50287619D02*
X55844285Y-50240000D01*
X55749047Y-50192380D01*
X55510952Y-50192380D01*
X55415714Y-50240000D01*
X55368095Y-50287619D01*
X55320476Y-50382857D01*
X55320476Y-50478095D01*
X55368095Y-50620952D01*
X55939523Y-51192380D01*
X55320476Y-51192380D01*
D11*
X171297571Y-54352750D02*
X171442714Y-54280178D01*
X171660428Y-54280178D01*
X171878142Y-54352750D01*
X172023285Y-54497892D01*
X172095857Y-54643035D01*
X172168428Y-54933321D01*
X172168428Y-55151035D01*
X172095857Y-55441321D01*
X172023285Y-55586464D01*
X171878142Y-55731607D01*
X171660428Y-55804178D01*
X171515285Y-55804178D01*
X171297571Y-55731607D01*
X171225000Y-55659035D01*
X171225000Y-55151035D01*
X171515285Y-55151035D01*
X170354142Y-54280178D02*
X170354142Y-54643035D01*
X170717000Y-54497892D02*
X170354142Y-54643035D01*
X169991285Y-54497892D01*
X170571857Y-54933321D02*
X170354142Y-54643035D01*
X170136428Y-54933321D01*
X169193000Y-54280178D02*
X169193000Y-54643035D01*
X169555857Y-54497892D02*
X169193000Y-54643035D01*
X168830142Y-54497892D01*
X169410714Y-54933321D02*
X169193000Y-54643035D01*
X168975285Y-54933321D01*
X168031857Y-54280178D02*
X168031857Y-54643035D01*
X168394714Y-54497892D02*
X168031857Y-54643035D01*
X167669000Y-54497892D01*
X168249571Y-54933321D02*
X168031857Y-54643035D01*
X167814142Y-54933321D01*
D10*
X25692857Y-33127142D02*
X25740476Y-33174761D01*
X25883333Y-33222380D01*
X25978571Y-33222380D01*
X26121428Y-33174761D01*
X26216666Y-33079523D01*
X26264285Y-32984285D01*
X26311904Y-32793809D01*
X26311904Y-32650952D01*
X26264285Y-32460476D01*
X26216666Y-32365238D01*
X26121428Y-32270000D01*
X25978571Y-32222380D01*
X25883333Y-32222380D01*
X25740476Y-32270000D01*
X25692857Y-32317619D01*
X24740476Y-33222380D02*
X25311904Y-33222380D01*
X25026190Y-33222380D02*
X25026190Y-32222380D01*
X25121428Y-32365238D01*
X25216666Y-32460476D01*
X25311904Y-32508095D01*
X24407142Y-32222380D02*
X23740476Y-32222380D01*
X24169047Y-33222380D01*
X38908333Y-18677130D02*
X38908333Y-19391416D01*
X38955952Y-19534273D01*
X39051190Y-19629511D01*
X39194047Y-19677130D01*
X39289285Y-19677130D01*
X38479761Y-18772369D02*
X38432142Y-18724750D01*
X38336904Y-18677130D01*
X38098809Y-18677130D01*
X38003571Y-18724750D01*
X37955952Y-18772369D01*
X37908333Y-18867607D01*
X37908333Y-18962845D01*
X37955952Y-19105702D01*
X38527380Y-19677130D01*
X37908333Y-19677130D01*
X10827142Y-31647142D02*
X10874761Y-31599523D01*
X10922380Y-31456666D01*
X10922380Y-31361428D01*
X10874761Y-31218571D01*
X10779523Y-31123333D01*
X10684285Y-31075714D01*
X10493809Y-31028095D01*
X10350952Y-31028095D01*
X10160476Y-31075714D01*
X10065238Y-31123333D01*
X9970000Y-31218571D01*
X9922380Y-31361428D01*
X9922380Y-31456666D01*
X9970000Y-31599523D01*
X10017619Y-31647142D01*
X10922380Y-32599523D02*
X10922380Y-32028095D01*
X10922380Y-32313809D02*
X9922380Y-32313809D01*
X10065238Y-32218571D01*
X10160476Y-32123333D01*
X10208095Y-32028095D01*
X9922380Y-32932857D02*
X9922380Y-33551904D01*
X10303333Y-33218571D01*
X10303333Y-33361428D01*
X10350952Y-33456666D01*
X10398571Y-33504285D01*
X10493809Y-33551904D01*
X10731904Y-33551904D01*
X10827142Y-33504285D01*
X10874761Y-33456666D01*
X10922380Y-33361428D01*
X10922380Y-33075714D01*
X10874761Y-32980476D01*
X10827142Y-32932857D01*
X48406666Y-41777142D02*
X48454285Y-41824761D01*
X48597142Y-41872380D01*
X48692380Y-41872380D01*
X48835238Y-41824761D01*
X48930476Y-41729523D01*
X48978095Y-41634285D01*
X49025714Y-41443809D01*
X49025714Y-41300952D01*
X48978095Y-41110476D01*
X48930476Y-41015238D01*
X48835238Y-40920000D01*
X48692380Y-40872380D01*
X48597142Y-40872380D01*
X48454285Y-40920000D01*
X48406666Y-40967619D01*
X47501904Y-40872380D02*
X47978095Y-40872380D01*
X48025714Y-41348571D01*
X47978095Y-41300952D01*
X47882857Y-41253333D01*
X47644761Y-41253333D01*
X47549523Y-41300952D01*
X47501904Y-41348571D01*
X47454285Y-41443809D01*
X47454285Y-41681904D01*
X47501904Y-41777142D01*
X47549523Y-41824761D01*
X47644761Y-41872380D01*
X47882857Y-41872380D01*
X47978095Y-41824761D01*
X48025714Y-41777142D01*
X12887142Y-31657142D02*
X12934761Y-31609523D01*
X12982380Y-31466666D01*
X12982380Y-31371428D01*
X12934761Y-31228571D01*
X12839523Y-31133333D01*
X12744285Y-31085714D01*
X12553809Y-31038095D01*
X12410952Y-31038095D01*
X12220476Y-31085714D01*
X12125238Y-31133333D01*
X12030000Y-31228571D01*
X11982380Y-31371428D01*
X11982380Y-31466666D01*
X12030000Y-31609523D01*
X12077619Y-31657142D01*
X12982380Y-32609523D02*
X12982380Y-32038095D01*
X12982380Y-32323809D02*
X11982380Y-32323809D01*
X12125238Y-32228571D01*
X12220476Y-32133333D01*
X12268095Y-32038095D01*
X12315714Y-33466666D02*
X12982380Y-33466666D01*
X11934761Y-33228571D02*
X12649047Y-32990476D01*
X12649047Y-33609523D01*
X19127142Y-31683333D02*
X19174761Y-31635714D01*
X19222380Y-31492857D01*
X19222380Y-31397619D01*
X19174761Y-31254761D01*
X19079523Y-31159523D01*
X18984285Y-31111904D01*
X18793809Y-31064285D01*
X18650952Y-31064285D01*
X18460476Y-31111904D01*
X18365238Y-31159523D01*
X18270000Y-31254761D01*
X18222380Y-31397619D01*
X18222380Y-31492857D01*
X18270000Y-31635714D01*
X18317619Y-31683333D01*
X19222380Y-32159523D02*
X19222380Y-32350000D01*
X19174761Y-32445238D01*
X19127142Y-32492857D01*
X18984285Y-32588095D01*
X18793809Y-32635714D01*
X18412857Y-32635714D01*
X18317619Y-32588095D01*
X18270000Y-32540476D01*
X18222380Y-32445238D01*
X18222380Y-32254761D01*
X18270000Y-32159523D01*
X18317619Y-32111904D01*
X18412857Y-32064285D01*
X18650952Y-32064285D01*
X18746190Y-32111904D01*
X18793809Y-32159523D01*
X18841428Y-32254761D01*
X18841428Y-32445238D01*
X18793809Y-32540476D01*
X18746190Y-32588095D01*
X18650952Y-32635714D01*
X16997142Y-31657142D02*
X17044761Y-31609523D01*
X17092380Y-31466666D01*
X17092380Y-31371428D01*
X17044761Y-31228571D01*
X16949523Y-31133333D01*
X16854285Y-31085714D01*
X16663809Y-31038095D01*
X16520952Y-31038095D01*
X16330476Y-31085714D01*
X16235238Y-31133333D01*
X16140000Y-31228571D01*
X16092380Y-31371428D01*
X16092380Y-31466666D01*
X16140000Y-31609523D01*
X16187619Y-31657142D01*
X17092380Y-32609523D02*
X17092380Y-32038095D01*
X17092380Y-32323809D02*
X16092380Y-32323809D01*
X16235238Y-32228571D01*
X16330476Y-32133333D01*
X16378095Y-32038095D01*
X17092380Y-33561904D02*
X17092380Y-32990476D01*
X17092380Y-33276190D02*
X16092380Y-33276190D01*
X16235238Y-33180952D01*
X16330476Y-33085714D01*
X16378095Y-32990476D01*
X27421904Y-26012380D02*
X27421904Y-26821904D01*
X27374285Y-26917142D01*
X27326666Y-26964761D01*
X27231428Y-27012380D01*
X27040952Y-27012380D01*
X26945714Y-26964761D01*
X26898095Y-26917142D01*
X26850476Y-26821904D01*
X26850476Y-26012380D01*
X25850476Y-27012380D02*
X26421904Y-27012380D01*
X26136190Y-27012380D02*
X26136190Y-26012380D01*
X26231428Y-26155238D01*
X26326666Y-26250476D01*
X26421904Y-26298095D01*
X14993333Y-13038571D02*
X15326666Y-13038571D01*
X15326666Y-13562380D02*
X15326666Y-12562380D01*
X14850476Y-12562380D01*
X14279047Y-12562380D02*
X14183809Y-12562380D01*
X14088571Y-12610000D01*
X14040952Y-12657619D01*
X13993333Y-12752857D01*
X13945714Y-12943333D01*
X13945714Y-13181428D01*
X13993333Y-13371904D01*
X14040952Y-13467142D01*
X14088571Y-13514761D01*
X14183809Y-13562380D01*
X14279047Y-13562380D01*
X14374285Y-13514761D01*
X14421904Y-13467142D01*
X14469523Y-13371904D01*
X14517142Y-13181428D01*
X14517142Y-12943333D01*
X14469523Y-12752857D01*
X14421904Y-12657619D01*
X14374285Y-12610000D01*
X14279047Y-12562380D01*
X29271522Y-41054026D02*
X29843942Y-41626446D01*
X29877614Y-41727461D01*
X29877614Y-41794805D01*
X29843942Y-41895820D01*
X29709255Y-42030507D01*
X29608240Y-42064179D01*
X29540896Y-42064179D01*
X29439881Y-42030507D01*
X28867461Y-41458087D01*
X28598087Y-41727461D02*
X28160355Y-42165194D01*
X28665431Y-42198866D01*
X28564416Y-42299881D01*
X28530744Y-42400896D01*
X28530744Y-42468240D01*
X28564416Y-42569255D01*
X28732774Y-42737614D01*
X28833790Y-42771286D01*
X28901133Y-42771286D01*
X29002148Y-42737614D01*
X29204179Y-42535583D01*
X29237851Y-42434568D01*
X29237851Y-42367225D01*
X25098095Y-13712380D02*
X25098095Y-14521904D01*
X25050476Y-14617142D01*
X25002857Y-14664761D01*
X24907619Y-14712380D01*
X24717142Y-14712380D01*
X24621904Y-14664761D01*
X24574285Y-14617142D01*
X24526666Y-14521904D01*
X24526666Y-13712380D01*
X23621904Y-14045714D02*
X23621904Y-14712380D01*
X23860000Y-13664761D02*
X24098095Y-14379047D01*
X23479047Y-14379047D01*
X22669523Y-14045714D02*
X22669523Y-14712380D01*
X22907619Y-13664761D02*
X23145714Y-14379047D01*
X22526666Y-14379047D01*
X23805732Y-49986030D02*
X23704717Y-49413610D01*
X24209793Y-49581969D02*
X23502687Y-48874862D01*
X23233312Y-49144236D01*
X23199641Y-49245251D01*
X23199641Y-49312595D01*
X23233312Y-49413610D01*
X23334328Y-49514625D01*
X23435343Y-49548297D01*
X23502687Y-49548297D01*
X23603702Y-49514625D01*
X23873076Y-49245251D01*
X22458862Y-49918687D02*
X22795580Y-49581969D01*
X23165969Y-49885015D01*
X23098625Y-49885015D01*
X22997610Y-49918687D01*
X22829251Y-50087045D01*
X22795580Y-50188061D01*
X22795580Y-50255404D01*
X22829251Y-50356419D01*
X22997610Y-50524778D01*
X23098625Y-50558450D01*
X23165969Y-50558450D01*
X23266984Y-50524778D01*
X23435343Y-50356419D01*
X23469015Y-50255404D01*
X23469015Y-50188061D01*
X18943333Y-2412380D02*
X18943333Y-3126666D01*
X18990952Y-3269523D01*
X19086190Y-3364761D01*
X19229047Y-3412380D01*
X19324285Y-3412380D01*
X18276666Y-2412380D02*
X18181428Y-2412380D01*
X18086190Y-2460000D01*
X18038571Y-2507619D01*
X17990952Y-2602857D01*
X17943333Y-2793333D01*
X17943333Y-3031428D01*
X17990952Y-3221904D01*
X18038571Y-3317142D01*
X18086190Y-3364761D01*
X18181428Y-3412380D01*
X18276666Y-3412380D01*
X18371904Y-3364761D01*
X18419523Y-3317142D01*
X18467142Y-3221904D01*
X18514761Y-3031428D01*
X18514761Y-2793333D01*
X18467142Y-2602857D01*
X18419523Y-2507619D01*
X18371904Y-2460000D01*
X18276666Y-2412380D01*
X18500388Y-57554687D02*
X18567731Y-57554687D01*
X18702418Y-57487343D01*
X18769762Y-57420000D01*
X18837105Y-57285312D01*
X18837105Y-57150625D01*
X18803434Y-57049610D01*
X18702418Y-56881251D01*
X18601403Y-56780236D01*
X18433044Y-56679221D01*
X18332029Y-56645549D01*
X18197342Y-56645549D01*
X18062655Y-56712893D01*
X17995311Y-56780236D01*
X17927968Y-56914923D01*
X17927968Y-56982267D01*
X17624922Y-57150625D02*
X17153518Y-57622030D01*
X18163670Y-58026091D01*
X31437106Y-37657969D02*
X31504450Y-37657969D01*
X31639137Y-37590625D01*
X31706480Y-37523282D01*
X31773824Y-37388595D01*
X31773824Y-37253908D01*
X31740152Y-37152893D01*
X31639137Y-36984534D01*
X31538122Y-36883519D01*
X31369763Y-36782503D01*
X31268748Y-36748832D01*
X31134061Y-36748832D01*
X30999374Y-36816175D01*
X30932030Y-36883519D01*
X30864687Y-37018206D01*
X30864687Y-37085549D01*
X30831015Y-38398748D02*
X31235076Y-37994687D01*
X31033045Y-38196717D02*
X30325938Y-37489610D01*
X30494297Y-37523282D01*
X30628984Y-37523282D01*
X30730000Y-37489610D01*
X29686175Y-38129374D02*
X29618832Y-38196717D01*
X29585160Y-38297732D01*
X29585160Y-38365076D01*
X29618832Y-38466091D01*
X29719847Y-38634450D01*
X29888206Y-38802809D01*
X30056564Y-38903824D01*
X30157580Y-38937496D01*
X30224923Y-38937496D01*
X30325938Y-38903824D01*
X30393282Y-38836480D01*
X30426954Y-38735465D01*
X30426954Y-38668122D01*
X30393282Y-38567106D01*
X30292267Y-38398748D01*
X30123908Y-38230389D01*
X29955549Y-38129374D01*
X29854534Y-38095702D01*
X29787190Y-38095702D01*
X29686175Y-38129374D01*
X113872857Y-91852380D02*
X114349047Y-91852380D01*
X114349047Y-90852380D01*
X113587142Y-91804761D02*
X113444285Y-91852380D01*
X113206190Y-91852380D01*
X113110952Y-91804761D01*
X113063333Y-91757142D01*
X113015714Y-91661904D01*
X113015714Y-91566666D01*
X113063333Y-91471428D01*
X113110952Y-91423809D01*
X113206190Y-91376190D01*
X113396666Y-91328571D01*
X113491904Y-91280952D01*
X113539523Y-91233333D01*
X113587142Y-91138095D01*
X113587142Y-91042857D01*
X113539523Y-90947619D01*
X113491904Y-90900000D01*
X113396666Y-90852380D01*
X113158571Y-90852380D01*
X113015714Y-90900000D01*
X112396666Y-90852380D02*
X112301428Y-90852380D01*
X112206190Y-90900000D01*
X112158571Y-90947619D01*
X112110952Y-91042857D01*
X112063333Y-91233333D01*
X112063333Y-91471428D01*
X112110952Y-91661904D01*
X112158571Y-91757142D01*
X112206190Y-91804761D01*
X112301428Y-91852380D01*
X112396666Y-91852380D01*
X112491904Y-91804761D01*
X112539523Y-91757142D01*
X112587142Y-91661904D01*
X112634761Y-91471428D01*
X112634761Y-91233333D01*
X112587142Y-91042857D01*
X112539523Y-90947619D01*
X112491904Y-90900000D01*
X112396666Y-90852380D01*
X14967142Y-31697142D02*
X15014761Y-31649523D01*
X15062380Y-31506666D01*
X15062380Y-31411428D01*
X15014761Y-31268571D01*
X14919523Y-31173333D01*
X14824285Y-31125714D01*
X14633809Y-31078095D01*
X14490952Y-31078095D01*
X14300476Y-31125714D01*
X14205238Y-31173333D01*
X14110000Y-31268571D01*
X14062380Y-31411428D01*
X14062380Y-31506666D01*
X14110000Y-31649523D01*
X14157619Y-31697142D01*
X15062380Y-32649523D02*
X15062380Y-32078095D01*
X15062380Y-32363809D02*
X14062380Y-32363809D01*
X14205238Y-32268571D01*
X14300476Y-32173333D01*
X14348095Y-32078095D01*
X14157619Y-33030476D02*
X14110000Y-33078095D01*
X14062380Y-33173333D01*
X14062380Y-33411428D01*
X14110000Y-33506666D01*
X14157619Y-33554285D01*
X14252857Y-33601904D01*
X14348095Y-33601904D01*
X14490952Y-33554285D01*
X15062380Y-32982857D01*
X15062380Y-33601904D01*
G36*
X150766649Y-74719117D02*
G01*
X150761473Y-74769356D01*
X150753327Y-74807969D01*
X150737301Y-74846593D01*
X150702276Y-74896950D01*
X150655975Y-74938223D01*
X150601299Y-74968007D01*
X150541149Y-74983896D01*
X150479275Y-74987271D01*
X150423798Y-74979012D01*
X150368272Y-74958111D01*
X150318822Y-74927353D01*
X150275671Y-74882274D01*
X150242652Y-74824024D01*
X150237524Y-74810883D01*
X150232688Y-74792939D01*
X150229431Y-74770610D01*
X150227462Y-74740759D01*
X150226492Y-74700251D01*
X150226235Y-74646273D01*
X150357653Y-74646273D01*
X150357885Y-74685712D01*
X150359285Y-74718929D01*
X150362463Y-74743147D01*
X150368010Y-74762606D01*
X150376517Y-74781546D01*
X150382862Y-74792620D01*
X150401724Y-74817006D01*
X150420967Y-74833185D01*
X150452800Y-74846653D01*
X150498273Y-74853097D01*
X150541452Y-74845759D01*
X150579342Y-74825809D01*
X150608949Y-74794413D01*
X150627276Y-74752741D01*
X150632972Y-74718338D01*
X150636085Y-74672327D01*
X150636233Y-74622866D01*
X150633405Y-74576659D01*
X150627591Y-74540413D01*
X150611066Y-74501699D01*
X150583475Y-74470726D01*
X150548519Y-74450065D01*
X150509359Y-74440053D01*
X150469155Y-74441028D01*
X150431066Y-74453329D01*
X150398254Y-74477294D01*
X150373877Y-74513260D01*
X150372004Y-74517546D01*
X150365063Y-74538566D01*
X150360686Y-74564325D01*
X150358381Y-74598876D01*
X150357653Y-74646273D01*
X150226235Y-74646273D01*
X150226233Y-74645950D01*
X150226389Y-74601788D01*
X150227185Y-74558648D01*
X150228921Y-74526822D01*
X150231884Y-74503175D01*
X150236365Y-74484572D01*
X150242652Y-74467876D01*
X150253926Y-74444775D01*
X150292013Y-74391245D01*
X150340342Y-74349642D01*
X150396835Y-74320840D01*
X150459412Y-74305711D01*
X150525995Y-74305131D01*
X150594503Y-74319973D01*
X150603451Y-74323228D01*
X150651097Y-74349599D01*
X150694693Y-74387704D01*
X150729973Y-74433184D01*
X150752672Y-74481678D01*
X150757862Y-74502725D01*
X150764462Y-74549054D01*
X150768134Y-74603923D01*
X150768372Y-74622866D01*
X150768866Y-74662292D01*
X150766649Y-74719117D01*
G37*
D14*
X150766649Y-74719117D02*
X150761473Y-74769356D01*
X150753327Y-74807969D01*
X150737301Y-74846593D01*
X150702276Y-74896950D01*
X150655975Y-74938223D01*
X150601299Y-74968007D01*
X150541149Y-74983896D01*
X150479275Y-74987271D01*
X150423798Y-74979012D01*
X150368272Y-74958111D01*
X150318822Y-74927353D01*
X150275671Y-74882274D01*
X150242652Y-74824024D01*
X150237524Y-74810883D01*
X150232688Y-74792939D01*
X150229431Y-74770610D01*
X150227462Y-74740759D01*
X150226492Y-74700251D01*
X150226235Y-74646273D01*
X150357653Y-74646273D01*
X150357885Y-74685712D01*
X150359285Y-74718929D01*
X150362463Y-74743147D01*
X150368010Y-74762606D01*
X150376517Y-74781546D01*
X150382862Y-74792620D01*
X150401724Y-74817006D01*
X150420967Y-74833185D01*
X150452800Y-74846653D01*
X150498273Y-74853097D01*
X150541452Y-74845759D01*
X150579342Y-74825809D01*
X150608949Y-74794413D01*
X150627276Y-74752741D01*
X150632972Y-74718338D01*
X150636085Y-74672327D01*
X150636233Y-74622866D01*
X150633405Y-74576659D01*
X150627591Y-74540413D01*
X150611066Y-74501699D01*
X150583475Y-74470726D01*
X150548519Y-74450065D01*
X150509359Y-74440053D01*
X150469155Y-74441028D01*
X150431066Y-74453329D01*
X150398254Y-74477294D01*
X150373877Y-74513260D01*
X150372004Y-74517546D01*
X150365063Y-74538566D01*
X150360686Y-74564325D01*
X150358381Y-74598876D01*
X150357653Y-74646273D01*
X150226235Y-74646273D01*
X150226233Y-74645950D01*
X150226389Y-74601788D01*
X150227185Y-74558648D01*
X150228921Y-74526822D01*
X150231884Y-74503175D01*
X150236365Y-74484572D01*
X150242652Y-74467876D01*
X150253926Y-74444775D01*
X150292013Y-74391245D01*
X150340342Y-74349642D01*
X150396835Y-74320840D01*
X150459412Y-74305711D01*
X150525995Y-74305131D01*
X150594503Y-74319973D01*
X150603451Y-74323228D01*
X150651097Y-74349599D01*
X150694693Y-74387704D01*
X150729973Y-74433184D01*
X150752672Y-74481678D01*
X150757862Y-74502725D01*
X150764462Y-74549054D01*
X150768134Y-74603923D01*
X150768372Y-74622866D01*
X150768866Y-74662292D01*
X150766649Y-74719117D01*
G36*
X147366369Y-75602684D02*
G01*
X147370041Y-75613976D01*
X147389076Y-75671926D01*
X147406458Y-75723888D01*
X147421486Y-75767832D01*
X147433457Y-75801731D01*
X147441672Y-75823557D01*
X147445428Y-75831283D01*
X147445657Y-75831119D01*
X147449613Y-75821127D01*
X147457241Y-75797141D01*
X147467936Y-75761231D01*
X147481091Y-75715471D01*
X147496100Y-75661931D01*
X147512355Y-75602684D01*
X147574432Y-75374084D01*
X147645720Y-75374084D01*
X147678627Y-75374244D01*
X147700102Y-75375332D01*
X147710625Y-75378244D01*
X147713278Y-75383879D01*
X147711146Y-75393134D01*
X147710758Y-75394387D01*
X147704778Y-75413384D01*
X147693687Y-75448292D01*
X147677546Y-75498923D01*
X147656415Y-75565090D01*
X147630354Y-75646605D01*
X147599422Y-75743280D01*
X147563680Y-75854928D01*
X147503243Y-76043673D01*
X147443334Y-76041195D01*
X147383424Y-76038717D01*
X147313429Y-75805883D01*
X147298220Y-75755505D01*
X147280633Y-75698187D01*
X147266806Y-75654684D01*
X147256209Y-75623564D01*
X147248316Y-75603391D01*
X147242598Y-75592732D01*
X147238529Y-75590152D01*
X147235581Y-75594217D01*
X147231810Y-75605701D01*
X147223728Y-75631827D01*
X147212268Y-75669644D01*
X147198157Y-75716739D01*
X147182119Y-75770704D01*
X147164881Y-75829127D01*
X147102034Y-76042870D01*
X146980468Y-76042950D01*
X146967184Y-75998500D01*
X146962842Y-75984379D01*
X146953401Y-75954308D01*
X146940045Y-75912124D01*
X146923474Y-75860023D01*
X146904385Y-75800202D01*
X146883477Y-75734857D01*
X146861449Y-75666184D01*
X146768998Y-75378317D01*
X146837084Y-75375841D01*
X146846438Y-75375538D01*
X146877040Y-75375112D01*
X146899312Y-75375678D01*
X146908964Y-75377158D01*
X146910114Y-75379847D01*
X146915338Y-75396245D01*
X146923940Y-75425414D01*
X146935240Y-75464989D01*
X146948558Y-75512607D01*
X146963214Y-75565901D01*
X146968975Y-75586997D01*
X146984300Y-75642937D01*
X146998657Y-75695087D01*
X147011175Y-75740308D01*
X147020989Y-75775464D01*
X147027230Y-75797417D01*
X147040790Y-75843983D01*
X147051889Y-75810117D01*
X147055327Y-75799567D01*
X147064095Y-75772521D01*
X147076594Y-75733886D01*
X147091960Y-75686334D01*
X147109330Y-75632537D01*
X147127839Y-75575167D01*
X147192689Y-75374084D01*
X147292160Y-75374084D01*
X147366369Y-75602684D01*
G37*
X147366369Y-75602684D02*
X147370041Y-75613976D01*
X147389076Y-75671926D01*
X147406458Y-75723888D01*
X147421486Y-75767832D01*
X147433457Y-75801731D01*
X147441672Y-75823557D01*
X147445428Y-75831283D01*
X147445657Y-75831119D01*
X147449613Y-75821127D01*
X147457241Y-75797141D01*
X147467936Y-75761231D01*
X147481091Y-75715471D01*
X147496100Y-75661931D01*
X147512355Y-75602684D01*
X147574432Y-75374084D01*
X147645720Y-75374084D01*
X147678627Y-75374244D01*
X147700102Y-75375332D01*
X147710625Y-75378244D01*
X147713278Y-75383879D01*
X147711146Y-75393134D01*
X147710758Y-75394387D01*
X147704778Y-75413384D01*
X147693687Y-75448292D01*
X147677546Y-75498923D01*
X147656415Y-75565090D01*
X147630354Y-75646605D01*
X147599422Y-75743280D01*
X147563680Y-75854928D01*
X147503243Y-76043673D01*
X147443334Y-76041195D01*
X147383424Y-76038717D01*
X147313429Y-75805883D01*
X147298220Y-75755505D01*
X147280633Y-75698187D01*
X147266806Y-75654684D01*
X147256209Y-75623564D01*
X147248316Y-75603391D01*
X147242598Y-75592732D01*
X147238529Y-75590152D01*
X147235581Y-75594217D01*
X147231810Y-75605701D01*
X147223728Y-75631827D01*
X147212268Y-75669644D01*
X147198157Y-75716739D01*
X147182119Y-75770704D01*
X147164881Y-75829127D01*
X147102034Y-76042870D01*
X146980468Y-76042950D01*
X146967184Y-75998500D01*
X146962842Y-75984379D01*
X146953401Y-75954308D01*
X146940045Y-75912124D01*
X146923474Y-75860023D01*
X146904385Y-75800202D01*
X146883477Y-75734857D01*
X146861449Y-75666184D01*
X146768998Y-75378317D01*
X146837084Y-75375841D01*
X146846438Y-75375538D01*
X146877040Y-75375112D01*
X146899312Y-75375678D01*
X146908964Y-75377158D01*
X146910114Y-75379847D01*
X146915338Y-75396245D01*
X146923940Y-75425414D01*
X146935240Y-75464989D01*
X146948558Y-75512607D01*
X146963214Y-75565901D01*
X146968975Y-75586997D01*
X146984300Y-75642937D01*
X146998657Y-75695087D01*
X147011175Y-75740308D01*
X147020989Y-75775464D01*
X147027230Y-75797417D01*
X147040790Y-75843983D01*
X147051889Y-75810117D01*
X147055327Y-75799567D01*
X147064095Y-75772521D01*
X147076594Y-75733886D01*
X147091960Y-75686334D01*
X147109330Y-75632537D01*
X147127839Y-75575167D01*
X147192689Y-75374084D01*
X147292160Y-75374084D01*
X147366369Y-75602684D01*
G36*
X145201356Y-74307504D02*
G01*
X145264866Y-74322296D01*
X145322947Y-74349603D01*
X145372274Y-74389102D01*
X145395937Y-74417928D01*
X145427203Y-74474764D01*
X145448525Y-74540302D01*
X145459480Y-74611139D01*
X145459645Y-74683870D01*
X145448599Y-74755091D01*
X145425919Y-74821400D01*
X145424193Y-74825116D01*
X145387593Y-74883971D01*
X145339723Y-74930819D01*
X145282112Y-74964475D01*
X145216285Y-74983757D01*
X145213809Y-74984165D01*
X145140925Y-74987715D01*
X145070993Y-74974815D01*
X145005304Y-74945858D01*
X144945150Y-74901237D01*
X144941534Y-74897840D01*
X144927536Y-74882891D01*
X144921867Y-74873621D01*
X144921896Y-74873374D01*
X144928630Y-74864586D01*
X144944898Y-74848535D01*
X144967385Y-74828505D01*
X145012904Y-74789618D01*
X145055292Y-74818143D01*
X145090787Y-74837672D01*
X145140893Y-74851936D01*
X145189620Y-74851668D01*
X145234466Y-74837370D01*
X145272926Y-74809541D01*
X145302498Y-74768684D01*
X145306801Y-74760072D01*
X145315738Y-74738322D01*
X145320968Y-74715591D01*
X145323422Y-74686570D01*
X145324033Y-74645950D01*
X145323967Y-74629658D01*
X145322800Y-74593825D01*
X145319453Y-74567680D01*
X145312997Y-74545913D01*
X145302498Y-74523216D01*
X145278453Y-74488484D01*
X145241288Y-74458917D01*
X145197269Y-74442433D01*
X145149066Y-74439528D01*
X145099350Y-74450699D01*
X145050789Y-74476442D01*
X145013457Y-74502756D01*
X144967662Y-74463632D01*
X144965803Y-74462038D01*
X144943597Y-74442136D01*
X144927850Y-74426459D01*
X144921867Y-74418280D01*
X144922009Y-74417337D01*
X144929917Y-74406066D01*
X144947133Y-74389072D01*
X144969743Y-74369945D01*
X144993833Y-74352274D01*
X145011509Y-74341452D01*
X145071353Y-74316758D01*
X145135743Y-74305550D01*
X145201356Y-74307504D01*
G37*
X145201356Y-74307504D02*
X145264866Y-74322296D01*
X145322947Y-74349603D01*
X145372274Y-74389102D01*
X145395937Y-74417928D01*
X145427203Y-74474764D01*
X145448525Y-74540302D01*
X145459480Y-74611139D01*
X145459645Y-74683870D01*
X145448599Y-74755091D01*
X145425919Y-74821400D01*
X145424193Y-74825116D01*
X145387593Y-74883971D01*
X145339723Y-74930819D01*
X145282112Y-74964475D01*
X145216285Y-74983757D01*
X145213809Y-74984165D01*
X145140925Y-74987715D01*
X145070993Y-74974815D01*
X145005304Y-74945858D01*
X144945150Y-74901237D01*
X144941534Y-74897840D01*
X144927536Y-74882891D01*
X144921867Y-74873621D01*
X144921896Y-74873374D01*
X144928630Y-74864586D01*
X144944898Y-74848535D01*
X144967385Y-74828505D01*
X145012904Y-74789618D01*
X145055292Y-74818143D01*
X145090787Y-74837672D01*
X145140893Y-74851936D01*
X145189620Y-74851668D01*
X145234466Y-74837370D01*
X145272926Y-74809541D01*
X145302498Y-74768684D01*
X145306801Y-74760072D01*
X145315738Y-74738322D01*
X145320968Y-74715591D01*
X145323422Y-74686570D01*
X145324033Y-74645950D01*
X145323967Y-74629658D01*
X145322800Y-74593825D01*
X145319453Y-74567680D01*
X145312997Y-74545913D01*
X145302498Y-74523216D01*
X145278453Y-74488484D01*
X145241288Y-74458917D01*
X145197269Y-74442433D01*
X145149066Y-74439528D01*
X145099350Y-74450699D01*
X145050789Y-74476442D01*
X145013457Y-74502756D01*
X144967662Y-74463632D01*
X144965803Y-74462038D01*
X144943597Y-74442136D01*
X144927850Y-74426459D01*
X144921867Y-74418280D01*
X144922009Y-74417337D01*
X144929917Y-74406066D01*
X144947133Y-74389072D01*
X144969743Y-74369945D01*
X144993833Y-74352274D01*
X145011509Y-74341452D01*
X145071353Y-74316758D01*
X145135743Y-74305550D01*
X145201356Y-74307504D01*
G36*
X147573248Y-69278087D02*
G01*
X147653159Y-69278196D01*
X147718133Y-69278500D01*
X147769766Y-69279062D01*
X147809655Y-69279946D01*
X147839397Y-69281215D01*
X147860589Y-69282930D01*
X147874827Y-69285156D01*
X147883708Y-69287954D01*
X147888829Y-69291388D01*
X147896785Y-69300646D01*
X147902133Y-69311205D01*
X147902166Y-69311600D01*
X147904095Y-69323385D01*
X147908753Y-69349687D01*
X147915801Y-69388647D01*
X147924900Y-69438407D01*
X147935710Y-69497111D01*
X147947892Y-69562902D01*
X147961106Y-69633921D01*
X147969301Y-69677656D01*
X147984505Y-69757313D01*
X147997325Y-69822059D01*
X148008034Y-69873105D01*
X148016904Y-69911664D01*
X148024205Y-69938947D01*
X148030210Y-69956167D01*
X148035189Y-69964535D01*
X148041780Y-69969091D01*
X148063220Y-69980275D01*
X148095983Y-69995452D01*
X148137626Y-70013652D01*
X148185705Y-70033901D01*
X148237777Y-70055227D01*
X148291400Y-70076658D01*
X148344130Y-70097223D01*
X148393523Y-70115948D01*
X148437138Y-70131863D01*
X148472531Y-70143994D01*
X148497258Y-70151370D01*
X148508877Y-70153018D01*
X148509419Y-70152788D01*
X148521310Y-70145766D01*
X148545316Y-70130362D01*
X148579802Y-70107665D01*
X148623134Y-70078762D01*
X148673679Y-70044744D01*
X148729803Y-70006699D01*
X148789873Y-69965716D01*
X148797719Y-69960349D01*
X148857273Y-69919783D01*
X148912608Y-69882387D01*
X148962101Y-69849234D01*
X149004135Y-69821398D01*
X149037088Y-69799953D01*
X149059341Y-69785973D01*
X149069273Y-69780531D01*
X149070277Y-69780554D01*
X149082001Y-69787594D01*
X149103438Y-69805099D01*
X149133019Y-69831486D01*
X149169172Y-69865176D01*
X149210327Y-69904589D01*
X149254912Y-69948143D01*
X149301358Y-69994259D01*
X149348094Y-70041355D01*
X149393549Y-70087851D01*
X149436152Y-70132166D01*
X149474333Y-70172721D01*
X149506521Y-70207934D01*
X149531146Y-70236224D01*
X149546636Y-70256012D01*
X149551421Y-70265716D01*
X149551300Y-70266088D01*
X149544906Y-70277559D01*
X149530052Y-70301165D01*
X149507824Y-70335266D01*
X149479312Y-70378220D01*
X149445603Y-70428388D01*
X149407785Y-70484129D01*
X149366948Y-70543804D01*
X149356734Y-70558683D01*
X149304149Y-70635964D01*
X149261496Y-70699936D01*
X149228627Y-70750833D01*
X149205391Y-70788893D01*
X149191641Y-70814349D01*
X149187227Y-70827437D01*
X149188237Y-70832819D01*
X149194954Y-70853630D01*
X149207058Y-70886075D01*
X149223486Y-70927667D01*
X149243176Y-70975920D01*
X149265065Y-71028347D01*
X149288091Y-71082461D01*
X149311190Y-71135777D01*
X149333302Y-71185807D01*
X149353362Y-71230066D01*
X149370308Y-71266067D01*
X149383078Y-71291324D01*
X149390610Y-71303350D01*
X149399421Y-71308145D01*
X149419600Y-71314683D01*
X149451822Y-71322892D01*
X149497021Y-71332981D01*
X149556131Y-71345159D01*
X149630088Y-71359632D01*
X149719825Y-71376609D01*
X149728701Y-71378269D01*
X149799184Y-71391560D01*
X149864310Y-71404032D01*
X149922194Y-71415310D01*
X149970956Y-71425019D01*
X150008711Y-71432785D01*
X150033578Y-71438234D01*
X150043675Y-71440992D01*
X150044869Y-71443206D01*
X150047281Y-71459341D01*
X150049238Y-71491086D01*
X150050749Y-71538706D01*
X150051819Y-71602464D01*
X150052456Y-71682623D01*
X150052667Y-71779446D01*
X150052618Y-71845914D01*
X150052374Y-71920294D01*
X150051879Y-71980334D01*
X150051083Y-72027512D01*
X150049934Y-72063306D01*
X150048380Y-72089195D01*
X150046371Y-72106656D01*
X150043856Y-72117167D01*
X150040782Y-72122207D01*
X150040755Y-72122229D01*
X150029806Y-72126022D01*
X150004151Y-72132429D01*
X149965728Y-72141040D01*
X149916475Y-72151447D01*
X149858328Y-72163239D01*
X149793224Y-72176007D01*
X149723102Y-72189342D01*
X149688543Y-72195859D01*
X149609325Y-72211184D01*
X149541504Y-72224886D01*
X149486142Y-72236734D01*
X149444299Y-72246496D01*
X149417037Y-72253939D01*
X149405417Y-72258832D01*
X149399214Y-72269199D01*
X149387710Y-72293485D01*
X149372171Y-72328973D01*
X149353557Y-72373228D01*
X149332826Y-72423817D01*
X149310940Y-72478307D01*
X149288858Y-72534262D01*
X149267540Y-72589250D01*
X149247945Y-72640836D01*
X149231034Y-72686587D01*
X149217766Y-72724068D01*
X149209102Y-72750847D01*
X149206000Y-72764488D01*
X149207187Y-72770362D01*
X149215043Y-72787959D01*
X149230644Y-72815596D01*
X149254442Y-72853996D01*
X149286893Y-72903881D01*
X149328450Y-72965976D01*
X149379567Y-73041002D01*
X149418149Y-73097605D01*
X149454903Y-73152219D01*
X149487392Y-73201202D01*
X149514537Y-73242900D01*
X149535261Y-73275655D01*
X149548486Y-73297812D01*
X149553133Y-73307714D01*
X149552726Y-73308923D01*
X149543971Y-73320607D01*
X149524781Y-73342452D01*
X149496448Y-73373095D01*
X149460265Y-73411172D01*
X149417523Y-73455319D01*
X149369517Y-73504172D01*
X149317536Y-73556367D01*
X149284066Y-73589709D01*
X149228377Y-73644864D01*
X149182907Y-73689338D01*
X149146608Y-73724086D01*
X149118433Y-73750061D01*
X149097335Y-73768217D01*
X149082265Y-73779507D01*
X149072176Y-73784885D01*
X149066020Y-73785304D01*
X149058202Y-73780875D01*
X149037427Y-73767654D01*
X149005861Y-73746897D01*
X148965220Y-73719751D01*
X148917216Y-73687362D01*
X148863566Y-73650876D01*
X148805982Y-73611440D01*
X148757687Y-73578489D01*
X148703182Y-73541895D01*
X148653951Y-73509481D01*
X148611716Y-73482350D01*
X148578198Y-73461604D01*
X148555119Y-73448348D01*
X148544201Y-73443683D01*
X148539969Y-73444437D01*
X148520996Y-73451364D01*
X148491656Y-73464376D01*
X148455072Y-73482046D01*
X148414367Y-73502950D01*
X148395756Y-73512691D01*
X148357237Y-73532244D01*
X148324687Y-73547956D01*
X148301078Y-73558417D01*
X148289384Y-73562217D01*
X148285456Y-73559899D01*
X148274535Y-73543988D01*
X148258543Y-73512776D01*
X148237359Y-73466018D01*
X148210862Y-73403467D01*
X148198258Y-73373023D01*
X148176922Y-73321503D01*
X148150888Y-73258650D01*
X148121165Y-73186899D01*
X148088760Y-73108683D01*
X148054683Y-73026436D01*
X148019940Y-72942592D01*
X147985542Y-72859586D01*
X147981555Y-72849960D01*
X147950188Y-72773908D01*
X147920974Y-72702511D01*
X147894539Y-72637337D01*
X147871508Y-72579952D01*
X147852507Y-72531924D01*
X147838161Y-72494818D01*
X147829095Y-72470202D01*
X147825933Y-72459643D01*
X147827868Y-72453578D01*
X147840589Y-72438387D01*
X147861340Y-72422478D01*
X147881486Y-72409513D01*
X147977740Y-72339164D01*
X148058363Y-72264289D01*
X148124205Y-72183712D01*
X148176115Y-72096256D01*
X148214944Y-72000745D01*
X148241540Y-71896001D01*
X148242899Y-71888135D01*
X148247572Y-71836582D01*
X148247661Y-71775871D01*
X148243518Y-71711952D01*
X148235495Y-71650771D01*
X148223943Y-71598278D01*
X148202328Y-71534217D01*
X148156291Y-71438377D01*
X148097450Y-71352024D01*
X148027149Y-71276173D01*
X147946732Y-71211838D01*
X147857541Y-71160034D01*
X147760922Y-71121775D01*
X147658215Y-71098075D01*
X147550767Y-71089950D01*
X147483338Y-71093129D01*
X147378686Y-71111077D01*
X147279614Y-71143966D01*
X147187466Y-71190784D01*
X147103583Y-71250514D01*
X147029311Y-71322143D01*
X146965993Y-71404657D01*
X146914971Y-71497039D01*
X146877590Y-71598278D01*
X146875261Y-71606840D01*
X146864320Y-71661341D01*
X146856971Y-71723456D01*
X146853566Y-71787236D01*
X146854456Y-71846734D01*
X146859993Y-71896001D01*
X146864149Y-71916688D01*
X146893007Y-72019585D01*
X146934258Y-72113474D01*
X146988752Y-72199530D01*
X147057340Y-72278932D01*
X147140870Y-72352856D01*
X147240193Y-72422478D01*
X147251769Y-72430595D01*
X147268886Y-72446722D01*
X147275600Y-72459643D01*
X147275551Y-72460132D01*
X147271627Y-72472510D01*
X147261876Y-72498751D01*
X147246922Y-72537289D01*
X147227390Y-72586556D01*
X147203906Y-72644986D01*
X147177094Y-72711013D01*
X147147581Y-72783068D01*
X147115991Y-72859586D01*
X147089544Y-72923406D01*
X147054792Y-73007272D01*
X147020473Y-73090100D01*
X146987595Y-73169455D01*
X146957168Y-73242903D01*
X146930200Y-73308011D01*
X146907698Y-73362343D01*
X146890672Y-73403467D01*
X146875261Y-73440245D01*
X146851737Y-73493976D01*
X146833457Y-73532051D01*
X146820302Y-73554716D01*
X146812150Y-73562217D01*
X146808519Y-73561411D01*
X146791060Y-73554419D01*
X146763033Y-73541406D01*
X146727411Y-73523779D01*
X146687167Y-73502950D01*
X146669115Y-73493531D01*
X146629823Y-73473862D01*
X146596013Y-73458047D01*
X146570808Y-73447512D01*
X146557333Y-73443683D01*
X146549103Y-73446955D01*
X146527914Y-73458869D01*
X146496001Y-73478453D01*
X146455087Y-73504606D01*
X146406893Y-73536224D01*
X146353141Y-73572203D01*
X146295552Y-73611440D01*
X146247555Y-73644329D01*
X146193113Y-73681399D01*
X146144025Y-73714568D01*
X146102007Y-73742689D01*
X146068773Y-73764616D01*
X146046037Y-73779203D01*
X146035514Y-73785304D01*
X146032727Y-73785645D01*
X146024650Y-73782757D01*
X146012092Y-73774413D01*
X145994007Y-73759659D01*
X145969346Y-73737542D01*
X145937063Y-73707107D01*
X145896109Y-73667403D01*
X145845436Y-73617474D01*
X145783998Y-73556367D01*
X145770111Y-73542489D01*
X145719044Y-73491036D01*
X145672287Y-73443280D01*
X145631134Y-73400587D01*
X145596877Y-73364320D01*
X145570807Y-73335843D01*
X145554217Y-73316520D01*
X145548400Y-73307714D01*
X145552751Y-73298345D01*
X145565710Y-73276567D01*
X145586203Y-73244135D01*
X145613153Y-73202707D01*
X145645482Y-73153937D01*
X145682113Y-73099484D01*
X145721967Y-73041002D01*
X145752684Y-72996047D01*
X145798224Y-72928579D01*
X145834466Y-72873625D01*
X145861864Y-72830462D01*
X145880872Y-72798367D01*
X145891944Y-72776617D01*
X145895533Y-72764488D01*
X145892886Y-72752413D01*
X145884620Y-72726571D01*
X145871677Y-72689835D01*
X145855015Y-72644642D01*
X145835595Y-72593423D01*
X145814377Y-72538613D01*
X145792319Y-72482645D01*
X145770384Y-72427954D01*
X145749529Y-72376974D01*
X145730715Y-72332137D01*
X145714901Y-72295879D01*
X145703049Y-72270633D01*
X145696116Y-72258832D01*
X145693423Y-72257200D01*
X145675433Y-72251262D01*
X145642225Y-72242865D01*
X145594859Y-72232243D01*
X145534398Y-72219627D01*
X145461901Y-72205249D01*
X145378431Y-72189342D01*
X145377770Y-72189218D01*
X145307685Y-72175887D01*
X145242637Y-72163125D01*
X145184563Y-72151344D01*
X145135400Y-72140952D01*
X145097085Y-72132359D01*
X145071557Y-72125974D01*
X145060752Y-72122207D01*
X145058380Y-72118857D01*
X145055732Y-72109829D01*
X145053603Y-72094214D01*
X145051942Y-72070535D01*
X145050699Y-72037314D01*
X145049820Y-71993073D01*
X145049256Y-71936333D01*
X145048956Y-71865617D01*
X145048867Y-71779446D01*
X145048907Y-71735207D01*
X145049302Y-71645675D01*
X145050127Y-71572692D01*
X145051388Y-71515996D01*
X145053093Y-71475323D01*
X145055247Y-71450409D01*
X145057859Y-71440992D01*
X145058237Y-71440812D01*
X145070236Y-71437706D01*
X145096777Y-71431954D01*
X145135976Y-71423930D01*
X145185952Y-71414010D01*
X145244821Y-71402567D01*
X145310701Y-71389975D01*
X145381709Y-71376609D01*
X145466308Y-71360618D01*
X145541224Y-71345994D01*
X145601235Y-71333679D01*
X145647276Y-71323465D01*
X145680282Y-71315145D01*
X145701186Y-71308509D01*
X145710924Y-71303350D01*
X145714101Y-71298934D01*
X145724475Y-71279753D01*
X145739538Y-71248627D01*
X145758228Y-71208044D01*
X145779482Y-71160488D01*
X145802237Y-71108448D01*
X145825431Y-71054409D01*
X145848002Y-71000857D01*
X145868886Y-70950279D01*
X145887021Y-70905162D01*
X145901345Y-70867992D01*
X145910794Y-70841254D01*
X145914307Y-70827437D01*
X145914194Y-70825977D01*
X145908115Y-70810698D01*
X145892688Y-70783041D01*
X145867760Y-70742763D01*
X145833180Y-70689625D01*
X145788794Y-70623386D01*
X145734449Y-70543804D01*
X145731105Y-70538939D01*
X145690400Y-70479326D01*
X145652822Y-70423584D01*
X145619461Y-70373383D01*
X145591409Y-70330394D01*
X145569758Y-70296289D01*
X145555599Y-70272739D01*
X145550023Y-70261415D01*
X145550375Y-70255277D01*
X145554507Y-70246023D01*
X145563539Y-70232912D01*
X145578503Y-70214806D01*
X145600430Y-70190568D01*
X145630353Y-70159060D01*
X145669303Y-70119143D01*
X145718313Y-70069679D01*
X145778413Y-70009531D01*
X145789656Y-69998324D01*
X145840973Y-69947558D01*
X145888620Y-69901040D01*
X145931222Y-69860069D01*
X145967408Y-69825943D01*
X145995803Y-69799961D01*
X146015034Y-69783419D01*
X146023729Y-69777617D01*
X146024320Y-69777721D01*
X146035912Y-69783711D01*
X146059569Y-69798158D01*
X146093687Y-69820010D01*
X146136660Y-69848216D01*
X146186885Y-69881725D01*
X146242756Y-69919484D01*
X146302670Y-69960442D01*
X146310202Y-69965617D01*
X146370119Y-70006619D01*
X146426077Y-70044627D01*
X146476414Y-70078533D01*
X146519471Y-70107229D01*
X146553588Y-70129609D01*
X146577102Y-70144564D01*
X146588356Y-70150988D01*
X146589521Y-70151388D01*
X146598989Y-70152144D01*
X146613933Y-70149671D01*
X146636035Y-70143396D01*
X146666976Y-70132747D01*
X146708439Y-70117151D01*
X146762105Y-70096035D01*
X146829656Y-70068828D01*
X146836746Y-70065947D01*
X146894464Y-70042184D01*
X146947289Y-70019895D01*
X146993053Y-70000036D01*
X147029587Y-69983562D01*
X147054722Y-69971428D01*
X147066289Y-69964591D01*
X147068443Y-69961794D01*
X147073866Y-69949443D01*
X147080459Y-69927578D01*
X147088491Y-69895002D01*
X147098231Y-69850515D01*
X147109945Y-69792921D01*
X147123903Y-69721019D01*
X147140373Y-69633612D01*
X147142425Y-69622601D01*
X147155507Y-69552225D01*
X147167507Y-69487373D01*
X147178084Y-69429899D01*
X147186902Y-69381655D01*
X147193619Y-69344495D01*
X147197898Y-69320273D01*
X147199400Y-69310841D01*
X147202070Y-69304488D01*
X147212705Y-69291388D01*
X147213719Y-69290467D01*
X147219630Y-69287198D01*
X147229699Y-69284549D01*
X147245525Y-69282456D01*
X147268703Y-69280858D01*
X147300830Y-69279692D01*
X147343503Y-69278894D01*
X147398319Y-69278402D01*
X147466875Y-69278153D01*
X147550767Y-69278084D01*
X147573248Y-69278087D01*
G37*
X147573248Y-69278087D02*
X147653159Y-69278196D01*
X147718133Y-69278500D01*
X147769766Y-69279062D01*
X147809655Y-69279946D01*
X147839397Y-69281215D01*
X147860589Y-69282930D01*
X147874827Y-69285156D01*
X147883708Y-69287954D01*
X147888829Y-69291388D01*
X147896785Y-69300646D01*
X147902133Y-69311205D01*
X147902166Y-69311600D01*
X147904095Y-69323385D01*
X147908753Y-69349687D01*
X147915801Y-69388647D01*
X147924900Y-69438407D01*
X147935710Y-69497111D01*
X147947892Y-69562902D01*
X147961106Y-69633921D01*
X147969301Y-69677656D01*
X147984505Y-69757313D01*
X147997325Y-69822059D01*
X148008034Y-69873105D01*
X148016904Y-69911664D01*
X148024205Y-69938947D01*
X148030210Y-69956167D01*
X148035189Y-69964535D01*
X148041780Y-69969091D01*
X148063220Y-69980275D01*
X148095983Y-69995452D01*
X148137626Y-70013652D01*
X148185705Y-70033901D01*
X148237777Y-70055227D01*
X148291400Y-70076658D01*
X148344130Y-70097223D01*
X148393523Y-70115948D01*
X148437138Y-70131863D01*
X148472531Y-70143994D01*
X148497258Y-70151370D01*
X148508877Y-70153018D01*
X148509419Y-70152788D01*
X148521310Y-70145766D01*
X148545316Y-70130362D01*
X148579802Y-70107665D01*
X148623134Y-70078762D01*
X148673679Y-70044744D01*
X148729803Y-70006699D01*
X148789873Y-69965716D01*
X148797719Y-69960349D01*
X148857273Y-69919783D01*
X148912608Y-69882387D01*
X148962101Y-69849234D01*
X149004135Y-69821398D01*
X149037088Y-69799953D01*
X149059341Y-69785973D01*
X149069273Y-69780531D01*
X149070277Y-69780554D01*
X149082001Y-69787594D01*
X149103438Y-69805099D01*
X149133019Y-69831486D01*
X149169172Y-69865176D01*
X149210327Y-69904589D01*
X149254912Y-69948143D01*
X149301358Y-69994259D01*
X149348094Y-70041355D01*
X149393549Y-70087851D01*
X149436152Y-70132166D01*
X149474333Y-70172721D01*
X149506521Y-70207934D01*
X149531146Y-70236224D01*
X149546636Y-70256012D01*
X149551421Y-70265716D01*
X149551300Y-70266088D01*
X149544906Y-70277559D01*
X149530052Y-70301165D01*
X149507824Y-70335266D01*
X149479312Y-70378220D01*
X149445603Y-70428388D01*
X149407785Y-70484129D01*
X149366948Y-70543804D01*
X149356734Y-70558683D01*
X149304149Y-70635964D01*
X149261496Y-70699936D01*
X149228627Y-70750833D01*
X149205391Y-70788893D01*
X149191641Y-70814349D01*
X149187227Y-70827437D01*
X149188237Y-70832819D01*
X149194954Y-70853630D01*
X149207058Y-70886075D01*
X149223486Y-70927667D01*
X149243176Y-70975920D01*
X149265065Y-71028347D01*
X149288091Y-71082461D01*
X149311190Y-71135777D01*
X149333302Y-71185807D01*
X149353362Y-71230066D01*
X149370308Y-71266067D01*
X149383078Y-71291324D01*
X149390610Y-71303350D01*
X149399421Y-71308145D01*
X149419600Y-71314683D01*
X149451822Y-71322892D01*
X149497021Y-71332981D01*
X149556131Y-71345159D01*
X149630088Y-71359632D01*
X149719825Y-71376609D01*
X149728701Y-71378269D01*
X149799184Y-71391560D01*
X149864310Y-71404032D01*
X149922194Y-71415310D01*
X149970956Y-71425019D01*
X150008711Y-71432785D01*
X150033578Y-71438234D01*
X150043675Y-71440992D01*
X150044869Y-71443206D01*
X150047281Y-71459341D01*
X150049238Y-71491086D01*
X150050749Y-71538706D01*
X150051819Y-71602464D01*
X150052456Y-71682623D01*
X150052667Y-71779446D01*
X150052618Y-71845914D01*
X150052374Y-71920294D01*
X150051879Y-71980334D01*
X150051083Y-72027512D01*
X150049934Y-72063306D01*
X150048380Y-72089195D01*
X150046371Y-72106656D01*
X150043856Y-72117167D01*
X150040782Y-72122207D01*
X150040755Y-72122229D01*
X150029806Y-72126022D01*
X150004151Y-72132429D01*
X149965728Y-72141040D01*
X149916475Y-72151447D01*
X149858328Y-72163239D01*
X149793224Y-72176007D01*
X149723102Y-72189342D01*
X149688543Y-72195859D01*
X149609325Y-72211184D01*
X149541504Y-72224886D01*
X149486142Y-72236734D01*
X149444299Y-72246496D01*
X149417037Y-72253939D01*
X149405417Y-72258832D01*
X149399214Y-72269199D01*
X149387710Y-72293485D01*
X149372171Y-72328973D01*
X149353557Y-72373228D01*
X149332826Y-72423817D01*
X149310940Y-72478307D01*
X149288858Y-72534262D01*
X149267540Y-72589250D01*
X149247945Y-72640836D01*
X149231034Y-72686587D01*
X149217766Y-72724068D01*
X149209102Y-72750847D01*
X149206000Y-72764488D01*
X149207187Y-72770362D01*
X149215043Y-72787959D01*
X149230644Y-72815596D01*
X149254442Y-72853996D01*
X149286893Y-72903881D01*
X149328450Y-72965976D01*
X149379567Y-73041002D01*
X149418149Y-73097605D01*
X149454903Y-73152219D01*
X149487392Y-73201202D01*
X149514537Y-73242900D01*
X149535261Y-73275655D01*
X149548486Y-73297812D01*
X149553133Y-73307714D01*
X149552726Y-73308923D01*
X149543971Y-73320607D01*
X149524781Y-73342452D01*
X149496448Y-73373095D01*
X149460265Y-73411172D01*
X149417523Y-73455319D01*
X149369517Y-73504172D01*
X149317536Y-73556367D01*
X149284066Y-73589709D01*
X149228377Y-73644864D01*
X149182907Y-73689338D01*
X149146608Y-73724086D01*
X149118433Y-73750061D01*
X149097335Y-73768217D01*
X149082265Y-73779507D01*
X149072176Y-73784885D01*
X149066020Y-73785304D01*
X149058202Y-73780875D01*
X149037427Y-73767654D01*
X149005861Y-73746897D01*
X148965220Y-73719751D01*
X148917216Y-73687362D01*
X148863566Y-73650876D01*
X148805982Y-73611440D01*
X148757687Y-73578489D01*
X148703182Y-73541895D01*
X148653951Y-73509481D01*
X148611716Y-73482350D01*
X148578198Y-73461604D01*
X148555119Y-73448348D01*
X148544201Y-73443683D01*
X148539969Y-73444437D01*
X148520996Y-73451364D01*
X148491656Y-73464376D01*
X148455072Y-73482046D01*
X148414367Y-73502950D01*
X148395756Y-73512691D01*
X148357237Y-73532244D01*
X148324687Y-73547956D01*
X148301078Y-73558417D01*
X148289384Y-73562217D01*
X148285456Y-73559899D01*
X148274535Y-73543988D01*
X148258543Y-73512776D01*
X148237359Y-73466018D01*
X148210862Y-73403467D01*
X148198258Y-73373023D01*
X148176922Y-73321503D01*
X148150888Y-73258650D01*
X148121165Y-73186899D01*
X148088760Y-73108683D01*
X148054683Y-73026436D01*
X148019940Y-72942592D01*
X147985542Y-72859586D01*
X147981555Y-72849960D01*
X147950188Y-72773908D01*
X147920974Y-72702511D01*
X147894539Y-72637337D01*
X147871508Y-72579952D01*
X147852507Y-72531924D01*
X147838161Y-72494818D01*
X147829095Y-72470202D01*
X147825933Y-72459643D01*
X147827868Y-72453578D01*
X147840589Y-72438387D01*
X147861340Y-72422478D01*
X147881486Y-72409513D01*
X147977740Y-72339164D01*
X148058363Y-72264289D01*
X148124205Y-72183712D01*
X148176115Y-72096256D01*
X148214944Y-72000745D01*
X148241540Y-71896001D01*
X148242899Y-71888135D01*
X148247572Y-71836582D01*
X148247661Y-71775871D01*
X148243518Y-71711952D01*
X148235495Y-71650771D01*
X148223943Y-71598278D01*
X148202328Y-71534217D01*
X148156291Y-71438377D01*
X148097450Y-71352024D01*
X148027149Y-71276173D01*
X147946732Y-71211838D01*
X147857541Y-71160034D01*
X147760922Y-71121775D01*
X147658215Y-71098075D01*
X147550767Y-71089950D01*
X147483338Y-71093129D01*
X147378686Y-71111077D01*
X147279614Y-71143966D01*
X147187466Y-71190784D01*
X147103583Y-71250514D01*
X147029311Y-71322143D01*
X146965993Y-71404657D01*
X146914971Y-71497039D01*
X146877590Y-71598278D01*
X146875261Y-71606840D01*
X146864320Y-71661341D01*
X146856971Y-71723456D01*
X146853566Y-71787236D01*
X146854456Y-71846734D01*
X146859993Y-71896001D01*
X146864149Y-71916688D01*
X146893007Y-72019585D01*
X146934258Y-72113474D01*
X146988752Y-72199530D01*
X147057340Y-72278932D01*
X147140870Y-72352856D01*
X147240193Y-72422478D01*
X147251769Y-72430595D01*
X147268886Y-72446722D01*
X147275600Y-72459643D01*
X147275551Y-72460132D01*
X147271627Y-72472510D01*
X147261876Y-72498751D01*
X147246922Y-72537289D01*
X147227390Y-72586556D01*
X147203906Y-72644986D01*
X147177094Y-72711013D01*
X147147581Y-72783068D01*
X147115991Y-72859586D01*
X147089544Y-72923406D01*
X147054792Y-73007272D01*
X147020473Y-73090100D01*
X146987595Y-73169455D01*
X146957168Y-73242903D01*
X146930200Y-73308011D01*
X146907698Y-73362343D01*
X146890672Y-73403467D01*
X146875261Y-73440245D01*
X146851737Y-73493976D01*
X146833457Y-73532051D01*
X146820302Y-73554716D01*
X146812150Y-73562217D01*
X146808519Y-73561411D01*
X146791060Y-73554419D01*
X146763033Y-73541406D01*
X146727411Y-73523779D01*
X146687167Y-73502950D01*
X146669115Y-73493531D01*
X146629823Y-73473862D01*
X146596013Y-73458047D01*
X146570808Y-73447512D01*
X146557333Y-73443683D01*
X146549103Y-73446955D01*
X146527914Y-73458869D01*
X146496001Y-73478453D01*
X146455087Y-73504606D01*
X146406893Y-73536224D01*
X146353141Y-73572203D01*
X146295552Y-73611440D01*
X146247555Y-73644329D01*
X146193113Y-73681399D01*
X146144025Y-73714568D01*
X146102007Y-73742689D01*
X146068773Y-73764616D01*
X146046037Y-73779203D01*
X146035514Y-73785304D01*
X146032727Y-73785645D01*
X146024650Y-73782757D01*
X146012092Y-73774413D01*
X145994007Y-73759659D01*
X145969346Y-73737542D01*
X145937063Y-73707107D01*
X145896109Y-73667403D01*
X145845436Y-73617474D01*
X145783998Y-73556367D01*
X145770111Y-73542489D01*
X145719044Y-73491036D01*
X145672287Y-73443280D01*
X145631134Y-73400587D01*
X145596877Y-73364320D01*
X145570807Y-73335843D01*
X145554217Y-73316520D01*
X145548400Y-73307714D01*
X145552751Y-73298345D01*
X145565710Y-73276567D01*
X145586203Y-73244135D01*
X145613153Y-73202707D01*
X145645482Y-73153937D01*
X145682113Y-73099484D01*
X145721967Y-73041002D01*
X145752684Y-72996047D01*
X145798224Y-72928579D01*
X145834466Y-72873625D01*
X145861864Y-72830462D01*
X145880872Y-72798367D01*
X145891944Y-72776617D01*
X145895533Y-72764488D01*
X145892886Y-72752413D01*
X145884620Y-72726571D01*
X145871677Y-72689835D01*
X145855015Y-72644642D01*
X145835595Y-72593423D01*
X145814377Y-72538613D01*
X145792319Y-72482645D01*
X145770384Y-72427954D01*
X145749529Y-72376974D01*
X145730715Y-72332137D01*
X145714901Y-72295879D01*
X145703049Y-72270633D01*
X145696116Y-72258832D01*
X145693423Y-72257200D01*
X145675433Y-72251262D01*
X145642225Y-72242865D01*
X145594859Y-72232243D01*
X145534398Y-72219627D01*
X145461901Y-72205249D01*
X145378431Y-72189342D01*
X145377770Y-72189218D01*
X145307685Y-72175887D01*
X145242637Y-72163125D01*
X145184563Y-72151344D01*
X145135400Y-72140952D01*
X145097085Y-72132359D01*
X145071557Y-72125974D01*
X145060752Y-72122207D01*
X145058380Y-72118857D01*
X145055732Y-72109829D01*
X145053603Y-72094214D01*
X145051942Y-72070535D01*
X145050699Y-72037314D01*
X145049820Y-71993073D01*
X145049256Y-71936333D01*
X145048956Y-71865617D01*
X145048867Y-71779446D01*
X145048907Y-71735207D01*
X145049302Y-71645675D01*
X145050127Y-71572692D01*
X145051388Y-71515996D01*
X145053093Y-71475323D01*
X145055247Y-71450409D01*
X145057859Y-71440992D01*
X145058237Y-71440812D01*
X145070236Y-71437706D01*
X145096777Y-71431954D01*
X145135976Y-71423930D01*
X145185952Y-71414010D01*
X145244821Y-71402567D01*
X145310701Y-71389975D01*
X145381709Y-71376609D01*
X145466308Y-71360618D01*
X145541224Y-71345994D01*
X145601235Y-71333679D01*
X145647276Y-71323465D01*
X145680282Y-71315145D01*
X145701186Y-71308509D01*
X145710924Y-71303350D01*
X145714101Y-71298934D01*
X145724475Y-71279753D01*
X145739538Y-71248627D01*
X145758228Y-71208044D01*
X145779482Y-71160488D01*
X145802237Y-71108448D01*
X145825431Y-71054409D01*
X145848002Y-71000857D01*
X145868886Y-70950279D01*
X145887021Y-70905162D01*
X145901345Y-70867992D01*
X145910794Y-70841254D01*
X145914307Y-70827437D01*
X145914194Y-70825977D01*
X145908115Y-70810698D01*
X145892688Y-70783041D01*
X145867760Y-70742763D01*
X145833180Y-70689625D01*
X145788794Y-70623386D01*
X145734449Y-70543804D01*
X145731105Y-70538939D01*
X145690400Y-70479326D01*
X145652822Y-70423584D01*
X145619461Y-70373383D01*
X145591409Y-70330394D01*
X145569758Y-70296289D01*
X145555599Y-70272739D01*
X145550023Y-70261415D01*
X145550375Y-70255277D01*
X145554507Y-70246023D01*
X145563539Y-70232912D01*
X145578503Y-70214806D01*
X145600430Y-70190568D01*
X145630353Y-70159060D01*
X145669303Y-70119143D01*
X145718313Y-70069679D01*
X145778413Y-70009531D01*
X145789656Y-69998324D01*
X145840973Y-69947558D01*
X145888620Y-69901040D01*
X145931222Y-69860069D01*
X145967408Y-69825943D01*
X145995803Y-69799961D01*
X146015034Y-69783419D01*
X146023729Y-69777617D01*
X146024320Y-69777721D01*
X146035912Y-69783711D01*
X146059569Y-69798158D01*
X146093687Y-69820010D01*
X146136660Y-69848216D01*
X146186885Y-69881725D01*
X146242756Y-69919484D01*
X146302670Y-69960442D01*
X146310202Y-69965617D01*
X146370119Y-70006619D01*
X146426077Y-70044627D01*
X146476414Y-70078533D01*
X146519471Y-70107229D01*
X146553588Y-70129609D01*
X146577102Y-70144564D01*
X146588356Y-70150988D01*
X146589521Y-70151388D01*
X146598989Y-70152144D01*
X146613933Y-70149671D01*
X146636035Y-70143396D01*
X146666976Y-70132747D01*
X146708439Y-70117151D01*
X146762105Y-70096035D01*
X146829656Y-70068828D01*
X146836746Y-70065947D01*
X146894464Y-70042184D01*
X146947289Y-70019895D01*
X146993053Y-70000036D01*
X147029587Y-69983562D01*
X147054722Y-69971428D01*
X147066289Y-69964591D01*
X147068443Y-69961794D01*
X147073866Y-69949443D01*
X147080459Y-69927578D01*
X147088491Y-69895002D01*
X147098231Y-69850515D01*
X147109945Y-69792921D01*
X147123903Y-69721019D01*
X147140373Y-69633612D01*
X147142425Y-69622601D01*
X147155507Y-69552225D01*
X147167507Y-69487373D01*
X147178084Y-69429899D01*
X147186902Y-69381655D01*
X147193619Y-69344495D01*
X147197898Y-69320273D01*
X147199400Y-69310841D01*
X147202070Y-69304488D01*
X147212705Y-69291388D01*
X147213719Y-69290467D01*
X147219630Y-69287198D01*
X147229699Y-69284549D01*
X147245525Y-69282456D01*
X147268703Y-69280858D01*
X147300830Y-69279692D01*
X147343503Y-69278894D01*
X147398319Y-69278402D01*
X147466875Y-69278153D01*
X147550767Y-69278084D01*
X147573248Y-69278087D01*
G36*
X149466934Y-75869706D02*
G01*
X149453607Y-75925788D01*
X149426282Y-75972409D01*
X149385275Y-76009127D01*
X149330903Y-76035501D01*
X149292601Y-76045715D01*
X149236681Y-76051475D01*
X149182407Y-76047528D01*
X149134129Y-76034306D01*
X149096196Y-76012239D01*
X149070534Y-75990645D01*
X149070534Y-76042950D01*
X148935067Y-76042950D01*
X148935067Y-75812466D01*
X149070534Y-75812466D01*
X149070555Y-75817244D01*
X149073607Y-75858087D01*
X149083032Y-75886014D01*
X149100563Y-75904139D01*
X149127933Y-75915574D01*
X149141679Y-75918668D01*
X149184095Y-75922933D01*
X149230498Y-75922066D01*
X149272170Y-75916040D01*
X149277584Y-75914630D01*
X149311646Y-75898049D01*
X149333655Y-75872303D01*
X149341467Y-75839750D01*
X149338386Y-75815932D01*
X149325558Y-75792889D01*
X149301517Y-75775901D01*
X149264935Y-75764385D01*
X149214488Y-75757762D01*
X149148850Y-75755452D01*
X149070534Y-75755084D01*
X149070534Y-75812466D01*
X148935067Y-75812466D01*
X148935067Y-75521342D01*
X148956237Y-75479463D01*
X148982171Y-75441143D01*
X149024628Y-75405953D01*
X149079663Y-75381872D01*
X149147105Y-75368970D01*
X149226785Y-75367320D01*
X149269362Y-75370548D01*
X149311182Y-75377897D01*
X149345700Y-75389874D01*
X149357443Y-75395584D01*
X149385102Y-75412004D01*
X149409891Y-75430217D01*
X149427745Y-75447046D01*
X149434600Y-75459317D01*
X149434565Y-75459571D01*
X149427441Y-75467799D01*
X149410342Y-75482729D01*
X149386735Y-75501321D01*
X149368379Y-75514786D01*
X149348232Y-75527322D01*
X149335048Y-75531087D01*
X149325352Y-75527568D01*
X149314071Y-75519830D01*
X149279041Y-75502847D01*
X149238748Y-75494649D01*
X149187948Y-75493951D01*
X149177891Y-75494468D01*
X149134543Y-75499203D01*
X149104883Y-75508887D01*
X149086334Y-75525629D01*
X149076320Y-75551542D01*
X149072263Y-75588737D01*
X149069760Y-75645017D01*
X149169630Y-75645149D01*
X149204219Y-75645805D01*
X149249570Y-75648264D01*
X149289727Y-75652111D01*
X149318823Y-75656886D01*
X149356903Y-75669277D01*
X149404250Y-75697828D01*
X149439283Y-75737269D01*
X149460970Y-75786309D01*
X149467783Y-75839750D01*
X149468281Y-75843661D01*
X149466934Y-75869706D01*
G37*
X149466934Y-75869706D02*
X149453607Y-75925788D01*
X149426282Y-75972409D01*
X149385275Y-76009127D01*
X149330903Y-76035501D01*
X149292601Y-76045715D01*
X149236681Y-76051475D01*
X149182407Y-76047528D01*
X149134129Y-76034306D01*
X149096196Y-76012239D01*
X149070534Y-75990645D01*
X149070534Y-76042950D01*
X148935067Y-76042950D01*
X148935067Y-75812466D01*
X149070534Y-75812466D01*
X149070555Y-75817244D01*
X149073607Y-75858087D01*
X149083032Y-75886014D01*
X149100563Y-75904139D01*
X149127933Y-75915574D01*
X149141679Y-75918668D01*
X149184095Y-75922933D01*
X149230498Y-75922066D01*
X149272170Y-75916040D01*
X149277584Y-75914630D01*
X149311646Y-75898049D01*
X149333655Y-75872303D01*
X149341467Y-75839750D01*
X149338386Y-75815932D01*
X149325558Y-75792889D01*
X149301517Y-75775901D01*
X149264935Y-75764385D01*
X149214488Y-75757762D01*
X149148850Y-75755452D01*
X149070534Y-75755084D01*
X149070534Y-75812466D01*
X148935067Y-75812466D01*
X148935067Y-75521342D01*
X148956237Y-75479463D01*
X148982171Y-75441143D01*
X149024628Y-75405953D01*
X149079663Y-75381872D01*
X149147105Y-75368970D01*
X149226785Y-75367320D01*
X149269362Y-75370548D01*
X149311182Y-75377897D01*
X149345700Y-75389874D01*
X149357443Y-75395584D01*
X149385102Y-75412004D01*
X149409891Y-75430217D01*
X149427745Y-75447046D01*
X149434600Y-75459317D01*
X149434565Y-75459571D01*
X149427441Y-75467799D01*
X149410342Y-75482729D01*
X149386735Y-75501321D01*
X149368379Y-75514786D01*
X149348232Y-75527322D01*
X149335048Y-75531087D01*
X149325352Y-75527568D01*
X149314071Y-75519830D01*
X149279041Y-75502847D01*
X149238748Y-75494649D01*
X149187948Y-75493951D01*
X149177891Y-75494468D01*
X149134543Y-75499203D01*
X149104883Y-75508887D01*
X149086334Y-75525629D01*
X149076320Y-75551542D01*
X149072263Y-75588737D01*
X149069760Y-75645017D01*
X149169630Y-75645149D01*
X149204219Y-75645805D01*
X149249570Y-75648264D01*
X149289727Y-75652111D01*
X149318823Y-75656886D01*
X149356903Y-75669277D01*
X149404250Y-75697828D01*
X149439283Y-75737269D01*
X149460970Y-75786309D01*
X149467783Y-75839750D01*
X149468281Y-75843661D01*
X149466934Y-75869706D01*
G36*
X147245203Y-74724373D02*
G01*
X147243585Y-74759640D01*
X147240760Y-74785877D01*
X147236456Y-74806206D01*
X147230398Y-74823750D01*
X147221977Y-74842174D01*
X147186812Y-74894606D01*
X147140605Y-74937299D01*
X147086341Y-74967898D01*
X147027012Y-74984046D01*
X146955941Y-74987239D01*
X146892066Y-74976145D01*
X146835219Y-74950249D01*
X146784189Y-74909178D01*
X146780009Y-74904931D01*
X146752659Y-74873687D01*
X146732518Y-74842046D01*
X146718589Y-74806730D01*
X146709875Y-74764460D01*
X146705378Y-74711960D01*
X146704100Y-74645950D01*
X146704103Y-74644318D01*
X146835381Y-74644318D01*
X146836274Y-74679855D01*
X146843795Y-74740707D01*
X146859170Y-74787291D01*
X146882648Y-74820226D01*
X146914479Y-74840130D01*
X146938254Y-74847530D01*
X146987836Y-74852511D01*
X147032532Y-74842693D01*
X147070291Y-74818729D01*
X147099058Y-74781276D01*
X147104277Y-74770039D01*
X147109472Y-74751901D01*
X147112671Y-74727553D01*
X147114287Y-74693425D01*
X147114734Y-74645950D01*
X147114543Y-74620054D01*
X147112319Y-74570448D01*
X147106886Y-74533280D01*
X147097351Y-74505484D01*
X147082826Y-74483994D01*
X147062419Y-74465744D01*
X147037556Y-74451495D01*
X146995434Y-74440782D01*
X146951687Y-74442436D01*
X146911102Y-74456054D01*
X146878467Y-74481232D01*
X146875000Y-74485291D01*
X146856183Y-74513604D01*
X146843981Y-74546998D01*
X146837383Y-74589294D01*
X146835381Y-74644318D01*
X146704103Y-74644318D01*
X146704120Y-74636394D01*
X146705763Y-74572346D01*
X146710757Y-74521375D01*
X146720100Y-74480206D01*
X146734788Y-74445559D01*
X146755818Y-74414157D01*
X146784189Y-74382723D01*
X146822124Y-74349704D01*
X146868628Y-74323452D01*
X146921332Y-74309073D01*
X146984422Y-74304941D01*
X147038846Y-74310489D01*
X147100525Y-74330828D01*
X147154382Y-74364796D01*
X147198359Y-74411025D01*
X147230398Y-74468150D01*
X147233832Y-74477257D01*
X147238929Y-74495882D01*
X147242418Y-74518942D01*
X147244572Y-74549557D01*
X147245664Y-74590852D01*
X147245967Y-74645950D01*
X147245888Y-74676952D01*
X147245203Y-74724373D01*
G37*
X147245203Y-74724373D02*
X147243585Y-74759640D01*
X147240760Y-74785877D01*
X147236456Y-74806206D01*
X147230398Y-74823750D01*
X147221977Y-74842174D01*
X147186812Y-74894606D01*
X147140605Y-74937299D01*
X147086341Y-74967898D01*
X147027012Y-74984046D01*
X146955941Y-74987239D01*
X146892066Y-74976145D01*
X146835219Y-74950249D01*
X146784189Y-74909178D01*
X146780009Y-74904931D01*
X146752659Y-74873687D01*
X146732518Y-74842046D01*
X146718589Y-74806730D01*
X146709875Y-74764460D01*
X146705378Y-74711960D01*
X146704100Y-74645950D01*
X146704103Y-74644318D01*
X146835381Y-74644318D01*
X146836274Y-74679855D01*
X146843795Y-74740707D01*
X146859170Y-74787291D01*
X146882648Y-74820226D01*
X146914479Y-74840130D01*
X146938254Y-74847530D01*
X146987836Y-74852511D01*
X147032532Y-74842693D01*
X147070291Y-74818729D01*
X147099058Y-74781276D01*
X147104277Y-74770039D01*
X147109472Y-74751901D01*
X147112671Y-74727553D01*
X147114287Y-74693425D01*
X147114734Y-74645950D01*
X147114543Y-74620054D01*
X147112319Y-74570448D01*
X147106886Y-74533280D01*
X147097351Y-74505484D01*
X147082826Y-74483994D01*
X147062419Y-74465744D01*
X147037556Y-74451495D01*
X146995434Y-74440782D01*
X146951687Y-74442436D01*
X146911102Y-74456054D01*
X146878467Y-74481232D01*
X146875000Y-74485291D01*
X146856183Y-74513604D01*
X146843981Y-74546998D01*
X146837383Y-74589294D01*
X146835381Y-74644318D01*
X146704103Y-74644318D01*
X146704120Y-74636394D01*
X146705763Y-74572346D01*
X146710757Y-74521375D01*
X146720100Y-74480206D01*
X146734788Y-74445559D01*
X146755818Y-74414157D01*
X146784189Y-74382723D01*
X146822124Y-74349704D01*
X146868628Y-74323452D01*
X146921332Y-74309073D01*
X146984422Y-74304941D01*
X147038846Y-74310489D01*
X147100525Y-74330828D01*
X147154382Y-74364796D01*
X147198359Y-74411025D01*
X147230398Y-74468150D01*
X147233832Y-74477257D01*
X147238929Y-74495882D01*
X147242418Y-74518942D01*
X147244572Y-74549557D01*
X147245664Y-74590852D01*
X147245967Y-74645950D01*
X147245888Y-74676952D01*
X147245203Y-74724373D01*
G36*
X148320725Y-75797216D02*
G01*
X148318357Y-75843800D01*
X148314807Y-75881299D01*
X148310055Y-75906365D01*
X148307034Y-75914997D01*
X148285434Y-75952886D01*
X148253247Y-75989051D01*
X148215225Y-76018840D01*
X148176114Y-76037600D01*
X148130708Y-76047440D01*
X148069322Y-76047401D01*
X148011825Y-76031705D01*
X147960230Y-76000694D01*
X147927533Y-75974419D01*
X147927533Y-76042950D01*
X147792067Y-76042950D01*
X147792067Y-75704284D01*
X147931767Y-75704284D01*
X147932528Y-75753182D01*
X147936128Y-75802273D01*
X147943438Y-75839088D01*
X147955280Y-75866152D01*
X147972477Y-75885988D01*
X147995848Y-75901120D01*
X147998167Y-75902252D01*
X148027916Y-75911945D01*
X148058767Y-75915924D01*
X148059466Y-75915922D01*
X148103317Y-75908398D01*
X148141131Y-75887867D01*
X148168545Y-75856683D01*
X148172372Y-75849673D01*
X148178232Y-75835205D01*
X148182112Y-75817205D01*
X148184402Y-75792322D01*
X148185491Y-75757209D01*
X148185767Y-75708517D01*
X148185765Y-75703683D01*
X148185338Y-75654992D01*
X148183937Y-75619718D01*
X148181228Y-75594632D01*
X148176874Y-75576500D01*
X148170539Y-75562092D01*
X148147030Y-75533119D01*
X148111844Y-75511428D01*
X148070879Y-75500899D01*
X148028563Y-75502619D01*
X147989328Y-75517674D01*
X147968559Y-75532514D01*
X147952956Y-75550330D01*
X147942359Y-75573548D01*
X147935885Y-75605035D01*
X147932649Y-75647658D01*
X147931767Y-75704284D01*
X147792067Y-75704284D01*
X147792067Y-75103150D01*
X147927533Y-75103150D01*
X147927533Y-75443322D01*
X147954987Y-75420222D01*
X147967670Y-75410253D01*
X148019771Y-75381524D01*
X148075074Y-75367667D01*
X148130946Y-75368082D01*
X148184751Y-75382170D01*
X148233855Y-75409330D01*
X148275625Y-75448962D01*
X148307425Y-75500468D01*
X148311359Y-75514450D01*
X148315618Y-75545225D01*
X148318828Y-75587005D01*
X148320965Y-75636442D01*
X148322008Y-75690189D01*
X148321983Y-75708517D01*
X148321935Y-75744897D01*
X148320725Y-75797216D01*
G37*
X148320725Y-75797216D02*
X148318357Y-75843800D01*
X148314807Y-75881299D01*
X148310055Y-75906365D01*
X148307034Y-75914997D01*
X148285434Y-75952886D01*
X148253247Y-75989051D01*
X148215225Y-76018840D01*
X148176114Y-76037600D01*
X148130708Y-76047440D01*
X148069322Y-76047401D01*
X148011825Y-76031705D01*
X147960230Y-76000694D01*
X147927533Y-75974419D01*
X147927533Y-76042950D01*
X147792067Y-76042950D01*
X147792067Y-75704284D01*
X147931767Y-75704284D01*
X147932528Y-75753182D01*
X147936128Y-75802273D01*
X147943438Y-75839088D01*
X147955280Y-75866152D01*
X147972477Y-75885988D01*
X147995848Y-75901120D01*
X147998167Y-75902252D01*
X148027916Y-75911945D01*
X148058767Y-75915924D01*
X148059466Y-75915922D01*
X148103317Y-75908398D01*
X148141131Y-75887867D01*
X148168545Y-75856683D01*
X148172372Y-75849673D01*
X148178232Y-75835205D01*
X148182112Y-75817205D01*
X148184402Y-75792322D01*
X148185491Y-75757209D01*
X148185767Y-75708517D01*
X148185765Y-75703683D01*
X148185338Y-75654992D01*
X148183937Y-75619718D01*
X148181228Y-75594632D01*
X148176874Y-75576500D01*
X148170539Y-75562092D01*
X148147030Y-75533119D01*
X148111844Y-75511428D01*
X148070879Y-75500899D01*
X148028563Y-75502619D01*
X147989328Y-75517674D01*
X147968559Y-75532514D01*
X147952956Y-75550330D01*
X147942359Y-75573548D01*
X147935885Y-75605035D01*
X147932649Y-75647658D01*
X147931767Y-75704284D01*
X147792067Y-75704284D01*
X147792067Y-75103150D01*
X147927533Y-75103150D01*
X147927533Y-75443322D01*
X147954987Y-75420222D01*
X147967670Y-75410253D01*
X148019771Y-75381524D01*
X148075074Y-75367667D01*
X148130946Y-75368082D01*
X148184751Y-75382170D01*
X148233855Y-75409330D01*
X148275625Y-75448962D01*
X148307425Y-75500468D01*
X148311359Y-75514450D01*
X148315618Y-75545225D01*
X148318828Y-75587005D01*
X148320965Y-75636442D01*
X148322008Y-75690189D01*
X148321983Y-75708517D01*
X148321935Y-75744897D01*
X148320725Y-75797216D01*
G36*
X147667614Y-74308648D02*
G01*
X147703297Y-74314543D01*
X147760104Y-74337364D01*
X147805072Y-74371164D01*
X147836918Y-74414580D01*
X147854717Y-74466346D01*
X147857540Y-74525195D01*
X147857365Y-74527276D01*
X147847412Y-74578330D01*
X147826658Y-74619813D01*
X147794080Y-74652484D01*
X147748653Y-74677104D01*
X147689353Y-74694434D01*
X147615157Y-74705234D01*
X147608639Y-74705861D01*
X147557095Y-74711739D01*
X147519974Y-74718530D01*
X147495013Y-74727365D01*
X147479949Y-74739372D01*
X147472520Y-74755679D01*
X147470463Y-74777416D01*
X147471466Y-74790962D01*
X147484219Y-74821051D01*
X147511209Y-74842781D01*
X147551904Y-74855827D01*
X147605772Y-74859864D01*
X147662321Y-74855036D01*
X147715510Y-74839102D01*
X147766892Y-74810101D01*
X147811014Y-74779751D01*
X147856855Y-74825022D01*
X147902696Y-74870294D01*
X147874898Y-74893844D01*
X147865642Y-74901375D01*
X147805928Y-74939209D01*
X147737197Y-74967687D01*
X147665067Y-74984384D01*
X147600912Y-74988201D01*
X147535795Y-74982086D01*
X147475666Y-74966618D01*
X147424061Y-74942719D01*
X147384517Y-74911309D01*
X147380216Y-74906577D01*
X147353442Y-74869129D01*
X147339286Y-74828845D01*
X147335511Y-74779721D01*
X147336161Y-74759786D01*
X147342606Y-74713534D01*
X147357140Y-74676705D01*
X147381371Y-74644563D01*
X147403418Y-74624556D01*
X147432714Y-74606984D01*
X147469306Y-74594167D01*
X147516385Y-74585028D01*
X147577138Y-74578490D01*
X147614392Y-74574995D01*
X147657702Y-74568638D01*
X147687894Y-74559983D01*
X147707253Y-74547946D01*
X147718066Y-74531439D01*
X147722618Y-74509378D01*
X147722066Y-74493986D01*
X147710327Y-74468141D01*
X147686503Y-74448948D01*
X147653084Y-74436827D01*
X147612558Y-74432195D01*
X147567415Y-74435471D01*
X147520142Y-74447074D01*
X147473230Y-74467424D01*
X147429243Y-74491249D01*
X147390521Y-74446398D01*
X147389637Y-74445372D01*
X147370542Y-74422210D01*
X147356967Y-74403892D01*
X147351800Y-74394304D01*
X147357352Y-74386372D01*
X147375003Y-74373191D01*
X147400915Y-74357710D01*
X147431127Y-74342104D01*
X147461677Y-74328548D01*
X147488603Y-74319217D01*
X147524605Y-74312170D01*
X147571958Y-74307598D01*
X147621731Y-74306379D01*
X147667614Y-74308648D01*
G37*
X147667614Y-74308648D02*
X147703297Y-74314543D01*
X147760104Y-74337364D01*
X147805072Y-74371164D01*
X147836918Y-74414580D01*
X147854717Y-74466346D01*
X147857540Y-74525195D01*
X147857365Y-74527276D01*
X147847412Y-74578330D01*
X147826658Y-74619813D01*
X147794080Y-74652484D01*
X147748653Y-74677104D01*
X147689353Y-74694434D01*
X147615157Y-74705234D01*
X147608639Y-74705861D01*
X147557095Y-74711739D01*
X147519974Y-74718530D01*
X147495013Y-74727365D01*
X147479949Y-74739372D01*
X147472520Y-74755679D01*
X147470463Y-74777416D01*
X147471466Y-74790962D01*
X147484219Y-74821051D01*
X147511209Y-74842781D01*
X147551904Y-74855827D01*
X147605772Y-74859864D01*
X147662321Y-74855036D01*
X147715510Y-74839102D01*
X147766892Y-74810101D01*
X147811014Y-74779751D01*
X147856855Y-74825022D01*
X147902696Y-74870294D01*
X147874898Y-74893844D01*
X147865642Y-74901375D01*
X147805928Y-74939209D01*
X147737197Y-74967687D01*
X147665067Y-74984384D01*
X147600912Y-74988201D01*
X147535795Y-74982086D01*
X147475666Y-74966618D01*
X147424061Y-74942719D01*
X147384517Y-74911309D01*
X147380216Y-74906577D01*
X147353442Y-74869129D01*
X147339286Y-74828845D01*
X147335511Y-74779721D01*
X147336161Y-74759786D01*
X147342606Y-74713534D01*
X147357140Y-74676705D01*
X147381371Y-74644563D01*
X147403418Y-74624556D01*
X147432714Y-74606984D01*
X147469306Y-74594167D01*
X147516385Y-74585028D01*
X147577138Y-74578490D01*
X147614392Y-74574995D01*
X147657702Y-74568638D01*
X147687894Y-74559983D01*
X147707253Y-74547946D01*
X147718066Y-74531439D01*
X147722618Y-74509378D01*
X147722066Y-74493986D01*
X147710327Y-74468141D01*
X147686503Y-74448948D01*
X147653084Y-74436827D01*
X147612558Y-74432195D01*
X147567415Y-74435471D01*
X147520142Y-74447074D01*
X147473230Y-74467424D01*
X147429243Y-74491249D01*
X147390521Y-74446398D01*
X147389637Y-74445372D01*
X147370542Y-74422210D01*
X147356967Y-74403892D01*
X147351800Y-74394304D01*
X147357352Y-74386372D01*
X147375003Y-74373191D01*
X147400915Y-74357710D01*
X147431127Y-74342104D01*
X147461677Y-74328548D01*
X147488603Y-74319217D01*
X147524605Y-74312170D01*
X147571958Y-74307598D01*
X147621731Y-74306379D01*
X147667614Y-74308648D01*
G36*
X149473130Y-74691033D02*
G01*
X149461887Y-74767098D01*
X149438678Y-74833391D01*
X149403991Y-74889068D01*
X149358310Y-74933285D01*
X149302124Y-74965196D01*
X149235919Y-74983957D01*
X149227819Y-74985218D01*
X149154507Y-74987921D01*
X149084371Y-74975164D01*
X149019798Y-74947629D01*
X148963174Y-74905998D01*
X148936247Y-74880839D01*
X148983350Y-74840645D01*
X149030453Y-74800450D01*
X149071263Y-74825819D01*
X149112442Y-74846720D01*
X149164324Y-74860234D01*
X149213196Y-74859464D01*
X149257011Y-74845156D01*
X149293719Y-74818061D01*
X149321273Y-74778926D01*
X149337625Y-74728500D01*
X149343351Y-74696750D01*
X148915560Y-74696750D01*
X148920961Y-74608487D01*
X148922624Y-74586684D01*
X149055874Y-74586684D01*
X149343351Y-74586684D01*
X149337536Y-74554934D01*
X149337448Y-74554453D01*
X149321340Y-74507224D01*
X149293842Y-74469842D01*
X149257424Y-74444062D01*
X149214556Y-74431639D01*
X149167709Y-74434327D01*
X149139245Y-74443497D01*
X149102844Y-74467854D01*
X149077237Y-74504753D01*
X149061775Y-74554934D01*
X149055874Y-74586684D01*
X148922624Y-74586684D01*
X148923212Y-74578968D01*
X148932035Y-74517800D01*
X148946632Y-74468169D01*
X148968225Y-74426605D01*
X148998034Y-74389639D01*
X149041887Y-74351089D01*
X149091979Y-74323960D01*
X149150147Y-74308811D01*
X149153170Y-74308350D01*
X149222884Y-74305370D01*
X149285869Y-74317518D01*
X149341246Y-74344048D01*
X149388136Y-74384216D01*
X149425657Y-74437274D01*
X149452931Y-74502478D01*
X149469077Y-74579082D01*
X149469879Y-74586684D01*
X149471921Y-74606043D01*
X149473130Y-74691033D01*
G37*
X149473130Y-74691033D02*
X149461887Y-74767098D01*
X149438678Y-74833391D01*
X149403991Y-74889068D01*
X149358310Y-74933285D01*
X149302124Y-74965196D01*
X149235919Y-74983957D01*
X149227819Y-74985218D01*
X149154507Y-74987921D01*
X149084371Y-74975164D01*
X149019798Y-74947629D01*
X148963174Y-74905998D01*
X148936247Y-74880839D01*
X148983350Y-74840645D01*
X149030453Y-74800450D01*
X149071263Y-74825819D01*
X149112442Y-74846720D01*
X149164324Y-74860234D01*
X149213196Y-74859464D01*
X149257011Y-74845156D01*
X149293719Y-74818061D01*
X149321273Y-74778926D01*
X149337625Y-74728500D01*
X149343351Y-74696750D01*
X148915560Y-74696750D01*
X148920961Y-74608487D01*
X148922624Y-74586684D01*
X149055874Y-74586684D01*
X149343351Y-74586684D01*
X149337536Y-74554934D01*
X149337448Y-74554453D01*
X149321340Y-74507224D01*
X149293842Y-74469842D01*
X149257424Y-74444062D01*
X149214556Y-74431639D01*
X149167709Y-74434327D01*
X149139245Y-74443497D01*
X149102844Y-74467854D01*
X149077237Y-74504753D01*
X149061775Y-74554934D01*
X149055874Y-74586684D01*
X148922624Y-74586684D01*
X148923212Y-74578968D01*
X148932035Y-74517800D01*
X148946632Y-74468169D01*
X148968225Y-74426605D01*
X148998034Y-74389639D01*
X149041887Y-74351089D01*
X149091979Y-74323960D01*
X149150147Y-74308811D01*
X149153170Y-74308350D01*
X149222884Y-74305370D01*
X149285869Y-74317518D01*
X149341246Y-74344048D01*
X149388136Y-74384216D01*
X149425657Y-74437274D01*
X149452931Y-74502478D01*
X149469077Y-74579082D01*
X149469879Y-74586684D01*
X149471921Y-74606043D01*
X149473130Y-74691033D01*
G36*
X146752188Y-75873096D02*
G01*
X146738436Y-75927646D01*
X146710452Y-75973072D01*
X146668386Y-76009171D01*
X146612385Y-76035744D01*
X146564644Y-76047379D01*
X146510470Y-76050902D01*
X146458389Y-76045323D01*
X146412746Y-76031140D01*
X146377886Y-76008853D01*
X146352733Y-75985356D01*
X146352733Y-76042950D01*
X146217267Y-76042950D01*
X146217267Y-75799244D01*
X146352733Y-75799244D01*
X146352736Y-75800770D01*
X146356793Y-75850169D01*
X146368742Y-75885301D01*
X146388868Y-75907010D01*
X146397611Y-75911127D01*
X146426067Y-75917835D01*
X146463005Y-75921430D01*
X146502817Y-75921756D01*
X146539895Y-75918658D01*
X146568633Y-75911981D01*
X146577400Y-75908719D01*
X146596313Y-75901914D01*
X146605049Y-75899144D01*
X146605632Y-75898730D01*
X146611226Y-75888895D01*
X146619677Y-75870106D01*
X146621451Y-75865705D01*
X146627336Y-75840008D01*
X146622560Y-75814816D01*
X146617950Y-75803890D01*
X146604993Y-75786712D01*
X146584766Y-75774255D01*
X146554868Y-75765680D01*
X146512897Y-75760149D01*
X146456450Y-75756823D01*
X146352733Y-75752797D01*
X146352733Y-75799244D01*
X146217267Y-75799244D01*
X146217267Y-75792049D01*
X146217274Y-75778960D01*
X146217754Y-75692212D01*
X146218983Y-75621576D01*
X146220954Y-75567253D01*
X146223659Y-75529444D01*
X146227093Y-75508352D01*
X146231261Y-75496499D01*
X146256092Y-75454342D01*
X146292837Y-75417740D01*
X146337549Y-75390889D01*
X146342016Y-75389034D01*
X146386485Y-75376396D01*
X146440484Y-75368628D01*
X146497960Y-75366038D01*
X146552863Y-75368933D01*
X146599139Y-75377619D01*
X146609032Y-75380965D01*
X146636996Y-75393836D01*
X146665817Y-75410772D01*
X146691433Y-75428992D01*
X146709781Y-75445715D01*
X146716800Y-75458161D01*
X146716633Y-75458829D01*
X146708603Y-75468192D01*
X146690920Y-75484237D01*
X146666910Y-75503915D01*
X146658947Y-75510142D01*
X146635976Y-75527216D01*
X146621675Y-75535160D01*
X146612656Y-75535372D01*
X146605527Y-75529252D01*
X146598527Y-75522222D01*
X146570465Y-75506295D01*
X146533596Y-75496348D01*
X146492055Y-75492305D01*
X146449978Y-75494092D01*
X146411500Y-75501632D01*
X146380756Y-75514853D01*
X146361882Y-75533677D01*
X146358592Y-75542921D01*
X146354381Y-75567471D01*
X146352733Y-75596846D01*
X146352733Y-75642921D01*
X146477617Y-75646807D01*
X146534315Y-75649271D01*
X146582126Y-75653518D01*
X146618952Y-75660183D01*
X146647871Y-75670059D01*
X146671958Y-75683940D01*
X146694292Y-75702616D01*
X146723438Y-75737220D01*
X146746072Y-75786934D01*
X146753113Y-75840008D01*
X146753693Y-75844381D01*
X146752188Y-75873096D01*
G37*
X146752188Y-75873096D02*
X146738436Y-75927646D01*
X146710452Y-75973072D01*
X146668386Y-76009171D01*
X146612385Y-76035744D01*
X146564644Y-76047379D01*
X146510470Y-76050902D01*
X146458389Y-76045323D01*
X146412746Y-76031140D01*
X146377886Y-76008853D01*
X146352733Y-75985356D01*
X146352733Y-76042950D01*
X146217267Y-76042950D01*
X146217267Y-75799244D01*
X146352733Y-75799244D01*
X146352736Y-75800770D01*
X146356793Y-75850169D01*
X146368742Y-75885301D01*
X146388868Y-75907010D01*
X146397611Y-75911127D01*
X146426067Y-75917835D01*
X146463005Y-75921430D01*
X146502817Y-75921756D01*
X146539895Y-75918658D01*
X146568633Y-75911981D01*
X146577400Y-75908719D01*
X146596313Y-75901914D01*
X146605049Y-75899144D01*
X146605632Y-75898730D01*
X146611226Y-75888895D01*
X146619677Y-75870106D01*
X146621451Y-75865705D01*
X146627336Y-75840008D01*
X146622560Y-75814816D01*
X146617950Y-75803890D01*
X146604993Y-75786712D01*
X146584766Y-75774255D01*
X146554868Y-75765680D01*
X146512897Y-75760149D01*
X146456450Y-75756823D01*
X146352733Y-75752797D01*
X146352733Y-75799244D01*
X146217267Y-75799244D01*
X146217267Y-75792049D01*
X146217274Y-75778960D01*
X146217754Y-75692212D01*
X146218983Y-75621576D01*
X146220954Y-75567253D01*
X146223659Y-75529444D01*
X146227093Y-75508352D01*
X146231261Y-75496499D01*
X146256092Y-75454342D01*
X146292837Y-75417740D01*
X146337549Y-75390889D01*
X146342016Y-75389034D01*
X146386485Y-75376396D01*
X146440484Y-75368628D01*
X146497960Y-75366038D01*
X146552863Y-75368933D01*
X146599139Y-75377619D01*
X146609032Y-75380965D01*
X146636996Y-75393836D01*
X146665817Y-75410772D01*
X146691433Y-75428992D01*
X146709781Y-75445715D01*
X146716800Y-75458161D01*
X146716633Y-75458829D01*
X146708603Y-75468192D01*
X146690920Y-75484237D01*
X146666910Y-75503915D01*
X146658947Y-75510142D01*
X146635976Y-75527216D01*
X146621675Y-75535160D01*
X146612656Y-75535372D01*
X146605527Y-75529252D01*
X146598527Y-75522222D01*
X146570465Y-75506295D01*
X146533596Y-75496348D01*
X146492055Y-75492305D01*
X146449978Y-75494092D01*
X146411500Y-75501632D01*
X146380756Y-75514853D01*
X146361882Y-75533677D01*
X146358592Y-75542921D01*
X146354381Y-75567471D01*
X146352733Y-75596846D01*
X146352733Y-75642921D01*
X146477617Y-75646807D01*
X146534315Y-75649271D01*
X146582126Y-75653518D01*
X146618952Y-75660183D01*
X146647871Y-75670059D01*
X146671958Y-75683940D01*
X146694292Y-75702616D01*
X146723438Y-75737220D01*
X146746072Y-75786934D01*
X146753113Y-75840008D01*
X146753693Y-75844381D01*
X146752188Y-75873096D01*
G36*
X145590290Y-74305595D02*
G01*
X145632778Y-74310165D01*
X145675674Y-74321928D01*
X145713207Y-74338842D01*
X145739609Y-74358866D01*
X145747860Y-74367250D01*
X145760087Y-74373844D01*
X145766608Y-74365257D01*
X145768533Y-74340794D01*
X145768533Y-74306571D01*
X145899767Y-74311517D01*
X145901986Y-74637460D01*
X145902075Y-74651117D01*
X145902425Y-74723253D01*
X145902548Y-74789898D01*
X145902455Y-74849144D01*
X145902157Y-74899085D01*
X145901664Y-74937815D01*
X145900987Y-74963425D01*
X145900135Y-74974010D01*
X145893634Y-74979049D01*
X145871372Y-74983241D01*
X145833016Y-74984617D01*
X145769967Y-74984617D01*
X145767134Y-74758134D01*
X145766926Y-74741790D01*
X145765991Y-74676792D01*
X145764950Y-74626109D01*
X145763636Y-74587592D01*
X145761880Y-74559093D01*
X145759514Y-74538465D01*
X145756369Y-74523558D01*
X145752276Y-74512224D01*
X145747067Y-74502316D01*
X145723194Y-74473616D01*
X145687900Y-74451164D01*
X145647729Y-74439899D01*
X145607109Y-74440991D01*
X145570467Y-74455612D01*
X145545967Y-74471692D01*
X145521160Y-74442404D01*
X145516607Y-74437006D01*
X145493487Y-74409163D01*
X145471420Y-74382067D01*
X145446486Y-74351016D01*
X145492909Y-74328303D01*
X145503898Y-74323163D01*
X145545060Y-74309549D01*
X145589012Y-74305590D01*
X145590290Y-74305595D01*
G37*
X145590290Y-74305595D02*
X145632778Y-74310165D01*
X145675674Y-74321928D01*
X145713207Y-74338842D01*
X145739609Y-74358866D01*
X145747860Y-74367250D01*
X145760087Y-74373844D01*
X145766608Y-74365257D01*
X145768533Y-74340794D01*
X145768533Y-74306571D01*
X145899767Y-74311517D01*
X145901986Y-74637460D01*
X145902075Y-74651117D01*
X145902425Y-74723253D01*
X145902548Y-74789898D01*
X145902455Y-74849144D01*
X145902157Y-74899085D01*
X145901664Y-74937815D01*
X145900987Y-74963425D01*
X145900135Y-74974010D01*
X145893634Y-74979049D01*
X145871372Y-74983241D01*
X145833016Y-74984617D01*
X145769967Y-74984617D01*
X145767134Y-74758134D01*
X145766926Y-74741790D01*
X145765991Y-74676792D01*
X145764950Y-74626109D01*
X145763636Y-74587592D01*
X145761880Y-74559093D01*
X145759514Y-74538465D01*
X145756369Y-74523558D01*
X145752276Y-74512224D01*
X145747067Y-74502316D01*
X145723194Y-74473616D01*
X145687900Y-74451164D01*
X145647729Y-74439899D01*
X145607109Y-74440991D01*
X145570467Y-74455612D01*
X145545967Y-74471692D01*
X145521160Y-74442404D01*
X145516607Y-74437006D01*
X145493487Y-74409163D01*
X145471420Y-74382067D01*
X145446486Y-74351016D01*
X145492909Y-74328303D01*
X145503898Y-74323163D01*
X145545060Y-74309549D01*
X145589012Y-74305590D01*
X145590290Y-74305595D01*
G36*
X148504455Y-74305767D02*
G01*
X148556494Y-74311611D01*
X148600230Y-74328280D01*
X148641466Y-74357901D01*
X148672600Y-74385238D01*
X148672600Y-74307284D01*
X148808067Y-74307284D01*
X148808067Y-74984617D01*
X148673610Y-74984617D01*
X148670988Y-74758134D01*
X148670788Y-74741058D01*
X148669914Y-74676229D01*
X148668921Y-74625692D01*
X148667643Y-74587301D01*
X148665912Y-74558905D01*
X148663563Y-74538357D01*
X148660428Y-74523509D01*
X148656340Y-74512211D01*
X148651134Y-74502316D01*
X148637177Y-74482964D01*
X148604348Y-74456372D01*
X148565657Y-74442052D01*
X148524674Y-74439941D01*
X148484967Y-74449978D01*
X148450105Y-74472102D01*
X148423659Y-74506250D01*
X148422663Y-74508172D01*
X148417462Y-74519522D01*
X148413405Y-74532286D01*
X148410315Y-74548680D01*
X148408014Y-74570923D01*
X148406325Y-74601230D01*
X148405070Y-74641819D01*
X148404074Y-74694907D01*
X148403157Y-74762712D01*
X148400414Y-74985307D01*
X148335424Y-74982845D01*
X148270433Y-74980384D01*
X148270566Y-74730617D01*
X148270573Y-74717032D01*
X148270670Y-74648022D01*
X148270962Y-74593443D01*
X148271593Y-74551163D01*
X148272710Y-74519050D01*
X148274458Y-74494970D01*
X148276984Y-74476791D01*
X148280434Y-74462381D01*
X148284952Y-74449608D01*
X148290685Y-74436339D01*
X148300124Y-74417665D01*
X148335986Y-74370449D01*
X148382538Y-74335140D01*
X148437604Y-74313102D01*
X148499010Y-74305699D01*
X148504455Y-74305767D01*
G37*
X148504455Y-74305767D02*
X148556494Y-74311611D01*
X148600230Y-74328280D01*
X148641466Y-74357901D01*
X148672600Y-74385238D01*
X148672600Y-74307284D01*
X148808067Y-74307284D01*
X148808067Y-74984617D01*
X148673610Y-74984617D01*
X148670988Y-74758134D01*
X148670788Y-74741058D01*
X148669914Y-74676229D01*
X148668921Y-74625692D01*
X148667643Y-74587301D01*
X148665912Y-74558905D01*
X148663563Y-74538357D01*
X148660428Y-74523509D01*
X148656340Y-74512211D01*
X148651134Y-74502316D01*
X148637177Y-74482964D01*
X148604348Y-74456372D01*
X148565657Y-74442052D01*
X148524674Y-74439941D01*
X148484967Y-74449978D01*
X148450105Y-74472102D01*
X148423659Y-74506250D01*
X148422663Y-74508172D01*
X148417462Y-74519522D01*
X148413405Y-74532286D01*
X148410315Y-74548680D01*
X148408014Y-74570923D01*
X148406325Y-74601230D01*
X148405070Y-74641819D01*
X148404074Y-74694907D01*
X148403157Y-74762712D01*
X148400414Y-74985307D01*
X148335424Y-74982845D01*
X148270433Y-74980384D01*
X148270566Y-74730617D01*
X148270573Y-74717032D01*
X148270670Y-74648022D01*
X148270962Y-74593443D01*
X148271593Y-74551163D01*
X148272710Y-74519050D01*
X148274458Y-74494970D01*
X148276984Y-74476791D01*
X148280434Y-74462381D01*
X148284952Y-74449608D01*
X148290685Y-74436339D01*
X148300124Y-74417665D01*
X148335986Y-74370449D01*
X148382538Y-74335140D01*
X148437604Y-74313102D01*
X148499010Y-74305699D01*
X148504455Y-74305767D01*
G36*
X145794538Y-75368519D02*
G01*
X145848119Y-75384212D01*
X145895179Y-75413844D01*
X145929400Y-75443136D01*
X145929400Y-75374084D01*
X146064867Y-75374084D01*
X146064867Y-76042950D01*
X145929400Y-76042950D01*
X145929369Y-75816467D01*
X145929361Y-75795304D01*
X145929224Y-75731448D01*
X145928807Y-75681782D01*
X145927969Y-75644175D01*
X145926569Y-75616494D01*
X145924465Y-75596608D01*
X145921515Y-75582383D01*
X145917578Y-75571688D01*
X145912513Y-75562389D01*
X145902549Y-75548306D01*
X145869285Y-75519675D01*
X145828609Y-75503985D01*
X145784090Y-75502203D01*
X145739294Y-75515301D01*
X145733184Y-75518113D01*
X145715343Y-75524942D01*
X145706894Y-75525884D01*
X145705909Y-75524631D01*
X145696611Y-75513430D01*
X145679980Y-75493669D01*
X145658763Y-75468618D01*
X145637996Y-75443343D01*
X145625049Y-75424732D01*
X145621263Y-75413439D01*
X145625259Y-75406924D01*
X145626799Y-75405902D01*
X145680666Y-75379281D01*
X145737650Y-75366848D01*
X145794538Y-75368519D01*
G37*
X145794538Y-75368519D02*
X145848119Y-75384212D01*
X145895179Y-75413844D01*
X145929400Y-75443136D01*
X145929400Y-75374084D01*
X146064867Y-75374084D01*
X146064867Y-76042950D01*
X145929400Y-76042950D01*
X145929369Y-75816467D01*
X145929361Y-75795304D01*
X145929224Y-75731448D01*
X145928807Y-75681782D01*
X145927969Y-75644175D01*
X145926569Y-75616494D01*
X145924465Y-75596608D01*
X145921515Y-75582383D01*
X145917578Y-75571688D01*
X145912513Y-75562389D01*
X145902549Y-75548306D01*
X145869285Y-75519675D01*
X145828609Y-75503985D01*
X145784090Y-75502203D01*
X145739294Y-75515301D01*
X145733184Y-75518113D01*
X145715343Y-75524942D01*
X145706894Y-75525884D01*
X145705909Y-75524631D01*
X145696611Y-75513430D01*
X145679980Y-75493669D01*
X145658763Y-75468618D01*
X145637996Y-75443343D01*
X145625049Y-75424732D01*
X145621263Y-75413439D01*
X145625259Y-75406924D01*
X145626799Y-75405902D01*
X145680666Y-75379281D01*
X145737650Y-75366848D01*
X145794538Y-75368519D01*
G36*
X144879368Y-74650184D02*
G01*
X144878035Y-74692721D01*
X144866746Y-74772130D01*
X144844118Y-74839545D01*
X144810354Y-74894684D01*
X144765653Y-74937262D01*
X144710214Y-74966995D01*
X144644240Y-74983600D01*
X144590316Y-74987463D01*
X144515815Y-74979912D01*
X144446933Y-74957220D01*
X144385405Y-74919814D01*
X144368236Y-74905859D01*
X144352288Y-74891359D01*
X144346133Y-74883499D01*
X144346200Y-74883134D01*
X144353292Y-74874273D01*
X144369786Y-74858095D01*
X144392426Y-74837813D01*
X144438719Y-74797847D01*
X144473288Y-74822889D01*
X144487524Y-74832351D01*
X144534457Y-74853275D01*
X144582268Y-74861197D01*
X144628311Y-74856975D01*
X144669939Y-74841468D01*
X144704506Y-74815534D01*
X144729363Y-74780031D01*
X144741866Y-74735817D01*
X144746269Y-74696750D01*
X144329200Y-74696750D01*
X144329200Y-74626562D01*
X144333256Y-74569478D01*
X144464667Y-74569478D01*
X144465056Y-74574616D01*
X144467958Y-74579536D01*
X144475784Y-74582898D01*
X144490936Y-74584998D01*
X144515816Y-74586131D01*
X144552826Y-74586595D01*
X144604367Y-74586684D01*
X144744067Y-74586684D01*
X144744067Y-74563077D01*
X144738690Y-74534114D01*
X144723498Y-74500071D01*
X144702308Y-74469390D01*
X144678961Y-74448813D01*
X144663983Y-74441718D01*
X144622358Y-74432969D01*
X144578350Y-74435953D01*
X144537459Y-74449877D01*
X144505186Y-74473943D01*
X144495344Y-74487248D01*
X144480503Y-74515253D01*
X144469177Y-74545259D01*
X144464667Y-74569478D01*
X144333256Y-74569478D01*
X144335003Y-74544895D01*
X144352522Y-74474981D01*
X144381749Y-74417274D01*
X144422677Y-74371794D01*
X144458388Y-74346084D01*
X144516301Y-74319130D01*
X144576906Y-74306009D01*
X144637686Y-74306337D01*
X144696125Y-74319727D01*
X144749707Y-74345797D01*
X144795914Y-74384160D01*
X144832230Y-74434431D01*
X144851510Y-74474722D01*
X144867702Y-74525481D01*
X144873605Y-74563077D01*
X144876620Y-74582282D01*
X144879368Y-74650184D01*
G37*
X144879368Y-74650184D02*
X144878035Y-74692721D01*
X144866746Y-74772130D01*
X144844118Y-74839545D01*
X144810354Y-74894684D01*
X144765653Y-74937262D01*
X144710214Y-74966995D01*
X144644240Y-74983600D01*
X144590316Y-74987463D01*
X144515815Y-74979912D01*
X144446933Y-74957220D01*
X144385405Y-74919814D01*
X144368236Y-74905859D01*
X144352288Y-74891359D01*
X144346133Y-74883499D01*
X144346200Y-74883134D01*
X144353292Y-74874273D01*
X144369786Y-74858095D01*
X144392426Y-74837813D01*
X144438719Y-74797847D01*
X144473288Y-74822889D01*
X144487524Y-74832351D01*
X144534457Y-74853275D01*
X144582268Y-74861197D01*
X144628311Y-74856975D01*
X144669939Y-74841468D01*
X144704506Y-74815534D01*
X144729363Y-74780031D01*
X144741866Y-74735817D01*
X144746269Y-74696750D01*
X144329200Y-74696750D01*
X144329200Y-74626562D01*
X144333256Y-74569478D01*
X144464667Y-74569478D01*
X144465056Y-74574616D01*
X144467958Y-74579536D01*
X144475784Y-74582898D01*
X144490936Y-74584998D01*
X144515816Y-74586131D01*
X144552826Y-74586595D01*
X144604367Y-74586684D01*
X144744067Y-74586684D01*
X144744067Y-74563077D01*
X144738690Y-74534114D01*
X144723498Y-74500071D01*
X144702308Y-74469390D01*
X144678961Y-74448813D01*
X144663983Y-74441718D01*
X144622358Y-74432969D01*
X144578350Y-74435953D01*
X144537459Y-74449877D01*
X144505186Y-74473943D01*
X144495344Y-74487248D01*
X144480503Y-74515253D01*
X144469177Y-74545259D01*
X144464667Y-74569478D01*
X144333256Y-74569478D01*
X144335003Y-74544895D01*
X144352522Y-74474981D01*
X144381749Y-74417274D01*
X144422677Y-74371794D01*
X144458388Y-74346084D01*
X144516301Y-74319130D01*
X144576906Y-74306009D01*
X144637686Y-74306337D01*
X144696125Y-74319727D01*
X144749707Y-74345797D01*
X144795914Y-74384160D01*
X144832230Y-74434431D01*
X144851510Y-74474722D01*
X144867702Y-74525481D01*
X144873605Y-74563077D01*
X144876620Y-74582282D01*
X144879368Y-74650184D01*
G36*
X146580962Y-74558811D02*
G01*
X146580883Y-74597555D01*
X146580488Y-74668036D01*
X146579564Y-74724613D01*
X146577837Y-74769340D01*
X146575038Y-74804274D01*
X146570896Y-74831472D01*
X146565139Y-74852988D01*
X146557496Y-74870880D01*
X146547698Y-74887202D01*
X146535472Y-74904012D01*
X146529783Y-74910979D01*
X146493854Y-74942878D01*
X146449124Y-74968545D01*
X146402291Y-74983958D01*
X146375961Y-74987583D01*
X146317345Y-74984745D01*
X146262952Y-74967275D01*
X146216160Y-74936043D01*
X146183400Y-74906446D01*
X146183400Y-74984617D01*
X146047933Y-74984617D01*
X146047933Y-74307284D01*
X146183400Y-74307284D01*
X146183400Y-74525623D01*
X146183408Y-74554972D01*
X146183543Y-74615388D01*
X146183981Y-74662079D01*
X146184891Y-74697316D01*
X146186442Y-74723372D01*
X146188805Y-74742520D01*
X146192147Y-74757033D01*
X146196639Y-74769183D01*
X146202450Y-74781244D01*
X146213506Y-74800748D01*
X146238981Y-74830440D01*
X146270529Y-74846753D01*
X146311858Y-74852089D01*
X146358893Y-74846534D01*
X146397121Y-74827628D01*
X146425669Y-74795086D01*
X146430216Y-74786364D01*
X146434136Y-74774754D01*
X146437218Y-74758778D01*
X146439629Y-74736343D01*
X146441533Y-74705354D01*
X146443096Y-74663717D01*
X146444486Y-74609336D01*
X146445867Y-74540117D01*
X146450100Y-74311517D01*
X146581334Y-74306571D01*
X146580962Y-74558811D01*
G37*
X146580962Y-74558811D02*
X146580883Y-74597555D01*
X146580488Y-74668036D01*
X146579564Y-74724613D01*
X146577837Y-74769340D01*
X146575038Y-74804274D01*
X146570896Y-74831472D01*
X146565139Y-74852988D01*
X146557496Y-74870880D01*
X146547698Y-74887202D01*
X146535472Y-74904012D01*
X146529783Y-74910979D01*
X146493854Y-74942878D01*
X146449124Y-74968545D01*
X146402291Y-74983958D01*
X146375961Y-74987583D01*
X146317345Y-74984745D01*
X146262952Y-74967275D01*
X146216160Y-74936043D01*
X146183400Y-74906446D01*
X146183400Y-74984617D01*
X146047933Y-74984617D01*
X146047933Y-74307284D01*
X146183400Y-74307284D01*
X146183400Y-74525623D01*
X146183408Y-74554972D01*
X146183543Y-74615388D01*
X146183981Y-74662079D01*
X146184891Y-74697316D01*
X146186442Y-74723372D01*
X146188805Y-74742520D01*
X146192147Y-74757033D01*
X146196639Y-74769183D01*
X146202450Y-74781244D01*
X146213506Y-74800748D01*
X146238981Y-74830440D01*
X146270529Y-74846753D01*
X146311858Y-74852089D01*
X146358893Y-74846534D01*
X146397121Y-74827628D01*
X146425669Y-74795086D01*
X146430216Y-74786364D01*
X146434136Y-74774754D01*
X146437218Y-74758778D01*
X146439629Y-74736343D01*
X146441533Y-74705354D01*
X146443096Y-74663717D01*
X146444486Y-74609336D01*
X146445867Y-74540117D01*
X146450100Y-74311517D01*
X146581334Y-74306571D01*
X146580962Y-74558811D01*
G36*
X145607466Y-75708517D02*
G01*
X145606362Y-75751463D01*
X145597710Y-75824268D01*
X145579908Y-75885136D01*
X145552296Y-75935985D01*
X145514212Y-75978734D01*
X145509866Y-75982587D01*
X145455160Y-76019857D01*
X145391767Y-76043349D01*
X145366874Y-76048078D01*
X145307539Y-76050010D01*
X145245786Y-76041266D01*
X145186200Y-76023070D01*
X145133363Y-75996646D01*
X145091860Y-75963220D01*
X145072383Y-75942487D01*
X145104019Y-75914402D01*
X145108443Y-75910481D01*
X145136149Y-75886874D01*
X145155847Y-75873654D01*
X145171341Y-75869730D01*
X145186436Y-75874006D01*
X145204937Y-75885388D01*
X145210912Y-75889301D01*
X145260596Y-75912487D01*
X145312489Y-75922078D01*
X145362866Y-75917817D01*
X145408005Y-75899446D01*
X145420535Y-75890139D01*
X145446650Y-75859664D01*
X145465166Y-75822552D01*
X145472200Y-75785681D01*
X145472200Y-75755084D01*
X145057333Y-75755084D01*
X145057333Y-75692000D01*
X145057342Y-75688260D01*
X145060169Y-75645017D01*
X145190683Y-75645017D01*
X145472200Y-75645017D01*
X145472200Y-75622290D01*
X145470857Y-75607185D01*
X145457919Y-75569648D01*
X145434279Y-75535253D01*
X145403680Y-75510126D01*
X145370109Y-75497654D01*
X145328284Y-75493599D01*
X145287564Y-75499448D01*
X145254413Y-75514989D01*
X145230517Y-75540124D01*
X145209433Y-75576852D01*
X145196151Y-75617678D01*
X145190683Y-75645017D01*
X145060169Y-75645017D01*
X145062401Y-75610883D01*
X145077160Y-75545941D01*
X145102201Y-75491662D01*
X145138107Y-75446274D01*
X145173794Y-75416486D01*
X145228807Y-75386972D01*
X145288504Y-75370250D01*
X145349856Y-75366425D01*
X145409833Y-75375600D01*
X145465405Y-75397880D01*
X145513542Y-75433369D01*
X145530917Y-75451662D01*
X145565454Y-75501181D01*
X145589259Y-75559135D01*
X145601969Y-75622290D01*
X145603030Y-75627565D01*
X145607466Y-75708517D01*
G37*
X145607466Y-75708517D02*
X145606362Y-75751463D01*
X145597710Y-75824268D01*
X145579908Y-75885136D01*
X145552296Y-75935985D01*
X145514212Y-75978734D01*
X145509866Y-75982587D01*
X145455160Y-76019857D01*
X145391767Y-76043349D01*
X145366874Y-76048078D01*
X145307539Y-76050010D01*
X145245786Y-76041266D01*
X145186200Y-76023070D01*
X145133363Y-75996646D01*
X145091860Y-75963220D01*
X145072383Y-75942487D01*
X145104019Y-75914402D01*
X145108443Y-75910481D01*
X145136149Y-75886874D01*
X145155847Y-75873654D01*
X145171341Y-75869730D01*
X145186436Y-75874006D01*
X145204937Y-75885388D01*
X145210912Y-75889301D01*
X145260596Y-75912487D01*
X145312489Y-75922078D01*
X145362866Y-75917817D01*
X145408005Y-75899446D01*
X145420535Y-75890139D01*
X145446650Y-75859664D01*
X145465166Y-75822552D01*
X145472200Y-75785681D01*
X145472200Y-75755084D01*
X145057333Y-75755084D01*
X145057333Y-75692000D01*
X145057342Y-75688260D01*
X145060169Y-75645017D01*
X145190683Y-75645017D01*
X145472200Y-75645017D01*
X145472200Y-75622290D01*
X145470857Y-75607185D01*
X145457919Y-75569648D01*
X145434279Y-75535253D01*
X145403680Y-75510126D01*
X145370109Y-75497654D01*
X145328284Y-75493599D01*
X145287564Y-75499448D01*
X145254413Y-75514989D01*
X145230517Y-75540124D01*
X145209433Y-75576852D01*
X145196151Y-75617678D01*
X145190683Y-75645017D01*
X145060169Y-75645017D01*
X145062401Y-75610883D01*
X145077160Y-75545941D01*
X145102201Y-75491662D01*
X145138107Y-75446274D01*
X145173794Y-75416486D01*
X145228807Y-75386972D01*
X145288504Y-75370250D01*
X145349856Y-75366425D01*
X145409833Y-75375600D01*
X145465405Y-75397880D01*
X145513542Y-75433369D01*
X145530917Y-75451662D01*
X145565454Y-75501181D01*
X145589259Y-75559135D01*
X145601969Y-75622290D01*
X145603030Y-75627565D01*
X145607466Y-75708517D01*
G36*
X149968000Y-76042950D02*
G01*
X149968000Y-75824611D01*
X149967993Y-75795743D01*
X149967858Y-75735207D01*
X149967420Y-75688407D01*
X149966511Y-75653064D01*
X149964959Y-75626901D01*
X149962597Y-75607640D01*
X149959254Y-75593004D01*
X149954762Y-75580714D01*
X149948950Y-75568494D01*
X149930347Y-75541312D01*
X149897884Y-75515942D01*
X149859697Y-75502575D01*
X149819319Y-75501203D01*
X149780282Y-75511819D01*
X149746119Y-75534416D01*
X149720363Y-75568986D01*
X149717449Y-75575391D01*
X149713536Y-75587604D01*
X149710571Y-75603842D01*
X149708428Y-75626256D01*
X149706981Y-75656998D01*
X149706103Y-75698218D01*
X149705667Y-75752069D01*
X149705547Y-75820700D01*
X149705533Y-76042950D01*
X149570067Y-76042950D01*
X149570150Y-75791067D01*
X149570157Y-75770951D01*
X149570246Y-75702966D01*
X149570536Y-75649270D01*
X149571171Y-75607760D01*
X149572295Y-75576332D01*
X149574051Y-75552885D01*
X149576584Y-75535316D01*
X149580037Y-75521522D01*
X149584554Y-75509401D01*
X149590279Y-75496850D01*
X149605287Y-75469942D01*
X149642466Y-75426025D01*
X149687980Y-75393544D01*
X149739089Y-75373073D01*
X149793056Y-75365183D01*
X149847142Y-75370449D01*
X149898608Y-75389441D01*
X149944717Y-75422733D01*
X149968000Y-75444985D01*
X149968000Y-75180435D01*
X149967978Y-75146283D01*
X149967729Y-75076597D01*
X149967157Y-75021828D01*
X149966204Y-74980559D01*
X149964812Y-74951373D01*
X149962922Y-74932851D01*
X149960476Y-74923577D01*
X149957417Y-74922134D01*
X149956192Y-74922875D01*
X149941233Y-74932776D01*
X149921434Y-74946680D01*
X149879020Y-74970419D01*
X149825893Y-74984973D01*
X149771713Y-74986075D01*
X149719175Y-74974693D01*
X149670972Y-74951796D01*
X149629798Y-74918352D01*
X149598347Y-74875330D01*
X149579313Y-74823697D01*
X149578573Y-74819925D01*
X149574903Y-74789189D01*
X149572307Y-74746402D01*
X149570787Y-74695699D01*
X149570381Y-74645950D01*
X149705905Y-74645950D01*
X149705948Y-74657208D01*
X149708187Y-74716835D01*
X149714284Y-74762285D01*
X149724868Y-74795676D01*
X149740570Y-74819127D01*
X149762018Y-74834757D01*
X149783218Y-74843485D01*
X149829161Y-74852343D01*
X149873303Y-74849218D01*
X149880192Y-74847377D01*
X149914387Y-74829639D01*
X149939871Y-74799207D01*
X149956894Y-74755487D01*
X149965702Y-74697884D01*
X149966545Y-74625803D01*
X149963468Y-74581403D01*
X149953900Y-74527839D01*
X149937606Y-74488267D01*
X149913726Y-74461433D01*
X149881400Y-74446085D01*
X149839769Y-74440968D01*
X149814771Y-74441735D01*
X149777291Y-74448855D01*
X149748893Y-74464674D01*
X149728568Y-74490744D01*
X149715303Y-74528614D01*
X149708086Y-74579833D01*
X149705905Y-74645950D01*
X149570381Y-74645950D01*
X149570342Y-74641216D01*
X149570972Y-74587090D01*
X149572677Y-74537455D01*
X149575458Y-74496447D01*
X149579313Y-74468203D01*
X149580513Y-74462960D01*
X149601293Y-74411333D01*
X149635177Y-74368047D01*
X149679806Y-74334901D01*
X149732818Y-74313694D01*
X149791853Y-74306225D01*
X149839251Y-74309752D01*
X149891563Y-74325224D01*
X149940028Y-74354543D01*
X149968000Y-74375879D01*
X149968000Y-74307284D01*
X150103467Y-74307284D01*
X150103467Y-76042950D01*
X149968000Y-76042950D01*
G37*
X149968000Y-76042950D02*
X149968000Y-75824611D01*
X149967993Y-75795743D01*
X149967858Y-75735207D01*
X149967420Y-75688407D01*
X149966511Y-75653064D01*
X149964959Y-75626901D01*
X149962597Y-75607640D01*
X149959254Y-75593004D01*
X149954762Y-75580714D01*
X149948950Y-75568494D01*
X149930347Y-75541312D01*
X149897884Y-75515942D01*
X149859697Y-75502575D01*
X149819319Y-75501203D01*
X149780282Y-75511819D01*
X149746119Y-75534416D01*
X149720363Y-75568986D01*
X149717449Y-75575391D01*
X149713536Y-75587604D01*
X149710571Y-75603842D01*
X149708428Y-75626256D01*
X149706981Y-75656998D01*
X149706103Y-75698218D01*
X149705667Y-75752069D01*
X149705547Y-75820700D01*
X149705533Y-76042950D01*
X149570067Y-76042950D01*
X149570150Y-75791067D01*
X149570157Y-75770951D01*
X149570246Y-75702966D01*
X149570536Y-75649270D01*
X149571171Y-75607760D01*
X149572295Y-75576332D01*
X149574051Y-75552885D01*
X149576584Y-75535316D01*
X149580037Y-75521522D01*
X149584554Y-75509401D01*
X149590279Y-75496850D01*
X149605287Y-75469942D01*
X149642466Y-75426025D01*
X149687980Y-75393544D01*
X149739089Y-75373073D01*
X149793056Y-75365183D01*
X149847142Y-75370449D01*
X149898608Y-75389441D01*
X149944717Y-75422733D01*
X149968000Y-75444985D01*
X149968000Y-75180435D01*
X149967978Y-75146283D01*
X149967729Y-75076597D01*
X149967157Y-75021828D01*
X149966204Y-74980559D01*
X149964812Y-74951373D01*
X149962922Y-74932851D01*
X149960476Y-74923577D01*
X149957417Y-74922134D01*
X149956192Y-74922875D01*
X149941233Y-74932776D01*
X149921434Y-74946680D01*
X149879020Y-74970419D01*
X149825893Y-74984973D01*
X149771713Y-74986075D01*
X149719175Y-74974693D01*
X149670972Y-74951796D01*
X149629798Y-74918352D01*
X149598347Y-74875330D01*
X149579313Y-74823697D01*
X149578573Y-74819925D01*
X149574903Y-74789189D01*
X149572307Y-74746402D01*
X149570787Y-74695699D01*
X149570381Y-74645950D01*
X149705905Y-74645950D01*
X149705948Y-74657208D01*
X149708187Y-74716835D01*
X149714284Y-74762285D01*
X149724868Y-74795676D01*
X149740570Y-74819127D01*
X149762018Y-74834757D01*
X149783218Y-74843485D01*
X149829161Y-74852343D01*
X149873303Y-74849218D01*
X149880192Y-74847377D01*
X149914387Y-74829639D01*
X149939871Y-74799207D01*
X149956894Y-74755487D01*
X149965702Y-74697884D01*
X149966545Y-74625803D01*
X149963468Y-74581403D01*
X149953900Y-74527839D01*
X149937606Y-74488267D01*
X149913726Y-74461433D01*
X149881400Y-74446085D01*
X149839769Y-74440968D01*
X149814771Y-74441735D01*
X149777291Y-74448855D01*
X149748893Y-74464674D01*
X149728568Y-74490744D01*
X149715303Y-74528614D01*
X149708086Y-74579833D01*
X149705905Y-74645950D01*
X149570381Y-74645950D01*
X149570342Y-74641216D01*
X149570972Y-74587090D01*
X149572677Y-74537455D01*
X149575458Y-74496447D01*
X149579313Y-74468203D01*
X149580513Y-74462960D01*
X149601293Y-74411333D01*
X149635177Y-74368047D01*
X149679806Y-74334901D01*
X149732818Y-74313694D01*
X149791853Y-74306225D01*
X149839251Y-74309752D01*
X149891563Y-74325224D01*
X149940028Y-74354543D01*
X149968000Y-74375879D01*
X149968000Y-74307284D01*
X150103467Y-74307284D01*
X150103467Y-76042950D01*
X149968000Y-76042950D01*
G36*
X148525953Y-75371661D02*
G01*
X148578581Y-75390565D01*
X148623917Y-75422733D01*
X148647200Y-75444985D01*
X148647200Y-75374084D01*
X148782667Y-75374084D01*
X148782667Y-76042950D01*
X148647200Y-76042950D01*
X148647187Y-75820700D01*
X148647185Y-75812767D01*
X148646969Y-75740512D01*
X148646108Y-75682952D01*
X148644209Y-75638048D01*
X148640873Y-75603764D01*
X148635706Y-75578061D01*
X148628311Y-75558901D01*
X148618292Y-75544247D01*
X148605253Y-75532060D01*
X148588798Y-75520302D01*
X148571401Y-75511278D01*
X148533698Y-75502226D01*
X148494397Y-75502935D01*
X148460933Y-75513784D01*
X148444194Y-75522051D01*
X148430662Y-75526183D01*
X148428439Y-75525414D01*
X148416327Y-75515365D01*
X148397944Y-75496106D01*
X148376312Y-75470719D01*
X148354635Y-75443055D01*
X148342430Y-75424469D01*
X148339030Y-75413197D01*
X148343084Y-75406634D01*
X148359127Y-75396524D01*
X148412744Y-75374441D01*
X148469514Y-75366220D01*
X148525953Y-75371661D01*
G37*
X148525953Y-75371661D02*
X148578581Y-75390565D01*
X148623917Y-75422733D01*
X148647200Y-75444985D01*
X148647200Y-75374084D01*
X148782667Y-75374084D01*
X148782667Y-76042950D01*
X148647200Y-76042950D01*
X148647187Y-75820700D01*
X148647185Y-75812767D01*
X148646969Y-75740512D01*
X148646108Y-75682952D01*
X148644209Y-75638048D01*
X148640873Y-75603764D01*
X148635706Y-75578061D01*
X148628311Y-75558901D01*
X148618292Y-75544247D01*
X148605253Y-75532060D01*
X148588798Y-75520302D01*
X148571401Y-75511278D01*
X148533698Y-75502226D01*
X148494397Y-75502935D01*
X148460933Y-75513784D01*
X148444194Y-75522051D01*
X148430662Y-75526183D01*
X148428439Y-75525414D01*
X148416327Y-75515365D01*
X148397944Y-75496106D01*
X148376312Y-75470719D01*
X148354635Y-75443055D01*
X148342430Y-75424469D01*
X148339030Y-75413197D01*
X148343084Y-75406634D01*
X148359127Y-75396524D01*
X148412744Y-75374441D01*
X148469514Y-75366220D01*
X148525953Y-75371661D01*
D15*
X259330000Y-74250000D02*
X259330000Y-76410000D01*
X256170000Y-74250000D02*
X257100000Y-74250000D01*
X259330000Y-74250000D02*
X258400000Y-74250000D01*
X256170000Y-74250000D02*
X256170000Y-75710000D01*
X25862223Y-2735061D02*
X26316351Y-2735061D01*
X25862223Y-1265061D02*
X26316351Y-1265061D01*
X35290000Y-39280000D02*
X37290000Y-39280000D01*
X38590000Y-34830000D02*
X39040000Y-35280000D01*
X38590000Y-38230000D02*
X39040000Y-37780000D01*
X33540000Y-35280000D02*
X33540000Y-37780000D01*
X33990000Y-38230000D02*
X33540000Y-37780000D01*
X33990000Y-34830000D02*
X33540000Y-35280000D01*
X35290000Y-33780000D02*
X37290000Y-33780000D01*
X39040000Y-35280000D02*
X39040000Y-37780000D01*
X22495010Y-52345543D02*
X22125543Y-52715010D01*
X23534457Y-53384990D02*
X23164990Y-53754457D01*
X146060000Y-39290000D02*
X146990000Y-39290000D01*
X149220000Y-39290000D02*
X148290000Y-39290000D01*
X146060000Y-39290000D02*
X146060000Y-37130000D01*
X149220000Y-39290000D02*
X149220000Y-37830000D01*
X145228320Y-48691821D02*
X144422917Y-49156821D01*
X145228320Y-48691821D02*
X146308320Y-50562436D01*
X142491680Y-50271821D02*
X143221680Y-51536218D01*
X142491680Y-50271821D02*
X143297083Y-49806821D01*
X168034779Y-43104558D02*
X168534128Y-41732607D01*
X165065350Y-42023775D02*
X165939264Y-42341853D01*
X165065350Y-42023775D02*
X165804114Y-39994039D01*
X168034779Y-43104558D02*
X167160865Y-42786479D01*
X20352962Y-57643866D02*
X20268109Y-57559013D01*
X21745962Y-56081160D02*
X22149013Y-55678109D01*
X23177853Y-56706949D02*
X22640452Y-56169548D01*
X20268109Y-57559013D02*
X20671160Y-57155962D01*
X22237401Y-57647401D02*
X23177853Y-56706949D01*
X22233866Y-55762962D02*
X22149013Y-55678109D01*
X21851252Y-30015000D02*
X21328748Y-30015000D01*
X21851252Y-31485000D02*
X21328748Y-31485000D01*
X134850000Y-51100000D02*
X134850000Y-52560000D01*
X138010000Y-51100000D02*
X138010000Y-53260000D01*
X138010000Y-51100000D02*
X137080000Y-51100000D01*
X134850000Y-51100000D02*
X135780000Y-51100000D01*
X158084828Y-63489380D02*
X159117203Y-62457004D01*
X158084828Y-63489380D02*
X157427218Y-62831771D01*
X155850370Y-61254922D02*
X156507979Y-61912532D01*
X155850370Y-61254922D02*
X157377721Y-59727572D01*
X235540000Y-72520061D02*
X235540000Y-65320061D01*
X235540000Y-65320061D02*
X237032509Y-65320061D01*
X240740000Y-72520061D02*
X240740000Y-65520061D01*
X42210000Y-34850000D02*
X41760000Y-35300000D01*
X47260000Y-35300000D02*
X47260000Y-37800000D01*
X46810000Y-34850000D02*
X47260000Y-35300000D01*
X43510000Y-39300000D02*
X45510000Y-39300000D01*
X46810000Y-38250000D02*
X47260000Y-37800000D01*
X41760000Y-35300000D02*
X41760000Y-37800000D01*
X42210000Y-38250000D02*
X41760000Y-37800000D01*
X43510000Y-33800000D02*
X45510000Y-33800000D01*
X157200000Y-51100000D02*
X157200000Y-52560000D01*
X160360000Y-51100000D02*
X159430000Y-51100000D01*
X157200000Y-51100000D02*
X158130000Y-51100000D01*
X160360000Y-51100000D02*
X160360000Y-53260000D01*
X27784990Y-58374457D02*
X28154457Y-58004990D01*
X26745543Y-57335010D02*
X27115010Y-56965543D01*
X259840000Y-74250000D02*
X259840000Y-75710000D01*
X263000000Y-74250000D02*
X262070000Y-74250000D01*
X263000000Y-74250000D02*
X263000000Y-76410000D01*
X259840000Y-74250000D02*
X260770000Y-74250000D01*
X22485543Y-58435010D02*
X22855010Y-58065543D01*
X23524990Y-59474457D02*
X23894457Y-59104990D01*
X152818320Y-50271821D02*
X151738320Y-52142436D01*
X150081680Y-48691821D02*
X149351680Y-49956218D01*
X150081680Y-48691821D02*
X150887083Y-49156821D01*
X152818320Y-50271821D02*
X152012917Y-49806821D01*
X19381252Y-19535000D02*
X18858748Y-19535000D01*
X19381252Y-18065000D02*
X18858748Y-18065000D01*
X164385000Y-31174750D02*
X165315000Y-31174750D01*
X164385000Y-31174750D02*
X164385000Y-32634750D01*
X167545000Y-31174750D02*
X167545000Y-33334750D01*
X167545000Y-31174750D02*
X166615000Y-31174750D01*
X47845000Y-38902936D02*
X47845000Y-39357064D01*
X49315000Y-38902936D02*
X49315000Y-39357064D01*
X40700000Y-13700000D02*
X39207491Y-13700000D01*
X40700000Y-6500000D02*
X40700000Y-13700000D01*
X35500000Y-6500000D02*
X35500000Y-13500000D01*
X130865976Y-41872818D02*
X131781848Y-41711325D01*
X133977969Y-41324090D02*
X133724443Y-39886270D01*
X133977969Y-41324090D02*
X133062098Y-41485583D01*
X130865976Y-41872818D02*
X130490896Y-39745633D01*
X139730172Y-60944630D02*
X140387782Y-60287021D01*
X139730172Y-60944630D02*
X138202822Y-59417279D01*
X141964630Y-58710172D02*
X140932254Y-57677797D01*
X141964630Y-58710172D02*
X141307021Y-59367782D01*
X25592223Y-17505061D02*
X26046351Y-17505061D01*
X25592223Y-16035061D02*
X26046351Y-16035061D01*
X41155000Y-39347064D02*
X41155000Y-38892936D01*
X39685000Y-39347064D02*
X39685000Y-38892936D01*
X20394457Y-50294990D02*
X20024990Y-50664457D01*
X19355010Y-49255543D02*
X18985543Y-49625010D01*
X173609287Y-65320061D02*
X175101796Y-65320061D01*
X173609287Y-72520061D02*
X173609287Y-65320061D01*
X178809287Y-72520061D02*
X178809287Y-65520061D01*
X148665000Y-33454750D02*
X148665000Y-32524750D01*
X148665000Y-30294750D02*
X150825000Y-30294750D01*
X148665000Y-33454750D02*
X150125000Y-33454750D01*
X148665000Y-30294750D02*
X148665000Y-31224750D01*
X139419630Y-61264922D02*
X138387254Y-60232547D01*
X137185172Y-63499380D02*
X137842782Y-62841771D01*
X139419630Y-61264922D02*
X138762021Y-61922532D01*
X137185172Y-63499380D02*
X135657822Y-61972029D01*
X25882223Y-3325061D02*
X26336351Y-3325061D01*
X25882223Y-4795061D02*
X26336351Y-4795061D01*
X152834630Y-56019828D02*
X151307279Y-57547178D01*
X150600172Y-53785370D02*
X151257782Y-54442979D01*
X150600172Y-53785370D02*
X149567797Y-54817746D01*
X152834630Y-56019828D02*
X152177021Y-55362218D01*
X157885000Y-31174750D02*
X157885000Y-32634750D01*
X157885000Y-31174750D02*
X158815000Y-31174750D01*
X161045000Y-31174750D02*
X161045000Y-33334750D01*
X161045000Y-31174750D02*
X160115000Y-31174750D01*
X161302031Y-41324090D02*
X162217902Y-41485583D01*
X164414024Y-41872818D02*
X163498152Y-41711325D01*
X161302031Y-41324090D02*
X161677111Y-39196905D01*
X164414024Y-41872818D02*
X164667550Y-40434999D01*
X25602223Y-18065061D02*
X26056351Y-18065061D01*
X25602223Y-19535061D02*
X26056351Y-19535061D01*
X28310000Y-74130000D02*
X27380000Y-74130000D01*
X25150000Y-74130000D02*
X25150000Y-75590000D01*
X25150000Y-74130000D02*
X26080000Y-74130000D01*
X28310000Y-74130000D02*
X28310000Y-76290000D01*
X22489060Y-55052513D02*
X24822513Y-52719060D01*
X24822513Y-52719060D02*
X27650940Y-55547487D01*
X130304650Y-42023775D02*
X129430736Y-42341853D01*
X127335221Y-43104558D02*
X128209135Y-42786479D01*
X130304650Y-42023775D02*
X129805300Y-40651823D01*
X127335221Y-43104558D02*
X126596457Y-41074822D01*
X45570000Y-72520000D02*
X45570000Y-65520000D01*
X40370000Y-65320000D02*
X41862509Y-65320000D01*
X40370000Y-72520000D02*
X40370000Y-65320000D01*
X4630000Y-38320000D02*
X7290000Y-38320000D01*
X4630000Y-28100000D02*
X7290000Y-28100000D01*
X5960000Y-40920000D02*
X7290000Y-40920000D01*
X4630000Y-38320000D02*
X4630000Y-28100000D01*
X7290000Y-40920000D02*
X7290000Y-39590000D01*
X7290000Y-38320000D02*
X7290000Y-28100000D01*
X54895000Y-46650000D02*
X54895000Y-43925000D01*
X49445000Y-43925000D02*
X49705000Y-43925000D01*
X54895000Y-46650000D02*
X54895000Y-49375000D01*
X49445000Y-46650000D02*
X49445000Y-43925000D01*
X54895000Y-49375000D02*
X54635000Y-49375000D01*
X54895000Y-43925000D02*
X54635000Y-43925000D01*
X49445000Y-46650000D02*
X49445000Y-49375000D01*
X49445000Y-49375000D02*
X49705000Y-49375000D01*
X49705000Y-43925000D02*
X49705000Y-42250000D01*
G36*
X226531871Y-46376158D02*
G01*
X226073624Y-46685150D01*
X225192047Y-47234759D01*
X223949897Y-47987184D01*
X222409928Y-48904622D01*
X220634897Y-49949272D01*
X218687559Y-51083331D01*
X210860814Y-55618451D01*
X210782706Y-46461181D01*
X210781024Y-46243893D01*
X211303838Y-46243893D01*
X211304022Y-46583040D01*
X211313835Y-48697765D01*
X211337139Y-50594181D01*
X211371939Y-52197812D01*
X211416238Y-53434183D01*
X211468041Y-54228818D01*
X211525349Y-54507241D01*
X211735797Y-54427173D01*
X212392700Y-54091367D01*
X213400949Y-53536727D01*
X214682003Y-52809835D01*
X216157324Y-51957270D01*
X217748370Y-51025613D01*
X219376603Y-50061444D01*
X220963481Y-49111344D01*
X222430466Y-48221892D01*
X223699017Y-47439669D01*
X224690595Y-46811255D01*
X225326659Y-46383231D01*
X225528669Y-46202177D01*
X225375904Y-46100003D01*
X224778380Y-45736371D01*
X223808981Y-45159924D01*
X222550242Y-44418665D01*
X221084699Y-43560597D01*
X219494887Y-42633720D01*
X217863343Y-41686037D01*
X216272601Y-40765550D01*
X214805198Y-39920262D01*
X213543668Y-39198174D01*
X212570548Y-38647289D01*
X211968372Y-38315608D01*
X211303838Y-37963734D01*
X211303838Y-46243893D01*
X210781024Y-46243893D01*
X210774485Y-45399145D01*
X210763111Y-43215350D01*
X210760335Y-41260771D01*
X210765803Y-39607694D01*
X210779163Y-38328409D01*
X210800060Y-37495204D01*
X210828141Y-37180369D01*
X210920773Y-37200253D01*
X211442643Y-37447272D01*
X212355024Y-37930780D01*
X213582455Y-38606965D01*
X215049475Y-39432016D01*
X216680622Y-40362120D01*
X218400433Y-41353464D01*
X220133448Y-42362238D01*
X221804204Y-43344629D01*
X223337240Y-44256824D01*
X224657094Y-45055012D01*
X225688305Y-45695381D01*
X226355410Y-46134118D01*
X226435527Y-46202177D01*
X226582948Y-46327410D01*
X226531871Y-46376158D01*
G37*
G36*
X227841545Y-27038629D02*
G01*
X227825696Y-28840783D01*
X227795671Y-30389011D01*
X227754019Y-31599122D01*
X227703290Y-32386928D01*
X227646036Y-32668238D01*
X227623651Y-32664192D01*
X227222013Y-32478213D01*
X226429222Y-32053302D01*
X225335805Y-31442443D01*
X224032284Y-30698622D01*
X222609184Y-29874823D01*
X221157030Y-29024032D01*
X219766346Y-28199233D01*
X218527656Y-27453414D01*
X217531483Y-26839558D01*
X216868354Y-26410650D01*
X216741961Y-26309893D01*
X217267561Y-26309893D01*
X217272098Y-26313153D01*
X217585092Y-26500949D01*
X218322750Y-26933244D01*
X219405078Y-27563450D01*
X220752080Y-28344980D01*
X222283764Y-29231247D01*
X222418561Y-29309109D01*
X223943102Y-30184487D01*
X225282762Y-30944491D01*
X226356149Y-31543649D01*
X227081869Y-31936489D01*
X227378532Y-32077541D01*
X227389554Y-32065041D01*
X227439879Y-31673267D01*
X227483410Y-30797287D01*
X227517626Y-29525339D01*
X227540004Y-27945657D01*
X227548024Y-26146475D01*
X227548024Y-20215410D01*
X226588140Y-20791813D01*
X226293908Y-20966190D01*
X225458862Y-21454454D01*
X224290640Y-22133079D01*
X222901186Y-22937093D01*
X221402445Y-23801524D01*
X220369853Y-24400006D01*
X219112214Y-25141051D01*
X218121097Y-25739658D01*
X217478785Y-26145911D01*
X217267561Y-26309893D01*
X216741961Y-26309893D01*
X216628791Y-26219677D01*
X216695681Y-26146561D01*
X217170778Y-25813833D01*
X218026838Y-25276334D01*
X219174704Y-24589251D01*
X220525222Y-23807773D01*
X220970674Y-23553971D01*
X222510141Y-22676862D01*
X223981881Y-21838373D01*
X225237393Y-21123108D01*
X226128175Y-20615670D01*
X227843372Y-19638684D01*
X227843372Y-26153460D01*
X227841545Y-27038629D01*
G37*
G36*
X203490458Y-47007307D02*
G01*
X202963516Y-49062924D01*
X202351582Y-51406848D01*
X201668603Y-53983967D01*
X200928532Y-56739169D01*
X200853653Y-57016151D01*
X200112249Y-59759849D01*
X199420580Y-62321581D01*
X198793582Y-64645886D01*
X198246192Y-66677304D01*
X197793343Y-68360374D01*
X197449973Y-69639634D01*
X197231016Y-70459624D01*
X197151408Y-70764881D01*
X197069530Y-70713066D01*
X196635217Y-70323943D01*
X195878410Y-69606335D01*
X194857095Y-68616153D01*
X193629259Y-67409307D01*
X192252887Y-66041708D01*
X187378681Y-61174217D01*
X176194799Y-72355194D01*
X175107197Y-73440643D01*
X173047256Y-75485906D01*
X171133003Y-77372775D01*
X169403065Y-79063981D01*
X167896074Y-80522257D01*
X166650659Y-81710335D01*
X165705449Y-82590946D01*
X165099075Y-83126821D01*
X164870166Y-83280693D01*
X164797479Y-83064169D01*
X164586966Y-82336505D01*
X164265971Y-81179394D01*
X163856536Y-79673382D01*
X163380703Y-77899017D01*
X162860512Y-75936843D01*
X162458106Y-74421360D01*
X161966361Y-72600045D01*
X161533325Y-71030338D01*
X161181449Y-69792266D01*
X160933184Y-68965860D01*
X160810981Y-68631148D01*
X160735440Y-68693941D01*
X160393872Y-69179150D01*
X159809390Y-70095431D01*
X159012983Y-71391554D01*
X158035635Y-73016287D01*
X156908335Y-74918400D01*
X155662069Y-77046661D01*
X154327824Y-79349840D01*
X153527392Y-80734283D01*
X152235696Y-82948996D01*
X151047271Y-84962821D01*
X149993649Y-86723703D01*
X149106359Y-88179585D01*
X148416933Y-89278414D01*
X147956899Y-89968133D01*
X147757789Y-90196687D01*
X147649116Y-90044573D01*
X147259913Y-89416888D01*
X146608049Y-88332271D01*
X145711831Y-86822050D01*
X144589565Y-84917549D01*
X143259560Y-82650095D01*
X141740121Y-80051013D01*
X140049555Y-77151630D01*
X138206170Y-73983272D01*
X136228272Y-70577263D01*
X134134168Y-66964931D01*
X131942164Y-63177602D01*
X129670568Y-59246600D01*
X112952839Y-30294148D01*
X115364690Y-30294148D01*
X115368594Y-30302820D01*
X115561619Y-30652648D01*
X116028486Y-31476735D01*
X116750110Y-32741851D01*
X117707406Y-34414765D01*
X118881287Y-36462247D01*
X120252667Y-38851068D01*
X121802462Y-41547997D01*
X123511586Y-44519804D01*
X125360952Y-47733260D01*
X127331476Y-51155133D01*
X129404071Y-54752193D01*
X131559652Y-58491212D01*
X131849892Y-58994477D01*
X133994502Y-62710554D01*
X136054576Y-66275680D01*
X138011014Y-69657034D01*
X139844715Y-72821798D01*
X141536580Y-75737150D01*
X143067509Y-78370271D01*
X144418402Y-80688341D01*
X145570160Y-82658540D01*
X146503682Y-84248048D01*
X147199869Y-85424046D01*
X147639621Y-86153712D01*
X147803838Y-86404227D01*
X147849348Y-86339588D01*
X148149536Y-85846509D01*
X148709650Y-84901609D01*
X149506608Y-83544813D01*
X150517328Y-81816047D01*
X151718727Y-79755235D01*
X153087723Y-77402302D01*
X154601234Y-74797174D01*
X156236179Y-71979776D01*
X157969475Y-68990033D01*
X159317734Y-66662505D01*
X161763187Y-66662505D01*
X161772946Y-66936013D01*
X161908884Y-67739488D01*
X162168259Y-68964494D01*
X162531858Y-70526082D01*
X162980467Y-72339302D01*
X163494876Y-74319206D01*
X163907278Y-75857290D01*
X164397264Y-77647839D01*
X164826196Y-79174300D01*
X165172026Y-80359811D01*
X165412706Y-81127511D01*
X165526188Y-81400540D01*
X165617396Y-81326305D01*
X166080451Y-80890139D01*
X166899186Y-80096204D01*
X168035290Y-78982329D01*
X169450450Y-77586341D01*
X171106357Y-75946068D01*
X172964697Y-74099337D01*
X174987161Y-72083977D01*
X177135437Y-69937815D01*
X188595592Y-58474834D01*
X178951192Y-55888276D01*
X177217248Y-55425091D01*
X175069026Y-54856723D01*
X173159637Y-54357766D01*
X171555345Y-53945219D01*
X170322416Y-53636081D01*
X169527117Y-53447350D01*
X169235713Y-53396025D01*
X169069631Y-53651170D01*
X168638189Y-54371644D01*
X168014203Y-55443778D01*
X167246335Y-56781175D01*
X166383247Y-58297441D01*
X165473604Y-59906183D01*
X164566067Y-61521004D01*
X163709300Y-63055511D01*
X162951965Y-64423310D01*
X162342727Y-65538004D01*
X161930246Y-66313201D01*
X161763187Y-66662505D01*
X159317734Y-66662505D01*
X159778040Y-65867870D01*
X161638792Y-62653213D01*
X163528649Y-59385986D01*
X165424529Y-56106114D01*
X167303349Y-52853524D01*
X169142029Y-49668139D01*
X170917484Y-46589885D01*
X172606634Y-43658688D01*
X174186397Y-40914471D01*
X175633689Y-38397162D01*
X176925430Y-36146684D01*
X178038537Y-34202962D01*
X178949928Y-32605923D01*
X179636521Y-31395491D01*
X180075234Y-30611590D01*
X180242985Y-30294148D01*
X179979401Y-30247717D01*
X179138809Y-30204159D01*
X177734134Y-30164687D01*
X175778828Y-30129417D01*
X173286341Y-30098468D01*
X170270123Y-30071957D01*
X166743625Y-30050002D01*
X162720297Y-30032721D01*
X158213590Y-30020232D01*
X153236953Y-30012652D01*
X147803838Y-30010099D01*
X142486051Y-30012540D01*
X137499169Y-30020010D01*
X132981917Y-30032392D01*
X128947748Y-30049569D01*
X125410111Y-30071421D01*
X122382457Y-30097833D01*
X119878236Y-30128685D01*
X117910898Y-30163861D01*
X116493894Y-30203241D01*
X115640675Y-30246710D01*
X115364690Y-30294148D01*
X112952839Y-30294148D01*
X111850851Y-28385680D01*
X129827345Y-28309573D01*
X133784593Y-28295896D01*
X138206378Y-28286060D01*
X142924116Y-28280154D01*
X147790035Y-28278178D01*
X152656361Y-28280132D01*
X157375321Y-28286016D01*
X161799143Y-28295830D01*
X165780054Y-28309573D01*
X183756270Y-28385680D01*
X182654709Y-30294148D01*
X176862377Y-40329438D01*
X175553163Y-42601747D01*
X174250269Y-44871783D01*
X173071954Y-46933741D01*
X172046824Y-48737123D01*
X171203482Y-50231433D01*
X170570536Y-51366174D01*
X170176590Y-52090849D01*
X170050249Y-52354960D01*
X170181661Y-52404496D01*
X170789700Y-52587229D01*
X171794911Y-52872853D01*
X173090822Y-53232603D01*
X174570965Y-53637714D01*
X176128868Y-54059420D01*
X177658063Y-54468957D01*
X179052077Y-54837558D01*
X180204442Y-55136460D01*
X181008687Y-55336895D01*
X181358342Y-55410099D01*
X181368142Y-55406205D01*
X181216709Y-55161116D01*
X180723897Y-54590377D01*
X179959783Y-53771852D01*
X178994443Y-52783408D01*
X178985724Y-52774648D01*
X177901791Y-51667677D01*
X177201769Y-50899821D01*
X176992973Y-50616683D01*
X178229978Y-50616683D01*
X178464708Y-50940624D01*
X179035283Y-51575343D01*
X179868092Y-52441489D01*
X180889520Y-53459710D01*
X183688721Y-56198902D01*
X187011396Y-57052414D01*
X188260343Y-57385691D01*
X189337198Y-57698416D01*
X190066048Y-57939696D01*
X190334070Y-58074816D01*
X190227148Y-58249087D01*
X190029483Y-58474834D01*
X189796166Y-58741299D01*
X189147518Y-59402344D01*
X187960966Y-60560981D01*
X192171023Y-64778563D01*
X192442977Y-65050576D01*
X193707200Y-66303490D01*
X194819422Y-67387313D01*
X195713885Y-68239236D01*
X196324833Y-68796450D01*
X196586510Y-68996145D01*
X196624881Y-69005379D01*
X196667578Y-69023521D01*
X196711686Y-69003933D01*
X196770985Y-68898179D01*
X196859255Y-68657821D01*
X196990276Y-68234422D01*
X197177828Y-67579544D01*
X197435692Y-66644749D01*
X197777647Y-65381601D01*
X198217474Y-63741662D01*
X198768952Y-61676494D01*
X199445863Y-59137660D01*
X200261984Y-56076722D01*
X200599108Y-54808182D01*
X201247843Y-52339915D01*
X201832233Y-50080436D01*
X202337276Y-48089975D01*
X202747973Y-46428765D01*
X203049321Y-45157036D01*
X203226322Y-44335020D01*
X203263973Y-44022948D01*
X203263005Y-44022231D01*
X202946430Y-44070865D01*
X202132463Y-44254675D01*
X200892034Y-44555042D01*
X199296073Y-44953345D01*
X197415508Y-45430965D01*
X195321270Y-45969281D01*
X193084288Y-46549673D01*
X190775492Y-47153523D01*
X188465812Y-47762208D01*
X186226177Y-48357110D01*
X184127517Y-48919608D01*
X182240762Y-49431083D01*
X180636841Y-49872915D01*
X179386684Y-50226482D01*
X178561221Y-50473166D01*
X178231380Y-50594347D01*
X178229978Y-50616683D01*
X176992973Y-50616683D01*
X176838457Y-50407152D01*
X176764654Y-50125742D01*
X176933159Y-49991662D01*
X177668176Y-49780569D01*
X178894510Y-49441221D01*
X180492563Y-49006973D01*
X182395019Y-48495494D01*
X184534565Y-47924452D01*
X186843886Y-47311516D01*
X189255667Y-46674354D01*
X191702595Y-46030634D01*
X194117354Y-45398026D01*
X196432630Y-44794198D01*
X198581110Y-44236817D01*
X200495477Y-43743554D01*
X202108419Y-43332076D01*
X203352620Y-43020051D01*
X204160766Y-42825149D01*
X204465543Y-42765037D01*
X204469303Y-42770166D01*
X204421829Y-43121427D01*
X204233564Y-43981447D01*
X204223609Y-44022948D01*
X203918457Y-45295111D01*
X203490458Y-47007307D01*
G37*
X17890000Y-74140000D02*
X18820000Y-74140000D01*
X21050000Y-74140000D02*
X20120000Y-74140000D01*
X17890000Y-74140000D02*
X17890000Y-75600000D01*
X21050000Y-74140000D02*
X21050000Y-76300000D01*
X97420000Y-72520061D02*
X97420000Y-65320061D01*
X102620000Y-72520061D02*
X102620000Y-65520061D01*
X97420000Y-65320061D02*
X98912509Y-65320061D01*
X21851252Y-32045000D02*
X21328748Y-32045000D01*
X21851252Y-33515000D02*
X21328748Y-33515000D01*
G36*
X237712599Y-12315769D02*
G01*
X236773282Y-11477942D01*
X235560761Y-10329753D01*
X234105851Y-8898580D01*
X233450034Y-8239431D01*
X232294296Y-7054806D01*
X231319079Y-6024906D01*
X230575756Y-5205607D01*
X230160295Y-4706371D01*
X230593085Y-4706371D01*
X230604054Y-4728276D01*
X230870430Y-5037114D01*
X231450169Y-5652923D01*
X232286268Y-6516671D01*
X233321722Y-7569325D01*
X234499529Y-8751853D01*
X235759489Y-9994334D01*
X236953028Y-11126268D01*
X237808623Y-11874401D01*
X238338365Y-12249199D01*
X238554344Y-12261124D01*
X238606766Y-12106212D01*
X238796823Y-11463952D01*
X239071329Y-10479736D01*
X239405155Y-9249507D01*
X239773172Y-7869204D01*
X240150252Y-6434770D01*
X240511265Y-5042146D01*
X240831083Y-3787271D01*
X241084576Y-2766089D01*
X241246616Y-2074539D01*
X241292075Y-1808563D01*
X241272249Y-1806745D01*
X240889528Y-1880121D01*
X240082490Y-2070342D01*
X238930022Y-2357824D01*
X237511011Y-2722981D01*
X235904343Y-3146226D01*
X235512323Y-3250999D01*
X233948563Y-3677272D01*
X232597072Y-4058766D01*
X231535538Y-4372661D01*
X230841646Y-4596136D01*
X230593085Y-4706371D01*
X230160295Y-4706371D01*
X230115700Y-4652784D01*
X229990282Y-4422311D01*
X230069733Y-4385016D01*
X230577623Y-4218693D01*
X231469000Y-3956683D01*
X232653459Y-3623075D01*
X234040595Y-3241956D01*
X235540006Y-2837414D01*
X237061286Y-2433537D01*
X238514031Y-2054414D01*
X239807837Y-1724133D01*
X240852300Y-1466780D01*
X241557016Y-1306446D01*
X241831580Y-1267217D01*
X241835593Y-1308501D01*
X241756873Y-1744211D01*
X241561890Y-2577526D01*
X241275392Y-3717379D01*
X240922127Y-5072701D01*
X240526842Y-6552426D01*
X240114284Y-8065485D01*
X239709201Y-9520812D01*
X239336341Y-10827338D01*
X239020451Y-11893996D01*
X238786279Y-12629718D01*
X238658573Y-12943437D01*
X238648355Y-12950826D01*
X238554344Y-12908596D01*
X238347895Y-12815857D01*
X237712599Y-12315769D01*
G37*
G36*
X229032864Y-53640348D02*
G01*
X229350860Y-54173832D01*
X229902258Y-55113662D01*
X230664691Y-56421283D01*
X231615795Y-58058141D01*
X232733206Y-59985680D01*
X233994559Y-62165347D01*
X235377489Y-64558585D01*
X236859632Y-67126841D01*
X238418622Y-69831559D01*
X239313974Y-71385633D01*
X240850180Y-74051020D01*
X242305329Y-76574497D01*
X243655850Y-78915256D01*
X244878173Y-81032491D01*
X245948725Y-82885397D01*
X246843937Y-84433167D01*
X247540238Y-85634994D01*
X248014056Y-86450073D01*
X248241820Y-86837596D01*
X248803451Y-87765974D01*
X247196672Y-86851893D01*
X247032944Y-86758420D01*
X246107549Y-86224094D01*
X244890308Y-85514829D01*
X243520516Y-84711984D01*
X242137468Y-83896920D01*
X238685043Y-81856027D01*
X231271334Y-69020921D01*
X230425627Y-67556646D01*
X229085542Y-65235843D01*
X227844445Y-63085792D01*
X226726819Y-61148948D01*
X225757148Y-59467764D01*
X224959917Y-58084693D01*
X224359609Y-57042190D01*
X223980707Y-56382709D01*
X223847696Y-56148702D01*
X224008221Y-55994865D01*
X224545115Y-55661254D01*
X225341977Y-55217632D01*
X226277012Y-54726328D01*
X227228426Y-54249671D01*
X228074426Y-53849991D01*
X228693218Y-53589617D01*
X228963008Y-53530879D01*
X229032864Y-53640348D01*
G37*
G36*
X235971002Y-49245175D02*
G01*
X236197030Y-49553185D01*
X236663904Y-50284207D01*
X237349304Y-51399706D01*
X238230909Y-52861150D01*
X239286399Y-54630006D01*
X240493456Y-56667739D01*
X241829759Y-58935818D01*
X243272988Y-61395708D01*
X244800823Y-64008876D01*
X246390945Y-66736789D01*
X248021033Y-69540914D01*
X249668768Y-72382717D01*
X251311830Y-75223665D01*
X252927898Y-78025225D01*
X254494654Y-80748864D01*
X255989777Y-83356047D01*
X257390948Y-85808242D01*
X258675845Y-88066916D01*
X259822151Y-90093535D01*
X260807544Y-91849566D01*
X261609706Y-93296476D01*
X262206315Y-94395730D01*
X262575052Y-95108797D01*
X262693598Y-95397143D01*
X262625355Y-95439955D01*
X262151561Y-95307893D01*
X261231354Y-94876437D01*
X259866517Y-94146463D01*
X258058831Y-93118847D01*
X253504365Y-90478140D01*
X242472164Y-71440488D01*
X241662238Y-70042083D01*
X239992098Y-67153524D01*
X238411617Y-64413478D01*
X236941014Y-61857355D01*
X235600510Y-59520564D01*
X234410323Y-57438514D01*
X233390674Y-55646616D01*
X232561782Y-54180277D01*
X231943867Y-53074909D01*
X231557147Y-52365920D01*
X231421844Y-52088719D01*
X231602210Y-51876838D01*
X232140507Y-51466229D01*
X232916486Y-50941623D01*
X233808109Y-50379748D01*
X234693336Y-49857330D01*
X235450127Y-49451098D01*
X235956442Y-49237778D01*
X235971002Y-49245175D01*
G37*
G36*
X262587059Y-33944059D02*
G01*
X262668647Y-34391315D01*
X262724067Y-35203232D01*
X262743115Y-36257623D01*
X262737825Y-38621984D01*
X261684952Y-36865602D01*
X261584640Y-36698110D01*
X261097235Y-35879492D01*
X260748869Y-35286450D01*
X260609391Y-35037694D01*
X260704856Y-34929991D01*
X261119011Y-34644514D01*
X261689654Y-34302463D01*
X262228120Y-34015247D01*
X262545745Y-33894271D01*
X262587059Y-33944059D01*
G37*
G36*
X214486001Y-62347689D02*
G01*
X214624403Y-62579092D01*
X215006389Y-63231156D01*
X215557712Y-64178831D01*
X216220490Y-65322005D01*
X216936838Y-66560569D01*
X217648874Y-67794410D01*
X218298712Y-68923419D01*
X218828470Y-69847485D01*
X219180264Y-70466496D01*
X219176014Y-70536674D01*
X218990483Y-70490891D01*
X218579314Y-70299554D01*
X217902703Y-69940875D01*
X216920844Y-69393066D01*
X215593935Y-68634337D01*
X213882170Y-67642902D01*
X211745745Y-66396972D01*
X210927603Y-65907886D01*
X210057876Y-65358340D01*
X209465262Y-64947226D01*
X209246277Y-64738579D01*
X209365693Y-64609253D01*
X209868281Y-64251118D01*
X210673071Y-63742432D01*
X211681486Y-63147600D01*
X214116695Y-61754245D01*
X214486001Y-62347689D01*
G37*
G36*
X271572833Y-68986761D02*
G01*
X270549822Y-68016360D01*
X269222983Y-66721706D01*
X267556137Y-65070926D01*
X267443679Y-64959102D01*
X265865024Y-63403886D01*
X264545480Y-62132252D01*
X263508226Y-61165310D01*
X262776442Y-60524173D01*
X262373307Y-60229952D01*
X262322001Y-60303758D01*
X262388658Y-60448894D01*
X262521948Y-60866545D01*
X262615909Y-61434497D01*
X262674934Y-62230722D01*
X262703419Y-63333186D01*
X262705757Y-64819859D01*
X262686342Y-66768711D01*
X262613298Y-72358273D01*
X254326671Y-58057150D01*
X254212460Y-57860010D01*
X252746653Y-55323861D01*
X251368046Y-52927712D01*
X250099746Y-50712433D01*
X248964861Y-48718893D01*
X247986498Y-46987960D01*
X247773579Y-46607442D01*
X250925669Y-46607442D01*
X250986581Y-46734367D01*
X251382280Y-47211457D01*
X252107394Y-48011355D01*
X253130872Y-49101679D01*
X254421658Y-50450048D01*
X255948700Y-52024083D01*
X257680945Y-53791402D01*
X259587337Y-55719624D01*
X261636825Y-57776370D01*
X262418041Y-58557051D01*
X264709110Y-60841067D01*
X266655003Y-62770597D01*
X268281156Y-64369551D01*
X269613005Y-65661836D01*
X270675985Y-66671360D01*
X271495533Y-67422032D01*
X272097084Y-67937760D01*
X272506073Y-68242451D01*
X272747936Y-68360015D01*
X272848110Y-68314359D01*
X272853832Y-68296013D01*
X272990669Y-67817774D01*
X273243593Y-66900117D01*
X273597522Y-65599590D01*
X274037377Y-63972742D01*
X274548076Y-62076120D01*
X275114539Y-59966272D01*
X275721687Y-57699748D01*
X276354437Y-55333095D01*
X276997710Y-52922861D01*
X277636426Y-50525595D01*
X278255504Y-48197844D01*
X278839863Y-45996157D01*
X279374423Y-43977082D01*
X279844104Y-42197167D01*
X280233824Y-40712960D01*
X280528504Y-39581010D01*
X280713063Y-38857865D01*
X280772421Y-38600073D01*
X280630293Y-38630718D01*
X280017224Y-38785759D01*
X278963053Y-39060276D01*
X277514495Y-39441871D01*
X275718267Y-39918150D01*
X273621084Y-40476718D01*
X271269661Y-41105179D01*
X268710714Y-41791137D01*
X265990958Y-42522197D01*
X264049220Y-43045085D01*
X261421097Y-43753682D01*
X258979279Y-44413052D01*
X258210553Y-44620990D01*
X256771712Y-45010193D01*
X254846339Y-45532105D01*
X253251105Y-45965787D01*
X252033952Y-46298238D01*
X251242825Y-46516456D01*
X250925669Y-46607442D01*
X247773579Y-46607442D01*
X247187764Y-45560504D01*
X246591766Y-44477394D01*
X246221612Y-43779498D01*
X246100409Y-43507685D01*
X246235104Y-43368750D01*
X246734482Y-43015554D01*
X247489891Y-42536756D01*
X248382606Y-42001544D01*
X249293900Y-41479108D01*
X250105047Y-41038636D01*
X250697323Y-40749319D01*
X250952002Y-40680345D01*
X250980489Y-40725084D01*
X251219983Y-41124823D01*
X251639526Y-41835918D01*
X252170780Y-42742729D01*
X252363649Y-43065286D01*
X252910705Y-43900578D01*
X253364026Y-44482334D01*
X253640791Y-44700265D01*
X253905495Y-44670426D01*
X254518284Y-44537672D01*
X255204049Y-44349707D01*
X255762434Y-44163208D01*
X255993085Y-44034850D01*
X255932876Y-43900973D01*
X255653759Y-43380798D01*
X255199141Y-42568363D01*
X254626527Y-41567495D01*
X254005326Y-40453134D01*
X253634306Y-39675016D01*
X253512606Y-39209637D01*
X253613229Y-38988284D01*
X253697988Y-38937932D01*
X254212688Y-38637656D01*
X255017349Y-38171808D01*
X255978361Y-37617807D01*
X256351824Y-37398872D01*
X257185061Y-36876200D01*
X257758721Y-36465607D01*
X257965795Y-36241215D01*
X257955453Y-36213040D01*
X257754007Y-35826115D01*
X257318047Y-35036625D01*
X256676809Y-33896133D01*
X255859530Y-32456199D01*
X254895447Y-30768387D01*
X253813797Y-28884258D01*
X252643817Y-26855375D01*
X252338868Y-26327244D01*
X251189114Y-24327603D01*
X250136311Y-22483545D01*
X249209592Y-20846994D01*
X248438095Y-19469875D01*
X247850953Y-18404109D01*
X247717584Y-18153367D01*
X248439221Y-18153367D01*
X248472868Y-18228624D01*
X248725655Y-18697957D01*
X249194846Y-19538185D01*
X249843370Y-20684937D01*
X250634155Y-22073844D01*
X251530129Y-23640535D01*
X252494220Y-25320639D01*
X253489357Y-27049787D01*
X254478468Y-28763609D01*
X255424480Y-30397734D01*
X256290323Y-31887792D01*
X257038923Y-33169412D01*
X257633209Y-34178226D01*
X258036110Y-34849861D01*
X258210553Y-35119949D01*
X258255489Y-35068987D01*
X258528106Y-34647618D01*
X259014553Y-33853513D01*
X259677953Y-32749718D01*
X260481431Y-31399277D01*
X261388109Y-29865238D01*
X262361112Y-28210646D01*
X263363562Y-26498546D01*
X264358583Y-24791984D01*
X265309299Y-23154005D01*
X266178833Y-21647656D01*
X266930310Y-20335983D01*
X267526851Y-19282030D01*
X267931581Y-18548843D01*
X268107624Y-18199468D01*
X268007622Y-18156707D01*
X267434048Y-18098126D01*
X266388576Y-18047848D01*
X264912441Y-18006920D01*
X263046878Y-17976389D01*
X260833123Y-17957303D01*
X258312411Y-17950708D01*
X258246055Y-17950712D01*
X256000085Y-17956345D01*
X253936259Y-17971793D01*
X252114288Y-17995831D01*
X250593886Y-18027233D01*
X249434766Y-18064774D01*
X248696640Y-18107227D01*
X248439221Y-18153367D01*
X247717584Y-18153367D01*
X247477302Y-17701622D01*
X247346277Y-17414335D01*
X247395613Y-17379371D01*
X247894477Y-17306763D01*
X248926617Y-17247081D01*
X250487131Y-17200448D01*
X252571117Y-17166986D01*
X255173672Y-17146819D01*
X258289894Y-17140070D01*
X258337759Y-17140071D01*
X260982459Y-17146279D01*
X263332774Y-17163854D01*
X265347702Y-17191861D01*
X266986241Y-17229367D01*
X268207390Y-17275437D01*
X268970147Y-17329136D01*
X269233511Y-17389529D01*
X269219129Y-17432620D01*
X269005378Y-17855544D01*
X268558134Y-18677613D01*
X267906247Y-19847614D01*
X267078567Y-21314337D01*
X266103941Y-23026571D01*
X265011221Y-24933104D01*
X263829255Y-26982725D01*
X263428413Y-27676228D01*
X262273700Y-29679388D01*
X261217655Y-31519233D01*
X260289065Y-33145094D01*
X259516717Y-34506299D01*
X258929399Y-35552177D01*
X258555898Y-36232057D01*
X258425000Y-36495267D01*
X258466473Y-36614272D01*
X258720358Y-37119164D01*
X259151226Y-37907089D01*
X259696303Y-38870123D01*
X260292816Y-39900344D01*
X260877992Y-40889827D01*
X261389058Y-41730650D01*
X261763240Y-42314890D01*
X261937766Y-42534622D01*
X261951881Y-42532496D01*
X262322637Y-42441989D01*
X263147431Y-42229128D01*
X264368801Y-41909080D01*
X265929281Y-41497009D01*
X267771408Y-41008083D01*
X269837717Y-40457466D01*
X272070745Y-39860326D01*
X272497992Y-39745965D01*
X274700336Y-39159203D01*
X276722752Y-38624841D01*
X278508270Y-38157616D01*
X279999918Y-37772268D01*
X281140726Y-37483535D01*
X281873722Y-37306155D01*
X282141936Y-37254868D01*
X282096868Y-37462166D01*
X281926430Y-38141495D01*
X281642939Y-39241432D01*
X281260675Y-40708253D01*
X280793917Y-42488236D01*
X280256945Y-44527657D01*
X279664037Y-46772792D01*
X279029475Y-49169920D01*
X278367536Y-51665316D01*
X277692500Y-54205258D01*
X277018647Y-56736023D01*
X276360256Y-59203886D01*
X275731607Y-61555126D01*
X275146978Y-63736019D01*
X274620650Y-65692842D01*
X274166901Y-67371871D01*
X273800011Y-68719384D01*
X273534260Y-69681658D01*
X273383927Y-70204968D01*
X273350202Y-70263296D01*
X273180701Y-70271177D01*
X272852093Y-70082297D01*
X272747936Y-69999290D01*
X272328197Y-69664783D01*
X271572833Y-68986761D01*
G37*
G36*
X218919883Y-18030135D02*
G01*
X217978987Y-17068078D01*
X217224859Y-16273058D01*
X216723777Y-15715608D01*
X216558668Y-15489101D01*
X217153646Y-15489101D01*
X217161041Y-15699160D01*
X217548357Y-16257311D01*
X218333140Y-17143902D01*
X219506796Y-18348490D01*
X220652646Y-19461076D01*
X221542098Y-20251748D01*
X222097418Y-20641540D01*
X222326173Y-20636597D01*
X222504624Y-20059629D01*
X222767438Y-19116732D01*
X223063160Y-17990569D01*
X223362912Y-16798666D01*
X223637816Y-15658547D01*
X223858994Y-14687735D01*
X223997570Y-14003755D01*
X224024665Y-13724132D01*
X224020737Y-13721412D01*
X223700203Y-13748159D01*
X222969519Y-13894578D01*
X221933124Y-14137750D01*
X220695455Y-14454756D01*
X220667325Y-14462232D01*
X219404466Y-14805318D01*
X218321653Y-15113091D01*
X217533255Y-15352153D01*
X217153646Y-15489101D01*
X216558668Y-15489101D01*
X216542021Y-15466263D01*
X216587379Y-15399759D01*
X216995672Y-15191553D01*
X217690426Y-14970101D01*
X217923479Y-14909022D01*
X218853605Y-14662434D01*
X220035623Y-14346446D01*
X221270745Y-14014134D01*
X221820865Y-13868479D01*
X222874291Y-13606321D01*
X223692027Y-13425033D01*
X224131783Y-13357284D01*
X224244230Y-13389950D01*
X224323401Y-13583269D01*
X224297543Y-14012759D01*
X224155254Y-14749128D01*
X223885130Y-15863087D01*
X223475770Y-17425342D01*
X222390635Y-21493594D01*
X222097418Y-21201286D01*
X219466328Y-18578355D01*
X218919883Y-18030135D01*
G37*
G36*
X221490627Y-57774541D02*
G01*
X221761035Y-58182244D01*
X222251079Y-58977376D01*
X222927827Y-60103067D01*
X223758350Y-61502447D01*
X224709717Y-63118643D01*
X225748999Y-64894787D01*
X226843265Y-66774008D01*
X227959586Y-68699434D01*
X229065030Y-70614197D01*
X230126669Y-72461424D01*
X231111571Y-74184246D01*
X231986807Y-75725792D01*
X232719446Y-77029192D01*
X233276558Y-78037574D01*
X233625214Y-78694069D01*
X233732483Y-78941806D01*
X233712651Y-78941018D01*
X233361886Y-78781051D01*
X232632075Y-78396884D01*
X231594172Y-77827314D01*
X230319129Y-77111142D01*
X228877899Y-76287165D01*
X224114285Y-73541554D01*
X220350840Y-67030428D01*
X220228805Y-66819104D01*
X219264442Y-65135038D01*
X218405751Y-63611124D01*
X217686194Y-62308615D01*
X217139234Y-61288763D01*
X216798333Y-60612819D01*
X216696952Y-60342036D01*
X216737849Y-60296560D01*
X217139277Y-60010204D01*
X217844574Y-59580211D01*
X218725815Y-59076784D01*
X219655071Y-58570124D01*
X220504417Y-58130435D01*
X221145925Y-57827920D01*
X221451668Y-57732780D01*
X221490627Y-57774541D01*
G37*
G36*
X243569585Y-45113380D02*
G01*
X243928304Y-45672672D01*
X244517005Y-46635159D01*
X245313615Y-47963436D01*
X246296065Y-49620096D01*
X247442283Y-51567734D01*
X248730197Y-53768946D01*
X250137736Y-56186325D01*
X251642829Y-58782465D01*
X253223404Y-61519962D01*
X262748404Y-78049924D01*
X262740188Y-83735954D01*
X262727010Y-85639657D01*
X262693294Y-87185226D01*
X262640624Y-88284018D01*
X262570508Y-88904882D01*
X262484455Y-89016665D01*
X262370679Y-88823002D01*
X261999784Y-88186393D01*
X261393817Y-87144146D01*
X260572813Y-85730779D01*
X259556803Y-83980810D01*
X258365821Y-81928758D01*
X257019901Y-79609141D01*
X255539076Y-77056477D01*
X253943380Y-74305285D01*
X252252845Y-71390083D01*
X250487505Y-68345389D01*
X249062917Y-65886427D01*
X247364662Y-62950310D01*
X245761742Y-60173803D01*
X244273741Y-57591086D01*
X242920244Y-55236338D01*
X241720835Y-53143737D01*
X240695098Y-51347463D01*
X239862616Y-49881695D01*
X239242976Y-48780612D01*
X238855760Y-48078393D01*
X238720552Y-47809219D01*
X238751910Y-47748996D01*
X239113860Y-47446536D01*
X239783572Y-46991465D01*
X240638646Y-46456756D01*
X241556678Y-45915381D01*
X242415268Y-45440314D01*
X243092014Y-45104527D01*
X243464514Y-44980992D01*
X243569585Y-45113380D01*
G37*
X193100000Y-6500000D02*
X193100000Y-13700000D01*
X193100000Y-13700000D02*
X191607491Y-13700000D01*
X187900000Y-6500000D02*
X187900000Y-13500000D01*
X32800000Y-20964750D02*
X32800000Y-19914750D01*
X37270000Y-15914750D02*
X37270000Y-19794750D01*
X32800000Y-14744750D02*
X32800000Y-15794750D01*
X32800000Y-15794750D02*
X31810000Y-15794750D01*
X35300000Y-14744750D02*
X32800000Y-14744750D01*
X35300000Y-20964750D02*
X32800000Y-20964750D01*
X11205000Y-35801252D02*
X11205000Y-35278748D01*
X9735000Y-35801252D02*
X9735000Y-35278748D01*
X47505000Y-43951252D02*
X47505000Y-43428748D01*
X48975000Y-43951252D02*
X48975000Y-43428748D01*
X11805000Y-35801252D02*
X11805000Y-35278748D01*
X13275000Y-35801252D02*
X13275000Y-35278748D01*
X149230000Y-52150000D02*
X149230000Y-54310000D01*
X146070000Y-52150000D02*
X147000000Y-52150000D01*
X146070000Y-52150000D02*
X146070000Y-53610000D01*
X149230000Y-52150000D02*
X148300000Y-52150000D01*
X18045000Y-35801252D02*
X18045000Y-35278748D01*
X19515000Y-35801252D02*
X19515000Y-35278748D01*
X15965000Y-35811252D02*
X15965000Y-35288748D01*
X17435000Y-35811252D02*
X17435000Y-35288748D01*
X21370000Y-20140000D02*
X25130000Y-20140000D01*
X25130000Y-26960000D02*
X25130000Y-25700000D01*
X19120000Y-26960000D02*
X25130000Y-26960000D01*
X25130000Y-20140000D02*
X25130000Y-21400000D01*
X15679287Y-14187997D02*
X15679287Y-15392125D01*
X17499287Y-14187997D02*
X17499287Y-15392125D01*
X250250000Y-13710000D02*
X248757491Y-13710000D01*
X250250000Y-6510000D02*
X250250000Y-13710000D01*
X245050000Y-6510000D02*
X245050000Y-13510000D01*
X34695692Y-47220381D02*
X35155311Y-47680000D01*
X25404308Y-48139619D02*
X24944689Y-47680000D01*
X24944689Y-47680000D02*
X25404308Y-47220381D01*
X30050000Y-42574689D02*
X29590381Y-43034308D01*
X29590381Y-52325692D02*
X30050000Y-52785311D01*
X30050000Y-52785311D02*
X30509619Y-52325692D01*
X30509619Y-43034308D02*
X30050000Y-42574689D01*
X20249287Y-13790061D02*
X19449287Y-13790061D01*
X20249287Y-16910061D02*
X21049287Y-16910061D01*
X20249287Y-13790061D02*
X22049287Y-13790061D01*
X20249287Y-16910061D02*
X19449287Y-16910061D01*
X21530000Y-74140000D02*
X21530000Y-75600000D01*
X24690000Y-74140000D02*
X24690000Y-76300000D01*
X24690000Y-74140000D02*
X23760000Y-74140000D01*
X21530000Y-74140000D02*
X22460000Y-74140000D01*
X146050000Y-46860000D02*
X146980000Y-46860000D01*
X149210000Y-46860000D02*
X148280000Y-46860000D01*
X149210000Y-46860000D02*
X149210000Y-49020000D01*
X146050000Y-46860000D02*
X146050000Y-48320000D01*
X153285370Y-58710172D02*
X154812721Y-57182822D01*
X153285370Y-58710172D02*
X153942979Y-59367782D01*
X155519828Y-60944630D02*
X156552203Y-59912254D01*
X155519828Y-60944630D02*
X154862218Y-60287021D01*
X141744024Y-50517182D02*
X142119104Y-52644367D01*
X138632031Y-51065910D02*
X139547902Y-50904417D01*
X141744024Y-50517182D02*
X140828152Y-50678675D01*
X138632031Y-51065910D02*
X138885557Y-52503730D01*
X21030835Y-50919718D02*
X20709718Y-51240835D01*
X22070282Y-51959165D02*
X21749165Y-52280282D01*
X23279287Y-4940061D02*
X23279287Y-2940061D01*
X13879287Y859939D02*
X23279287Y859939D01*
X13879287Y-4940061D02*
X13879287Y-2940061D01*
X23279287Y-1040061D02*
X23279287Y859939D01*
X13879287Y-1040061D02*
X13879287Y859939D01*
X149630172Y-44094630D02*
X150287782Y-43437021D01*
X149630172Y-44094630D02*
X148102822Y-42567279D01*
X151864630Y-41860172D02*
X150832254Y-40827797D01*
X151864630Y-41860172D02*
X151207021Y-42517782D01*
X97850000Y-13700000D02*
X96357491Y-13700000D01*
X92650000Y-6500000D02*
X92650000Y-13500000D01*
X97850000Y-6500000D02*
X97850000Y-13700000D01*
X142525370Y-56019828D02*
X143182979Y-55362218D01*
X144759828Y-53785370D02*
X144102218Y-54442979D01*
X142525370Y-56019828D02*
X143557746Y-57052203D01*
X144759828Y-53785370D02*
X146287178Y-55312721D01*
X143425370Y-41890172D02*
X144082979Y-42547782D01*
X143425370Y-41890172D02*
X144952721Y-40362822D01*
X145659828Y-44124630D02*
X145002218Y-43467021D01*
X145659828Y-44124630D02*
X146692203Y-43092254D01*
X156627969Y-51065910D02*
X155712098Y-50904417D01*
X156627969Y-51065910D02*
X156252889Y-53193095D01*
X153515976Y-50517182D02*
X154431848Y-50678675D01*
X153515976Y-50517182D02*
X153262450Y-51955001D01*
X130905000Y-31170000D02*
X129975000Y-31170000D01*
X130905000Y-31170000D02*
X130905000Y-32630000D01*
X127745000Y-31170000D02*
X127745000Y-33330000D01*
X127745000Y-31170000D02*
X128675000Y-31170000D01*
X146665000Y-33454750D02*
X146665000Y-32524750D01*
X146665000Y-30294750D02*
X145205000Y-30294750D01*
X146665000Y-30294750D02*
X146665000Y-31224750D01*
X146665000Y-33454750D02*
X144505000Y-33454750D01*
X20394990Y-56284457D02*
X20764457Y-55914990D01*
X19355543Y-55245010D02*
X19725010Y-54875543D01*
X27815543Y-39745010D02*
X28185010Y-39375543D01*
X28854990Y-40784457D02*
X29224457Y-40414990D01*
X154305000Y-31174750D02*
X155235000Y-31174750D01*
X154305000Y-31174750D02*
X154305000Y-32634750D01*
X157465000Y-31174750D02*
X156535000Y-31174750D01*
X157465000Y-31174750D02*
X157465000Y-33334750D01*
X118840000Y-90510000D02*
X118840000Y-81290000D01*
X107620000Y-81290000D02*
X107620000Y-90510000D01*
X118840000Y-81290000D02*
X107620000Y-81290000D01*
X107620000Y-90510000D02*
X118840000Y-90510000D01*
X13875000Y-35801252D02*
X13875000Y-35278748D01*
X15345000Y-35801252D02*
X15345000Y-35278748D01*
X134265000Y-31164750D02*
X134265000Y-32624750D01*
X137425000Y-31164750D02*
X136495000Y-31164750D01*
X134265000Y-31164750D02*
X135195000Y-31164750D01*
X137425000Y-31164750D02*
X137425000Y-33324750D01*
X141015000Y-31164750D02*
X140085000Y-31164750D01*
X141015000Y-31164750D02*
X141015000Y-33324750D01*
X137855000Y-31164750D02*
X138785000Y-31164750D01*
X137855000Y-31164750D02*
X137855000Y-32624750D01*
M02*
